<svg xmlns="http://www.w3.org/2000/svg" fill="none" viewBox="0 0 69 73" height="73" width="69">
<path fill="#453B67" d="M18.0115 16.109C19.8028 14.7371 19.8208 12.6342 18.6166 11.0586C17.4304 9.50694 15.6271 9.19541 14.3211 10.1899C13.9197 10.5014 13.6201 10.8969 13.4823 11.472C12.9431 9.6627 14.6805 8.85991 13.8597 7.79351C13.4763 7.29626 12.8892 7.24234 12.332 7.6677C12.0145 7.91333 11.8707 8.19491 11.7449 8.47649C10.6546 10.8369 11.5293 13.4969 12.7874 15.1385C14.2671 17.0676 16.2142 17.475 18.0055 16.109H18.0115ZM14.9801 12.149C15.5971 11.6757 16.3221 11.8914 16.7894 12.4964C17.2507 13.1015 17.2686 13.8564 16.6516 14.3297C16.0345 14.803 15.3096 14.5873 14.8423 13.9822C14.381 13.3771 14.363 12.6223 14.9801 12.149Z"></path>
<path fill="#453B67" d="M24.8831 12.3405C27.3394 11.4478 27.9924 8.73392 27.0458 6.13982C26.1052 3.54571 23.8646 1.88021 21.4083 2.77287C18.952 3.66553 18.299 6.37946 19.2455 8.97356C20.1861 11.5677 22.4268 13.2332 24.8831 12.3405ZM22.1751 4.87571C23.2415 4.4863 24.3259 5.46283 24.8591 6.93662C25.3923 8.41041 25.1886 9.85424 24.1222 10.2377C23.0558 10.6211 21.9715 9.65054 21.4383 8.17676C20.9051 6.70297 21.1087 5.25914 22.1751 4.87571Z"></path>
<path fill="#453B67" d="M32.9889 10.4892L35.2535 10.663C38.2311 10.8906 40.1362 9.05138 40.3639 6.13376C40.5915 3.21614 38.9859 1.10132 36.0084 0.873662L33.7498 0.693932C33.0668 0.640013 32.5516 1.07736 32.4977 1.76632L31.9165 9.2371C31.8626 9.92008 32.306 10.4353 32.9889 10.4892ZM34.7323 3.0484L35.8766 3.13826C37.3923 3.25808 38.1472 4.13876 38.0094 5.95403C37.8716 7.76931 36.9849 8.52417 35.4692 8.40435L34.3249 8.31449L34.7323 3.0484Z"></path>
<path fill="#453B67" d="M40.7293 11.5381C41.3105 11.7777 41.7298 11.55 42.1612 11.1367L42.8202 10.4896L45.8876 11.7717L45.9056 12.7003C45.9115 13.2994 46.0434 13.7607 46.6245 14.0004C47.2416 14.258 47.8287 14.0183 48.0803 13.4252C48.1582 13.2335 48.2361 12.94 48.2361 12.6344L48.302 4.7862C48.302 4.07927 48.0863 3.64192 47.589 3.43823C47.0918 3.22854 46.6305 3.37832 46.1272 3.87557L40.5855 9.43522C40.3639 9.6509 40.2081 9.90851 40.1302 10.1002C39.8846 10.6933 40.1242 11.2805 40.7413 11.5381H40.7293ZM46.1093 6.94297C46.0014 7.8536 45.9355 8.66837 45.9295 9.61495L44.3299 8.94396C44.9889 8.26698 45.5341 7.6499 46.1093 6.93697V6.94297Z"></path>
<path fill="#453B67" d="M49.3923 16.079C49.9135 16.4804 50.6144 16.3965 51.0937 15.7675L52.5136 13.9043L57.2645 11.7895C57.5161 11.6816 57.7797 11.4899 57.9594 11.2503C58.3608 10.7291 58.265 10.136 57.7557 9.74653C57.3304 9.42302 56.881 9.41703 56.3718 9.64469L55.3054 10.13C54.5625 10.4655 53.8795 10.8429 53.0108 11.3401C53.2625 10.3696 53.4482 9.60874 53.574 8.80595L53.7597 7.65567C53.8436 7.09851 53.7238 6.67315 53.2984 6.34365C52.7892 5.95423 52.1901 6.02612 51.7947 6.54734C51.6149 6.78698 51.4951 7.08653 51.4532 7.35612L50.6624 12.4964L49.2425 14.3596C48.7632 14.9887 48.8651 15.6896 49.3863 16.085L49.3923 16.079Z"></path>
<path fill="#453B67" d="M6.21499 52.1451C6.86202 51.8875 7.12563 51.2943 6.86801 50.6413L6.00531 48.4546C5.73571 47.7656 5.11864 47.508 4.55548 47.7297C3.98634 47.9514 3.71674 48.5565 3.98634 49.2454L4.42368 50.3538C3.50107 50.6413 2.79413 50.1021 2.46462 49.2754C1.91345 47.8795 2.78814 46.6573 4.22598 46.0882C5.66382 45.519 7.14959 45.8485 7.66482 47.1606C7.90446 47.7656 7.83256 48.3108 7.64684 48.7302C7.50306 49.0897 7.46112 49.4431 7.60491 49.8026C7.84455 50.4077 8.44365 50.6353 9.02477 50.4077C9.46811 50.2339 9.72572 49.8745 9.8695 49.4671C10.205 48.5025 10.205 47.4361 9.76766 46.3278C8.70725 43.6319 5.92143 42.895 3.36328 43.9014C0.805117 44.9079 -0.72259 47.3463 0.343809 50.0602C1.32034 52.5345 3.65084 53.1456 5.43616 52.4446L6.209 52.1391L6.21499 52.1451Z"></path>
<path fill="#453B67" d="M15.7226 57.3448C16.3217 56.8296 16.3637 56.1286 15.9383 55.6314C15.513 55.1341 14.812 55.0742 14.2129 55.5834L10.852 58.4711C9.88141 59.3038 8.91087 59.4956 8.14402 58.6029C7.37717 57.7102 7.71267 56.7816 8.68321 55.9489L12.0442 53.0612C12.6433 52.546 12.6852 51.845 12.2598 51.3478C11.8345 50.8505 11.1335 50.7906 10.5344 51.2999L7.11956 54.2355C5.1605 55.9189 4.83699 58.2135 6.43659 60.0707C8.03619 61.9279 10.3487 61.9579 12.3138 60.2744L15.7286 57.3388L15.7226 57.3448Z"></path>
<path fill="#453B67" d="M20.1379 58.6573C19.6826 58.3757 19.2033 58.4476 18.6342 58.861L12.3137 63.4561C12.0621 63.6358 11.8703 63.8635 11.7625 64.0372C11.427 64.5824 11.5708 65.1935 12.1399 65.5469C12.6731 65.8764 13.1165 65.7147 13.6077 65.3732L14.3566 64.84L17.1724 66.5834L17.0406 67.5C16.9507 68.0931 17.0106 68.5664 17.5438 68.8959C18.113 69.2494 18.724 69.1056 19.0595 68.5604C19.1674 68.3867 19.2872 68.1051 19.3351 67.8055L20.6292 60.0951C20.743 59.4002 20.5932 58.9389 20.1379 58.6573ZM17.5498 64.4805L16.082 63.5759C16.8309 63.0127 17.4659 62.4915 18.1429 61.8804C17.8973 62.7611 17.7056 63.5459 17.5498 64.4805Z"></path>
<path fill="#453B67" d="M27.4174 61.8802L24.997 61.2631C24.3201 61.0894 23.7629 61.4189 23.5892 62.0959L21.7319 69.351C21.5342 70.1118 21.9057 70.7169 22.5407 70.8787C23.1758 71.0404 23.7869 70.6929 23.9786 69.9261L24.4878 67.9371L25.698 68.2486L26.5427 70.9506C26.7284 71.5497 26.9321 71.999 27.5552 72.1607C28.2202 72.3285 28.7175 71.999 28.8672 71.4059C28.9811 70.9565 28.8672 70.6091 28.7594 70.2736L28.0465 68.2067C29.0889 67.9071 29.8498 67.1523 30.1553 65.966C30.6466 64.0489 29.5861 62.4314 27.4294 61.8802H27.4174ZM27.8607 65.4448C27.681 66.1518 27.0879 66.3674 26.3091 66.1697L25.027 65.8402L25.5662 63.7374L26.8483 64.0669C27.6271 64.2646 28.0405 64.7379 27.8607 65.4448Z"></path>
<path fill="#453B67" d="M36.1998 63.3721C35.9002 62.731 35.5168 62.4375 34.9836 62.4674C34.4504 62.4914 34.0909 62.8209 33.8573 63.4919L31.2572 70.8608C31.1494 71.1484 31.1194 71.4479 31.1314 71.6576C31.1613 72.2927 31.6286 72.718 32.2996 72.6881C32.9227 72.6581 33.2043 72.2747 33.414 71.7115L33.7315 70.8488L37.0385 70.6871L37.4519 71.5138C37.7155 72.053 38.033 72.4065 38.6561 72.3765C39.3211 72.3466 39.7464 71.8793 39.7165 71.2382C39.7045 71.0286 39.6446 70.735 39.5128 70.4594L36.2058 63.378L36.1998 63.3721ZM34.4264 68.8119C34.726 67.9192 34.9536 67.1344 35.1633 66.2477C35.4569 67.1104 35.7504 67.8713 36.1458 68.728L34.4264 68.8119Z"></path>
<path fill="#453B67" d="M47.3492 60.4362C47.0616 59.7053 46.4146 59.4297 45.8035 59.6693C45.1924 59.909 44.9049 60.55 45.1865 61.2809L45.7017 62.5989C46.0611 63.5275 46.4805 64.5101 46.9478 65.4626C46.151 64.8515 45.4381 64.3783 44.7012 63.9169L41.6038 62.0358C41.1186 61.7302 40.7531 61.6523 40.3218 61.8201C39.6987 62.0657 39.4531 62.6528 39.7227 63.3478L42.4905 70.4232C42.7781 71.1541 43.4251 71.4297 44.0362 71.19C44.6473 70.9504 44.9348 70.3093 44.6473 69.5784L44.132 68.2604C43.7666 67.3318 43.3532 66.3493 42.8859 65.3967C43.6827 66.0078 44.3956 66.4811 45.1325 66.9424L48.2299 68.8296C48.7152 69.1351 49.0806 69.213 49.512 69.0452C50.135 68.7996 50.3807 68.2125 50.1111 67.5175L47.3432 60.4422L47.3492 60.4362Z"></path>
<path fill="#453B67" d="M52.3695 57.8785L53.5257 56.9439C54.1248 56.4586 54.1847 55.7756 53.7833 55.2784C53.3819 54.7811 52.705 54.7032 52.0999 55.1885L47.99 58.5195C47.3909 59.0048 47.331 59.6877 47.7324 60.185C48.1338 60.6822 48.8108 60.7601 49.4159 60.2749L50.5722 59.3403L54.5981 64.3008C55.0954 64.9119 55.7963 64.9718 56.3056 64.5644C56.8148 64.157 56.8987 63.4561 56.4014 62.839L52.3755 57.8785H52.3695Z"></path>
<path fill="#453B67" d="M64.1539 53.5587C63.6327 53.1933 62.9557 53.2951 62.5124 53.9302L60.6132 56.6261L59.2772 55.6855L60.2478 54.3136C60.6731 53.7085 60.5533 53.0555 60.0561 52.702C59.5588 52.3485 58.9058 52.4504 58.4744 53.0615L57.5039 54.4334L56.3117 53.5947L58.1629 50.9706C58.6062 50.3416 58.4804 49.6706 57.9592 49.2991C57.438 48.9277 56.761 49.0355 56.3177 49.6706L53.8015 53.2412C53.4001 53.8104 53.5079 54.4514 54.083 54.8588L60.1759 59.1603C60.745 59.5617 61.3861 59.4539 61.7934 58.8787L64.3636 55.2362C64.8069 54.6072 64.6811 53.9362 64.1599 53.5647L64.1539 53.5587Z"></path>
<path fill="#453B67" d="M67.6046 44.6201C66.9995 44.4104 66.3825 44.692 66.1249 45.4229L65.0285 48.5322L63.4888 47.993L64.046 46.4114C64.2916 45.7105 63.998 45.1173 63.4229 44.9137C62.8478 44.71 62.2487 44.9855 62.003 45.6865L61.4459 47.2681L60.0739 46.7828L61.1403 43.7574C61.3979 43.0265 61.0924 42.4154 60.4873 42.2057C59.8822 41.996 59.2651 42.2776 59.0075 43.0085L57.5577 47.1303C57.3241 47.7893 57.6056 48.3765 58.2647 48.6101L65.2981 51.0844C65.9571 51.318 66.5442 51.0365 66.7779 50.3774L68.2576 46.1718C68.5153 45.4409 68.2097 44.8298 67.6046 44.6201Z"></path>
<path fill="#453B67" d="M58.2051 19.2124C61.8476 24.3227 63.7707 30.3497 63.7707 36.6462C63.7707 37.2693 63.7528 37.9044 63.7108 38.5274C63.6869 38.9228 63.9864 39.2643 64.3818 39.2883C64.3998 39.2883 64.4118 39.2883 64.4237 39.2883C64.8012 39.2883 65.1187 38.9947 65.1427 38.6113C65.1846 37.9583 65.2026 37.2933 65.2026 36.6402C65.2026 30.0442 63.1836 23.7236 59.3673 18.3737C59.1397 18.0502 58.6904 17.9723 58.3668 18.2059C58.0433 18.4336 57.9654 18.8829 58.1991 19.2064L58.2051 19.2124Z"></path>
<path fill="#453B67" d="M2.95572 39.288C2.95572 39.288 2.98567 39.288 2.99766 39.288C3.39306 39.264 3.69261 38.9225 3.66865 38.5271C3.6327 37.9041 3.60874 37.275 3.60874 36.6459C3.60874 30.3494 5.53185 24.3165 9.17438 19.2121C9.40204 18.8886 9.33015 18.4393 9.00663 18.2116C8.68312 17.984 8.23379 18.0559 8.00614 18.3794C4.18987 23.7353 2.1709 30.0498 2.1709 36.6519C2.1709 37.305 2.18887 37.97 2.23081 38.617C2.25477 39.0004 2.5723 39.294 2.94973 39.294L2.95572 39.288Z"></path>
<path fill="#453B67" d="M33.6957 60.3167C46.6902 60.3167 57.2643 49.7426 57.2643 36.7421C57.2643 23.7416 46.6902 13.1675 33.6957 13.1675C20.7012 13.1675 10.1211 23.7476 10.1211 36.7421C10.1211 49.7366 20.6952 60.3167 33.6957 60.3167ZM33.6957 14.5814C45.9173 14.5814 55.8624 24.5264 55.8624 36.7481C55.8624 48.9697 45.9173 58.9148 33.6957 58.9148C21.474 58.9148 11.529 48.9697 11.529 36.7481C11.529 24.5264 21.474 14.5814 33.6957 14.5814Z"></path>
<path fill="#453B67" d="M21.8034 50.0724H45.5817C47.4509 50.0724 48.9726 48.5507 48.9726 46.6815V25.5452C48.9726 25.1318 48.6371 24.7963 48.2237 24.7963H42.3705V22.9032C42.3705 22.4898 42.035 22.1543 41.6216 22.1543C41.2082 22.1543 40.8727 22.4898 40.8727 22.9032V24.7963H37.0864V22.9032C37.0864 22.4898 36.7509 22.1543 36.3375 22.1543C35.9242 22.1543 35.5887 22.4898 35.5887 22.9032V24.7963H31.8024V22.9032C31.8024 22.4898 31.4669 22.1543 31.0535 22.1543C30.6401 22.1543 30.3046 22.4898 30.3046 22.9032V24.7963H26.5183V22.9032C26.5183 22.4898 26.1828 22.1543 25.7694 22.1543C25.356 22.1543 25.0205 22.4898 25.0205 22.9032V24.7963H19.1673C18.754 24.7963 18.4185 25.1318 18.4185 25.5452V46.6815C18.4185 48.5507 19.9402 50.0724 21.8094 50.0724H21.8034ZM19.9102 26.2941H25.0146V28.1872C25.0146 28.6006 25.35 28.9361 25.7634 28.9361C26.1768 28.9361 26.5123 28.6006 26.5123 28.1872V26.2941H30.2986V28.1872C30.2986 28.6006 30.6341 28.9361 31.0475 28.9361C31.4609 28.9361 31.7964 28.6006 31.7964 28.1872V26.2941H35.5827V28.1872C35.5827 28.6006 35.9182 28.9361 36.3316 28.9361C36.7449 28.9361 37.0804 28.6006 37.0804 28.1872V26.2941H40.8667V28.1872C40.8667 28.6006 41.2022 28.9361 41.6156 28.9361C42.029 28.9361 42.3645 28.6006 42.3645 28.1872V26.2941H47.4688V46.6815C47.4688 47.7239 46.6181 48.5746 45.5757 48.5746H21.7974C20.7549 48.5746 19.9042 47.7239 19.9042 46.6815V26.2941H19.9102Z"></path>
<path fill="#453B67" d="M33.7318 45.926C37.7877 45.926 41.0888 42.625 41.0888 38.5691C41.0888 37.2271 40.7233 35.975 40.0943 34.8906L42.1911 32.4523C42.4607 32.1407 42.4248 31.6675 42.1132 31.3979C41.8017 31.1283 41.3284 31.1642 41.0588 31.4757L39.1896 33.6505C37.8417 32.1587 35.9006 31.2181 33.7378 31.2181C29.6819 31.2181 26.3809 34.5192 26.3809 38.5751C26.3809 42.631 29.6819 45.932 33.7378 45.932L33.7318 45.926ZM33.7318 32.7159C35.5231 32.7159 37.1227 33.5247 38.2011 34.7948L33.6719 40.0549L31.1317 37.329C30.8501 37.0294 30.3769 37.0114 30.0713 37.293C29.7718 37.5746 29.7538 38.0479 30.0354 38.3534L33.1447 41.6904C33.2885 41.8402 33.4862 41.93 33.6899 41.93H33.7019C33.9175 41.93 34.1152 41.8282 34.253 41.6724L39.0279 36.1188C39.3753 36.8677 39.5731 37.7004 39.5731 38.5751C39.5731 41.8042 36.943 44.4343 33.7138 44.4343C30.4847 44.4343 27.8546 41.8042 27.8546 38.5751C27.8546 35.3459 30.4847 32.7159 33.7138 32.7159H33.7318Z"></path>
</svg>
