<svg xmlns="http://www.w3.org/2000/svg" fill="none" viewBox="0 0 1728 468" height="468" width="1728">
<path fill-opacity="0.2" fill="#BBB2FF" d="M-3.41408 307.259L207.549 277.679C211.697 277.087 215.257 280.354 214.535 284.071L180.924 460.692C180.151 464.766 184.425 468.125 188.809 466.889L768.594 302.918C771.79 302.022 775.209 303.575 776.254 306.45L833.138 461.656C834.263 464.745 838.106 466.273 841.405 464.995L1259.83 302.107C1262.94 300.902 1266.57 302.193 1267.91 304.995L1332.84 440.931C1334.34 444.065 1338.6 445.234 1341.79 443.409L1735.97 216.976C1741.64 213.711 1738.22 205.802 1731.58 206.882L1446.74 252.964C1443.06 253.553 1439.67 251.095 1439.52 247.763L1430.65 58.5709C1430.47 54.8351 1426.33 52.3328 1422.43 53.6135L968.382 200.731C965.61 201.625 962.511 200.617 961.018 198.34L833.754 3.40194C832.049 0.792333 828.342 -0.0937513 825.414 1.39635L372.424 233.262C368.045 235.497 362.687 232.31 363.3 227.785L380.752 99.2485C381.365 94.6996 375.901 91.4898 371.523 93.8439L-7.51052 297.069C-13.3129 300.192 -10.0999 308.22 -3.4404 307.283L-3.41408 307.259Z"></path>
</svg>
