<svg xmlns="http://www.w3.org/2000/svg" fill="none" viewBox="0 0 1728 468" height="468" width="1728">
<path fill-opacity="0.3" fill="#FFDD68" d="M-2.44557 307.579L208.547 277.995C212.697 277.403 216.257 280.67 215.535 284.387L181.919 461.034C181.146 465.108 185.421 468.467 189.805 467.232L769.673 303.237C772.869 302.341 776.288 303.895 777.334 306.77L834.226 461.998C835.352 465.087 839.194 466.615 842.494 465.337L1260.98 302.426C1264.09 301.221 1267.72 302.512 1269.06 305.314L1334 441.27C1335.5 444.404 1339.76 445.573 1342.95 443.748L1737.19 217.282C1742.86 214.017 1739.43 206.107 1732.8 207.188L1447.91 253.276C1444.24 253.865 1440.84 251.406 1440.69 248.075L1431.82 58.8552C1431.64 55.1189 1427.51 52.6162 1423.6 53.8971L969.489 201.036C966.717 201.93 963.617 200.922 962.125 198.644L834.842 3.67834C833.137 1.06837 829.429 0.182157 826.501 1.67247L373.446 233.571C369.067 235.806 363.708 232.619 364.321 228.094L381.776 99.5386C382.388 94.9891 376.924 91.7788 372.545 94.1332L-6.54259 297.387C-12.3458 300.51 -9.1323 308.54 -2.4719 307.603L-2.44557 307.579Z"></path>
</svg>
