<svg xmlns="http://www.w3.org/2000/svg" fill="none" viewBox="0 0 65 73" height="73" width="65">
<path fill="#453B67" d="M2.64128 17.9633L8.41988 22.4712C8.96447 22.8948 9.59376 22.8161 10.0173 22.2776L11.4998 20.3776C13.0549 18.3869 13.0246 16.9044 11.6934 15.8636C10.574 14.9923 9.52115 15.2041 8.77689 15.8273C9.03102 15.0044 8.93421 14.2238 8.06893 13.5522C6.78009 12.5477 5.17055 12.8805 3.71834 14.7321L2.4416 16.3659C2.01804 16.9044 2.0967 17.5397 2.64128 17.9633ZM8.45619 17.927C8.91606 17.3401 9.41828 17.1222 9.90235 17.4974C10.3864 17.8725 10.2957 18.4171 9.83579 19.004L9.01892 20.0509L7.63932 18.9738L8.45619 17.927ZM5.51546 15.9483C5.92692 15.4219 6.38073 15.2162 6.82245 15.5611C7.25811 15.8999 7.1734 16.3901 6.76194 16.9225L6.09634 17.7757L4.85591 16.8076L5.52151 15.9544L5.51546 15.9483Z"></path>
<path fill="#453B67" d="M12.0562 13.5824C13.4661 15.6942 15.6626 16.2811 17.6654 14.9438C19.6683 13.6066 19.9708 11.3557 18.5609 9.2439L16.1103 5.56496C15.6807 4.92356 15.003 4.79649 14.4645 5.1535C13.932 5.5105 13.7868 6.1882 14.2164 6.82959L16.6307 10.448C17.3266 11.4948 17.3931 12.463 16.4371 13.1044C15.481 13.7458 14.6097 13.3101 13.9139 12.2633L11.4996 8.64486C11.0699 8.00347 10.3922 7.8764 9.85371 8.2334C9.32123 8.5904 9.17601 9.2681 9.60562 9.9095L12.0562 13.5884V13.5824Z"></path>
<path fill="#453B67" d="M21.9858 11.1987C22.246 11.9308 22.8693 12.2152 23.4744 12.0034C24.0794 11.7917 24.388 11.1684 24.1339 10.4423L21.6833 3.47168C21.4231 2.73952 20.7999 2.45513 20.1948 2.66691C19.5897 2.87869 19.2811 3.50193 19.5352 4.22804L21.9858 11.1987Z"></path>
<path fill="#453B67" d="M25.9492 9.7947C26.0339 10.4603 26.5543 10.8657 27.2199 10.787L31.3345 10.2788C32.0909 10.188 32.4963 9.64948 32.4176 9.02624C32.339 8.403 31.8186 7.97943 31.0622 8.07625L28.0731 8.44535L27.3046 2.21293C27.2078 1.44447 26.6572 1.02696 26.0218 1.10562C25.3865 1.18428 24.9508 1.72281 25.0476 2.49127L25.9432 9.7947H25.9492Z"></path>
<path fill="#453B67" d="M33.3373 2.90263L34.7895 3.05995L34.1057 9.29842C34.021 10.0669 34.4627 10.5994 35.0981 10.672C35.7334 10.7446 36.2841 10.315 36.3688 9.54651L37.0525 3.30804L38.5047 3.46536C39.2611 3.55008 39.7754 3.12046 39.848 2.49722C39.9146 1.87398 39.5031 1.3415 38.7528 1.26284L33.5793 0.700104C32.8229 0.615391 32.3086 1.045 32.236 1.66825C32.1694 2.29149 32.5809 2.82397 33.3312 2.90868L33.3373 2.90263Z"></path>
<path fill="#453B67" d="M45.4994 14.1635C47.9561 15.6096 50.558 14.4963 51.9255 12.1667C53.293 9.83709 53.0025 7.02343 50.5519 5.57726C48.0953 4.1311 45.4934 5.24446 44.1259 7.57406C42.7523 9.90365 43.0488 12.7173 45.4994 14.1635ZM46.1106 8.74793C46.879 7.44094 48.2284 6.79349 49.4265 7.4954C50.6185 8.1973 50.7092 9.69187 49.9408 10.9989C49.1723 12.3059 47.823 12.9533 46.6249 12.2514C45.4329 11.5495 45.3421 10.0549 46.1106 8.74793Z"></path>
<path fill="#453B67" d="M50.7818 18.0056C51.1872 18.5018 51.871 18.5865 52.4761 18.0964L53.5531 17.2251C54.3095 16.6079 55.1082 15.9241 55.8585 15.198C55.5257 16.1298 55.2958 16.9346 55.084 17.7636L54.249 21.2247C54.1098 21.7693 54.1461 22.1384 54.4305 22.4893C54.842 22.9976 55.4713 23.0521 56.0401 22.5922L61.8247 17.8907C62.4237 17.4005 62.4843 16.7168 62.0788 16.2146C61.6734 15.7184 60.9897 15.6337 60.3846 16.1238L59.3075 16.9951C58.5512 17.6123 57.7525 18.2961 57.0021 19.0222C57.3349 18.0903 57.5649 17.2856 57.7767 16.4566L58.6117 12.9955C58.7509 12.4509 58.7145 12.0818 58.4302 11.7308C58.0126 11.2226 57.3894 11.1681 56.8206 11.628L51.036 16.3295C50.4369 16.8196 50.3764 17.5094 50.7818 18.0056Z"></path>
<path fill="#453B67" d="M13.6599 57.8151C14.3739 57.1676 14.2348 55.7578 12.9217 54.3055C11.4029 52.6294 9.81155 52.5508 8.50456 53.7368C7.04629 55.0619 7.4033 56.5867 7.94788 57.7303C8.37749 58.6622 8.91602 59.4549 8.36539 59.951C8.06284 60.2233 7.66348 60.1568 7.12495 59.5577C6.0842 58.4081 6.78005 57.8998 6.11446 57.1616C5.63643 56.6291 5.05555 56.6654 4.63199 57.0466C3.76671 57.8332 4.17817 59.4851 5.52147 60.9676C7.13706 62.7526 8.72844 62.7707 9.98703 61.6332C11.5361 60.2354 10.9007 58.6803 10.3198 57.452C9.95677 56.7017 9.58162 55.9151 10.108 55.4371C10.4348 55.1406 10.8523 55.195 11.3727 55.7699C12.1472 56.623 11.6813 57.089 12.2319 57.694C12.6736 58.1781 13.2424 58.1963 13.6599 57.8151Z"></path>
<path fill="#453B67" d="M21.1085 63.0243C21.3505 62.6249 21.3384 62.1892 21.2053 61.7899C20.8967 60.8338 20.2553 60.0049 19.2569 59.3998C16.8244 57.9294 14.2044 59.0065 12.8066 61.3179C11.4089 63.6294 11.6691 66.4491 14.1015 67.9194C15.0999 68.5245 16.1346 68.7061 17.1209 68.5366C17.5384 68.464 17.9317 68.2764 18.1677 67.8771C18.4824 67.3507 18.3674 66.7335 17.8168 66.4007C17.49 66.207 17.1451 66.1828 16.776 66.2615C16.3343 66.3704 15.7958 66.3523 15.2512 66.0195C14.0652 65.2994 13.9926 63.8109 14.7792 62.5099C15.5658 61.209 16.9212 60.5797 18.1072 61.2998C18.6578 61.6326 18.918 62.0985 19.027 62.5402C19.1298 62.9093 19.3053 63.2058 19.632 63.3994C20.1827 63.7322 20.7878 63.5507 21.1024 63.0303L21.1085 63.0243Z"></path>
<path fill="#453B67" d="M24.2368 61.6206C23.6256 61.427 23.0024 61.7295 22.7664 62.4677L20.5155 69.5049C20.2795 70.2431 20.6062 70.8543 21.2174 71.0479C21.8285 71.2415 22.4518 70.939 22.6878 70.2008L24.9387 63.1636C25.1747 62.4254 24.8479 61.8142 24.2368 61.6206Z"></path>
<path fill="#453B67" d="M32.0666 63.1089L27.7947 62.7096C27.1109 62.6491 26.6208 63.0545 26.5543 63.7382L25.8766 71.0356C25.816 71.7193 26.2215 72.2095 26.9052 72.276L31.2679 72.6814C32.0243 72.754 32.5325 72.3184 32.593 71.6891C32.6536 71.0658 32.23 70.5394 31.4736 70.4729L28.2485 70.1703L28.3998 68.5729L30.0396 68.7241C30.7657 68.7907 31.2618 68.3671 31.3163 67.7742C31.3708 67.1812 30.9654 66.6729 30.2392 66.6063L28.5934 66.4551L28.7265 65.0331L31.8669 65.3235C32.6233 65.3962 33.1316 64.9605 33.1921 64.3312C33.2526 63.708 32.829 63.1815 32.0727 63.115L32.0666 63.1089Z"></path>
<path fill="#453B67" d="M41.9661 62.6432C41.8027 61.8869 41.2158 61.5238 40.5865 61.6569C39.9572 61.7961 39.576 62.3709 39.7393 63.1273L40.0358 64.4827C40.2416 65.4387 40.4957 66.4553 40.7982 67.4537C40.1205 66.7336 39.5034 66.1648 38.862 65.6082L36.1512 63.3028C35.7276 62.9337 35.3827 62.8005 34.941 62.8913C34.2996 63.0305 33.9668 63.563 34.1241 64.277L35.7094 71.5622C35.8728 72.3186 36.4598 72.6817 37.089 72.5485C37.7183 72.4094 38.0995 71.8345 37.9362 71.0782L37.6397 69.7228C37.4339 68.7667 37.1798 67.7502 36.8773 66.7518C37.555 67.4718 38.1722 68.0406 38.8136 68.5973L41.5244 70.9027C41.9479 71.2718 42.2928 71.4049 42.7345 71.3141C43.3759 71.175 43.7087 70.6425 43.5514 69.9285L41.9661 62.6432Z"></path>
<path fill="#453B67" d="M51.7322 63.2908C51.4055 63.4905 51.23 63.781 51.1271 64.1501C51.0182 64.5918 50.758 65.0577 50.2074 65.3905C49.0214 66.1105 47.666 65.4752 46.8794 64.1803C46.0928 62.8794 46.1654 61.3908 47.3514 60.6708C47.902 60.338 48.4345 60.3198 48.8762 60.4288C49.2513 60.5135 49.5962 60.4893 49.923 60.2896C50.4736 59.9568 50.5946 59.3396 50.2739 58.8132C50.0319 58.4138 49.6446 58.2202 49.2271 58.1536C48.2348 57.9842 47.2061 58.1657 46.2077 58.7708C43.7692 60.2472 43.5151 63.0609 44.9129 65.3723C46.3106 67.6838 48.9246 68.7608 51.3631 67.2905C52.3615 66.6854 53.0029 65.8564 53.3115 64.9004C53.4446 64.495 53.4567 64.0653 53.2147 63.666C52.9 63.1396 52.2949 62.958 51.7443 63.2908H51.7322Z"></path>
<path fill="#453B67" d="M58.8239 57.4519L56.6576 59.8601L55.4656 58.7831L56.5669 57.5608C57.057 57.0162 57.0086 56.3688 56.5669 55.9694C56.1252 55.57 55.4717 55.5942 54.9816 56.1328L53.8803 57.3611L52.8153 56.4051L54.9271 54.0634C55.4354 53.5006 55.387 52.829 54.9271 52.4115C54.4612 51.994 53.7895 52.0182 53.2813 52.5809L50.4071 55.7697C49.9472 56.278 49.9835 56.9194 50.4918 57.3732L55.9315 62.2744C56.4398 62.7343 57.0812 62.698 57.5411 62.1897L60.4697 58.9404C60.978 58.3777 60.9296 57.706 60.4697 57.2885C60.0038 56.871 59.3321 56.8952 58.8239 57.4579V57.4519Z"></path>
<path fill="#453B67" d="M4.75292 52.1688C4.86788 52.1688 4.98285 52.1446 5.08572 52.0841C5.43062 51.9025 5.56374 51.4669 5.37616 51.122C3.02841 46.7411 1.78798 41.7794 1.78798 36.7813C1.78798 32.5881 2.623 28.5279 4.2749 24.7159C4.43222 24.3589 4.2628 23.9353 3.90579 23.784C3.54274 23.6267 3.12523 23.7961 2.97395 24.1531C1.24945 28.1407 0.37207 32.3944 0.37207 36.7813C0.37207 42.0154 1.67301 47.207 4.12968 51.7936C4.25674 52.0296 4.50483 52.1688 4.75897 52.1688H4.75292Z"></path>
<path fill="#453B67" d="M59.3137 52.0841C59.4226 52.1446 59.5375 52.1688 59.6465 52.1688C59.9006 52.1688 60.1426 52.0357 60.2758 51.7936C62.7324 47.2071 64.0334 42.0154 64.0334 36.7814C64.0334 32.4308 63.1681 28.2133 61.4678 24.2439C61.3105 23.8809 60.893 23.7175 60.5359 23.8688C60.1789 24.0261 60.0095 24.4436 60.1608 24.8006C61.7885 28.5885 62.6114 32.6184 62.6114 36.7814C62.6114 41.7855 61.371 46.7411 59.0232 51.122C58.8356 51.4669 58.9688 51.8965 59.3137 52.0841Z"></path>
<path fill="#453B67" d="M32.1999 12.9712C19.0755 12.9712 8.38965 23.651 8.38965 36.7815C8.38965 49.9119 19.0695 60.5917 32.1999 60.5917C38.5594 60.5917 44.5377 58.1169 49.0335 53.6211C53.5293 49.1253 56.0041 43.147 56.0041 36.7875C56.0041 23.6631 45.3243 12.9772 32.1939 12.9772L32.1999 12.9712ZM48.0291 52.6106C43.7995 56.8402 38.1782 59.1698 32.1999 59.1698C19.8561 59.1698 9.81161 49.1253 9.81161 36.7815C9.81161 24.4376 19.8561 14.3932 32.1999 14.3932C44.5437 14.3932 54.5882 24.4376 54.5882 36.7815C54.5882 42.7597 52.2586 48.381 48.0291 52.6106Z"></path>
<path fill="#453B67" d="M47.3634 28.601C47.2545 26.1927 46.4073 24.202 44.9249 22.8466C41.2822 19.5246 34.2753 20.6803 27.819 25.636C25.5257 25.6602 23.3413 25.9567 21.4293 26.5255C22.0586 23.6755 23.4321 21.5577 25.3926 20.7227C27.0324 20.0269 28.9929 20.1721 31.0683 21.1342C31.4253 21.3036 31.8489 21.1463 32.0123 20.7893C32.1756 20.4323 32.0244 20.0087 31.6674 19.8453C29.2107 18.7078 26.8509 18.5565 24.8359 19.4097C22.113 20.5654 20.3461 23.5424 19.7955 27.5058C19.7955 27.5239 19.7895 27.5421 19.7895 27.5602C19.493 29.6962 19.5535 32.1165 20.0073 34.6942C19.1118 36.2493 18.3978 37.8286 17.8955 39.3958C16.1952 37.4534 15.3965 35.3296 15.8261 33.3025C16.0924 32.056 16.8003 30.9487 17.9379 29.9987C18.2404 29.7506 18.2767 29.2968 18.0287 29.0003C17.7806 28.6978 17.3328 28.6615 17.0303 28.9096C15.6446 30.0653 14.7733 31.4509 14.4405 33.0121C13.8717 35.6866 15.0637 38.4942 17.472 40.9387C17.4538 41.0053 17.4357 41.0719 17.4175 41.1384C16.5038 45.253 17.236 48.6536 19.493 50.7109C20.8786 51.9695 22.7544 52.6109 24.9327 52.6109C26.3849 52.6109 27.9824 52.3144 29.6464 51.7396C29.7674 51.8364 29.8884 51.9514 30.0155 52.0421C32.333 53.7969 34.6686 54.6985 36.8167 54.6985C37.7848 54.6985 38.7106 54.5169 39.5819 54.1478C42.3835 52.9558 44.2109 49.9969 44.7131 45.8097C44.9733 43.6495 44.8523 41.2836 44.4045 38.8572C45.3 37.2961 46.014 35.7108 46.5163 34.1617C48.2166 36.1041 49.0153 38.2279 48.5857 40.255C48.3194 41.4954 47.6115 42.6088 46.4679 43.5648C46.1653 43.819 46.129 44.2667 46.3771 44.5632C46.5163 44.7327 46.722 44.8174 46.9217 44.8174C47.079 44.8174 47.2424 44.7629 47.3755 44.654C48.7672 43.4922 49.6385 42.1066 49.9713 40.5454C50.5341 37.8709 49.3481 35.0633 46.9459 32.6188C47.2787 31.221 47.43 29.8656 47.3694 28.607L47.3634 28.601ZM43.9688 23.8994C45.173 24.9946 45.8567 26.6465 45.9475 28.6736C45.9898 29.5691 45.9112 30.5252 45.7297 31.5054C44.2048 30.2287 42.3411 29.085 40.2173 28.1472C38.9708 26.1685 37.5004 24.329 36.0422 22.9192C39.2915 22.0055 42.1838 22.2778 43.9628 23.8994H43.9688ZM34.5113 23.4335C35.6428 24.438 36.8106 25.757 37.8877 27.2395C36.7804 26.8644 35.6247 26.5437 34.4205 26.2895C33.0107 25.993 31.5827 25.8055 30.1728 25.7086C31.625 24.7465 33.0893 23.9841 34.5113 23.4396V23.4335ZM20.443 49.6581C18.6943 48.0606 18.0892 45.374 18.6882 42.0642C20.207 43.3349 22.0707 44.4785 24.1885 45.4164C25.4289 47.4253 26.8509 49.1922 28.3938 50.6504C25.0719 51.6125 22.2098 51.2676 20.443 49.6581ZM39.0192 52.8409C36.7017 53.8211 33.8033 53.1373 30.8626 50.9106C29.2833 49.7125 27.8009 48.1454 26.4818 46.3119C27.5951 46.6931 28.7629 47.0138 29.9731 47.268C31.3467 47.5584 32.7686 47.7399 34.1785 47.8307C33.7126 48.1454 33.2467 48.4479 32.7807 48.7202C32.4419 48.9199 32.3269 49.3555 32.5266 49.6944C32.6597 49.9183 32.8957 50.0453 33.1377 50.0453C33.2588 50.0453 33.3858 50.0151 33.4947 49.9485C34.5173 49.3495 35.5278 48.6536 36.5141 47.8912C38.8619 47.8549 41.1249 47.5403 43.0794 46.9594C42.4622 49.9122 41.0463 51.9816 39.0192 52.8409ZM43.3153 45.3922C41.8268 45.9065 40.1144 46.2454 38.2931 46.3966C39.0313 45.725 39.7453 45.0231 40.4291 44.2788C41.4759 43.1352 42.4138 41.9311 43.2488 40.7028C43.4485 42.3365 43.4727 43.9158 43.3153 45.3982V45.3922ZM41.1431 32.9939C41.9357 34.8636 42.5166 36.7576 42.9039 38.6152C41.9297 40.2368 40.7437 41.8282 39.3823 43.3228C38.3294 44.4725 37.1979 45.5374 36.0119 46.4874C34.1059 46.4874 32.1514 46.2877 30.2696 45.8884C28.4543 45.5011 26.748 44.9686 25.1748 44.3151C24.4729 43.1413 23.8315 41.8948 23.2687 40.5817C23.0327 40.019 22.8089 39.4442 22.6031 38.8814C22.47 38.5123 22.0646 38.3248 21.6955 38.4518C21.3264 38.5849 21.1388 38.9904 21.2719 39.3595C21.4837 39.9464 21.7197 40.5394 21.9678 41.1324C22.2824 41.8706 22.6273 42.5785 22.9843 43.2804C21.4656 42.4696 20.1344 41.5499 19.0392 40.5575C20.0012 37.0843 22.1009 33.4538 25.0356 30.2408C25.3018 29.9503 25.2776 29.5026 24.9932 29.2363C24.7028 28.9701 24.255 28.9882 23.9888 29.2847C22.948 30.4223 22.0162 31.6204 21.1872 32.8426C20.9996 31.1544 20.9996 29.557 21.1751 28.0987C24.6907 26.8886 29.604 26.7191 34.1422 27.6812C36.018 28.0806 37.7848 28.6433 39.4004 29.321C39.4004 29.321 39.4004 29.321 39.4065 29.321C41.7905 30.3315 43.8297 31.6022 45.3908 33.0181C45.0459 34.2404 44.5558 35.499 43.9325 36.7576C43.5513 35.3175 43.0673 33.8713 42.4622 32.4372C42.3109 32.0742 41.8873 31.9108 41.5303 32.0621C41.1673 32.2133 40.9979 32.6309 41.1552 32.9939H41.1431Z"></path>
<path fill="#453B67" d="M32.206 31.6323C29.3681 31.6323 27.0566 33.9438 27.0566 36.7816C27.0566 39.6195 29.3681 41.9309 32.206 41.9309C35.0438 41.9309 37.3553 39.6195 37.3553 36.7816C37.3553 33.9438 35.0438 31.6323 32.206 31.6323ZM32.206 40.509C30.1486 40.509 28.4786 38.8389 28.4786 36.7816C28.4786 34.7243 30.1486 33.0543 32.206 33.0543C34.2633 33.0543 35.9333 34.7243 35.9333 36.7816C35.9333 38.8389 34.2633 40.509 32.206 40.509Z"></path>
<path fill="#453B67" d="M32.2059 34.4033C30.8989 34.4033 29.834 35.4683 29.834 36.7753C29.834 37.1686 30.1486 37.4832 30.5419 37.4832C30.9352 37.4832 31.2499 37.1686 31.2499 36.7753C31.2499 36.2488 31.6795 35.8192 32.2059 35.8192C32.5992 35.8192 32.9139 35.5046 32.9139 35.1113C32.9139 34.718 32.5992 34.4033 32.2059 34.4033Z"></path>
</svg>
