<svg xmlns="http://www.w3.org/2000/svg" fill="none" viewBox="0 0 73 73" height="73" width="73">
<path fill="#453B67" d="M67.6136 35.6121C67.2384 35.6121 66.9298 35.3217 66.9056 34.9465C66.5183 28.4172 64.0978 22.3115 59.8982 17.2829C59.6501 16.9804 59.6864 16.5326 59.989 16.2845C60.2916 16.0364 60.7394 16.0727 60.9875 16.3752C65.3807 21.6338 67.9161 28.0299 68.3216 34.8618C68.3458 35.2551 68.0432 35.5879 67.6559 35.6121C67.6438 35.6121 67.6257 35.6121 67.6136 35.6121Z"></path>
<path fill="#453B67" d="M5.47949 35.745C5.47949 35.745 5.45528 35.745 5.43713 35.745C5.0438 35.7269 4.74729 35.388 4.76544 34.9947C5.14062 28.1083 7.68214 21.6698 12.1116 16.3689C12.3658 16.0664 12.8136 16.024 13.1101 16.2782C13.4127 16.5263 13.449 16.9801 13.2009 17.2766C8.97105 22.3415 6.5445 28.4896 6.18748 35.0673C6.16933 35.4485 5.85466 35.739 5.47949 35.739V35.745Z"></path>
<path fill="#453B67" d="M15.4639 13.4284C13.9147 11.2136 13.9813 8.38769 16.3171 6.75386C17.2732 6.08217 18.2898 5.83407 19.2882 5.93694C19.7118 5.9793 20.1112 6.14268 20.3775 6.52996C20.7284 7.03222 20.6498 7.65549 20.1233 8.02462C19.8147 8.24246 19.4698 8.28482 19.0886 8.23036C18.6408 8.15169 18.1083 8.20616 17.5818 8.57528C16.4502 9.37404 16.4744 10.8627 17.3458 12.1092C18.2172 13.3558 19.609 13.8883 20.7466 13.0956C21.2731 12.7264 21.503 12.2423 21.5817 11.7945C21.6603 11.4194 21.8177 11.1108 22.1263 10.8929C22.6527 10.5238 23.2639 10.663 23.6209 11.1652C23.8872 11.5464 23.9053 11.9821 23.8025 12.3936C23.5604 13.3679 22.9735 14.2392 22.0174 14.9049C19.6876 16.5387 17.0069 15.6371 15.4578 13.4223L15.4639 13.4284Z"></path>
<path fill="#453B67" d="M30.0352 8.7808C30.7553 8.55085 31.3484 8.85947 31.542 9.45854C31.7356 10.0576 31.4391 10.6567 30.719 10.8927L26.7736 12.1695C26.1382 12.3752 25.5452 12.0727 25.3395 11.4373L23.0763 4.43601C22.8403 3.69776 23.161 3.09263 23.7722 2.89294C24.3834 2.69325 25.0067 3.00187 25.2427 3.74012L27.173 9.71269L30.0352 8.78685V8.7808Z"></path>
<path fill="#453B67" d="M38.0106 8.07287C38.767 8.04866 39.2511 8.50856 39.2753 9.13789C39.2995 9.76721 38.8457 10.2634 38.0893 10.2876L33.7142 10.4389C33.0304 10.4631 32.5584 10.0274 32.5403 9.33758L32.2861 2.01558C32.2619 1.33179 32.6976 0.859789 33.3874 0.835584L37.6657 0.690355C38.4221 0.66615 38.9062 1.1321 38.9304 1.75537C38.9546 2.3847 38.5007 2.8809 37.7443 2.90511L34.5916 3.01403L34.64 4.44212L36.286 4.38766C37.0182 4.36346 37.4841 4.81125 37.5023 5.41032C37.5204 6.00939 37.0847 6.49349 36.3586 6.5177L34.7127 6.57216L34.7671 8.17574L38.0045 8.06681L38.0106 8.07287Z"></path>
<path fill="#453B67" d="M42.3009 9.30708L41.7441 10.0211C41.375 10.481 40.9998 10.7594 40.4068 10.596C39.7714 10.4266 39.4628 9.888 39.6262 9.28288C39.6807 9.08318 39.7956 8.81693 39.9832 8.58093L44.6427 2.47523C45.0602 1.92457 45.4959 1.72488 46.0042 1.86406C46.5125 2.00324 46.7848 2.39051 46.8695 3.08036L47.8196 10.6989C47.8619 10.9954 47.8256 11.2919 47.7712 11.4855C47.6078 12.0907 47.0692 12.3993 46.4399 12.2298C45.8469 12.0664 45.6593 11.6429 45.5746 11.0619L45.4415 10.1664L42.3009 9.31918V9.30708ZM45.036 5.45244C44.5701 6.22095 44.1223 6.88053 43.5716 7.62484L45.2055 8.06658C45.0905 7.14074 45.0481 6.34802 45.036 5.45244Z"></path>
<path fill="#453B67" d="M56.8061 10.0095L57.5867 8.86585C58.0224 8.22442 58.7001 8.10944 59.2326 8.46647C59.7651 8.82349 59.9043 9.50123 59.4686 10.1427L55.2751 16.3089C54.8636 16.914 54.2464 17.0411 53.7078 16.6719C53.3327 16.4178 53.1935 16.0789 53.1693 15.5162L52.9756 11.9641C52.9393 11.1109 52.9272 10.2697 52.9756 9.28338C52.4673 10.1911 51.8985 11.0746 51.3478 11.8854L50.5672 13.0291C50.1315 13.6705 49.4538 13.7855 48.9213 13.4285C48.3888 13.0715 48.2496 12.3937 48.6853 11.7523L52.8788 5.58608C53.2903 4.98095 53.9075 4.85388 54.4461 5.223C54.8213 5.47715 54.9604 5.81602 54.9846 6.37879L55.1783 9.93087C55.2146 10.7841 55.2267 11.6252 55.1783 12.6116C55.6866 11.7039 56.2554 10.8204 56.8061 10.0095Z"></path>
<path fill="#453B67" d="M1.93357 39.679L9.26767 38.8258C10.0362 38.735 10.5747 39.1768 10.6474 39.8121C10.72 40.4475 10.3024 40.9982 9.53392 41.089L2.19982 41.9422C1.43131 42.0329 0.892752 41.5973 0.820138 40.9558C0.747523 40.3204 1.16506 39.7698 1.93357 39.679Z"></path>
<path fill="#453B67" d="M10.3325 48.6283L11.6274 48.1321C12.3475 47.8538 12.9769 48.1503 13.2068 48.7494C13.4367 49.3484 13.1644 49.9838 12.4383 50.2622L5.46727 52.9247C4.78348 53.1849 4.20861 52.9368 3.97261 52.3256C3.80923 51.902 3.89394 51.545 4.19651 51.067L6.07239 48.0353C6.53228 47.3152 6.99823 46.6193 7.60941 45.8387C6.67146 46.2925 5.69721 46.6919 4.78348 47.0429L3.48851 47.5391C2.76236 47.8175 2.13909 47.521 1.90914 46.9219C1.67919 46.3228 1.9515 45.6874 2.67765 45.4091L9.64867 42.7465C10.3325 42.4863 10.9073 42.7344 11.1433 43.3456C11.3067 43.7692 11.222 44.1262 10.9194 44.6043L9.04355 47.6359C8.58365 48.356 8.11771 49.0519 7.50653 49.8325C8.44448 49.3787 9.41267 48.9793 10.3325 48.6283Z"></path>
<path fill="#453B67" d="M12.4202 58.3891C11.9482 57.8324 12.0087 57.1849 12.4626 56.7977C12.9164 56.4104 13.5639 56.4527 14.0419 57.0034L15.5366 58.7583C15.9844 59.2787 15.9299 59.9141 15.4095 60.3618L14.7863 60.8944C13.3521 62.1167 10.9921 62.2922 9.29778 60.3013C7.44005 58.1229 8.08753 55.3696 10.1389 53.6208C12.1903 51.872 15.0162 51.6723 16.8558 53.8326C17.6122 54.7221 17.9571 55.7084 17.951 56.7129C17.951 57.1365 17.824 57.548 17.467 57.8506C17.001 58.25 16.3717 58.2318 15.9541 57.7417C15.706 57.4512 15.6334 57.1184 15.6516 56.7372C15.6879 56.2833 15.585 55.7568 15.1675 55.2727C14.2658 54.2198 12.7833 54.3893 11.6336 55.3756C10.4778 56.362 10.0542 57.778 11.0103 58.8974C11.5791 59.5631 12.4021 59.8354 13.1766 59.2787L12.4202 58.3891Z"></path>
<path fill="#453B67" d="M17.546 65.8502C17.1466 66.5097 16.4688 66.661 15.9242 66.3282C15.3736 65.9954 15.2041 65.3237 15.6035 64.6641L19.4279 58.389C19.7849 57.802 20.4082 57.6507 20.9891 58.0078L23.0828 59.2846C24.9527 60.4222 25.4791 62.2497 24.4686 63.9017C23.8453 64.9243 22.9134 65.4145 21.8484 65.3963L21.921 67.5445C21.9331 67.8894 21.9331 68.2525 21.6971 68.6398C21.3885 69.1481 20.8197 69.3175 20.2448 68.9665C19.7123 68.6398 19.6457 68.1557 19.6457 67.5445L19.6276 64.767L18.5807 64.1316L17.5339 65.8502H17.546ZM20.8076 62.994C21.4793 63.4055 22.0965 63.3691 22.4717 62.758C22.8408 62.1468 22.5927 61.584 21.9149 61.1725L20.8076 60.4948L19.7002 62.3162L20.8076 62.994Z"></path>
<path fill="#453B67" d="M30.3984 69.9107C31.1367 70.1043 31.4634 70.6852 31.3061 71.2964C31.1488 71.9015 30.5739 72.2525 29.8417 72.0589L25.6058 70.9515C24.9402 70.776 24.6195 70.2253 24.795 69.5597L26.6467 62.4677C26.8221 61.802 27.3728 61.4813 28.0384 61.6568L32.1896 62.74C32.9278 62.9336 33.2546 63.5145 33.0973 64.1257C32.9399 64.7369 32.3651 65.0818 31.6329 64.8882L28.5831 64.0894L28.22 65.4751L29.8175 65.8927C30.5255 66.0742 30.8462 66.643 30.6949 67.2239C30.5437 67.8049 29.9869 68.1377 29.2789 67.9561L27.6814 67.5386L27.276 69.0938L30.4105 69.9167L30.3984 69.9107Z"></path>
<path fill="#453B67" d="M37.7571 72.5854L35.5363 72.6883C34.8646 72.7186 34.3745 72.2708 34.3442 71.6051L34.0054 64.2831C33.9751 63.6114 34.4229 63.1213 35.0885 63.091L37.3093 62.9882C40.226 62.855 42.0353 64.7128 42.1685 67.575C42.3016 70.4372 40.6678 72.4523 37.7511 72.5854H37.7571ZM37.6966 70.3646C39.1852 70.2981 39.9537 69.4569 39.869 67.6779C39.7843 65.8988 38.9492 65.1303 37.4606 65.2029L36.3351 65.2513L36.5711 70.4191L37.6966 70.3646Z"></path>
<path fill="#453B67" d="M45.3757 70.3768L43.2699 63.2968C43.052 62.5525 43.3909 61.9534 44.0021 61.7719C44.6132 61.5904 45.2305 61.9111 45.4544 62.6493L47.5602 69.7293C47.778 70.4736 47.4392 71.0726 46.828 71.2542C46.2168 71.4357 45.5996 71.115 45.3757 70.3768Z"></path>
<path fill="#453B67" d="M54.9846 64.985C55.6503 64.6158 56.2917 64.8095 56.5943 65.3601C56.8968 65.9108 56.7274 66.5583 56.0617 66.9274L52.2313 69.0514C51.6322 69.3842 51.015 69.2087 50.6822 68.6096L47.1241 62.2014C46.7912 61.6023 46.9667 60.9851 47.5658 60.6523L51.3176 58.5646C51.9832 58.1955 52.6246 58.3891 52.9272 58.9398C53.2298 59.4904 53.0543 60.1379 52.3947 60.507L49.6353 62.038L50.3312 63.2906L51.7775 62.4858C52.4189 62.1288 53.0361 62.3224 53.3266 62.8428C53.617 63.3632 53.4476 63.9925 52.8122 64.3496L51.372 65.1483L52.1526 66.5522L54.9907 64.9789L54.9846 64.985Z"></path>
<path fill="#453B67" d="M58.6519 55.2063L57.6413 54.2563C57.0786 53.7237 57.0665 53.0339 57.5082 52.568C57.9499 52.102 58.6398 52.0718 59.2025 52.5982L64.6305 57.7115C65.163 58.2138 65.1872 58.8431 64.7394 59.3211C64.4308 59.6479 64.0677 59.7326 63.511 59.6661L59.9711 59.2969C59.1239 59.2001 58.2949 59.0791 57.3267 58.8673C58.1436 59.5148 58.9242 60.2107 59.6382 60.8824L60.6488 61.8324C61.2116 62.3649 61.2237 63.0548 60.7819 63.5207C60.3402 63.9866 59.6503 64.0169 59.0876 63.4904L53.6596 58.3772C53.1271 57.8749 53.1029 57.2456 53.5507 56.7736C53.8593 56.4468 54.2224 56.3621 54.7791 56.4287L58.3191 56.7978C59.1662 56.8946 59.9953 57.0156 60.9635 57.2214C60.1526 56.5739 59.3659 55.878 58.6519 55.2063Z"></path>
<path fill="#453B67" d="M68.3822 50.6981C69.0781 51.0309 69.302 51.6844 69.0236 52.2654C68.7453 52.8463 68.0978 53.0883 67.3958 52.7495L61.7319 50.0446L61.1026 51.3637C60.7758 52.0475 60.1404 52.2654 59.5716 51.9931C59.0028 51.7207 58.7728 51.0914 59.0996 50.4076L61.3386 45.7179C61.6653 45.0341 62.3007 44.8163 62.8695 45.0886C63.4383 45.3609 63.6683 45.9902 63.3415 46.674L62.7122 47.9932L68.3822 50.6981Z"></path>
<path fill="#453B67" d="M69.5198 45.9661C68.957 45.8693 68.5758 45.4336 68.6968 44.7316C68.8602 43.7513 69.6953 43.9873 69.9555 42.4564C70.0886 41.6637 69.901 41.3066 69.4956 41.2401C68.7634 41.113 68.4729 42.0267 68.007 42.9405C67.4442 44.0721 66.4639 45.3005 64.5215 44.9676C62.7787 44.6711 61.8589 43.3762 62.2401 41.1433C62.5669 39.2129 63.5956 38.2326 64.5396 38.396C65.1024 38.4928 65.4352 38.9467 65.3263 39.5941C65.1871 40.399 64.5396 40.3203 64.346 41.4579C64.2128 42.2204 64.4367 42.5835 64.8664 42.6561C65.5744 42.7771 65.9556 41.9965 66.3187 41.2461C66.9238 40.0298 67.7528 38.5715 69.8102 38.9225C71.4804 39.2069 72.4486 40.4655 72.0431 42.8437C71.7043 44.8164 70.6635 46.1597 69.5137 45.9661H69.5198Z"></path>
<path fill="#453B67" d="M36.5528 60.5798C23.4216 60.5798 12.7412 49.8994 12.7412 36.7682C12.7412 23.637 23.4216 12.9565 36.5528 12.9565C49.684 12.9565 60.3645 23.637 60.3645 36.7682C60.3645 49.8994 49.684 60.5798 36.5528 60.5798ZM36.5528 14.3786C24.2083 14.3786 14.1633 24.4236 14.1633 36.7682C14.1633 49.1127 24.2083 59.1578 36.5528 59.1578C48.8974 59.1578 58.9424 49.1127 58.9424 36.7682C58.9424 24.4236 48.8974 14.3786 36.5528 14.3786Z"></path>
<path fill="#453B67" d="M34.8885 42.4863H34.8643C34.471 42.4742 34.1684 42.1414 34.1805 41.7541C34.3439 36.8344 35.9233 32.1024 38.7432 28.0662C38.9671 27.7455 39.4088 27.6668 39.7295 27.8907C40.0502 28.1146 40.1289 28.5563 39.905 28.877C37.2425 32.6893 35.7538 37.1551 35.5965 41.7964C35.5844 42.1777 35.2697 42.4802 34.8885 42.4802V42.4863Z"></path>
<path fill="#453B67" d="M35.4396 38.6076C35.0463 38.6076 34.6711 38.293 34.6711 37.8996C34.6711 37.5063 34.9313 37.1916 35.3246 37.1916C40.4137 37.1916 43.5967 31.7032 43.5967 27.9211C43.5967 25.2223 43.0339 22.7715 42.7253 21.6218C39.978 22.7413 33.3761 27.195 33.3761 31.8C33.3761 33.8635 33.8905 35.4428 33.8965 35.4549C34.0176 35.8241 33.8179 36.2295 33.4427 36.3505C33.0675 36.4655 32.6681 36.2718 32.5471 35.9027C32.5229 35.8301 31.9541 34.1055 31.9541 31.8C31.9541 25.6882 40.8313 20.5749 43.0218 20.0243C43.3788 19.9396 43.748 20.1392 43.869 20.4902C43.9174 20.6294 45.0127 23.9697 45.0127 27.9211C45.0127 32.278 41.2791 38.6076 35.4336 38.6076H35.4396Z"></path>
<path fill="#453B67" d="M31.0038 51.9084C30.8283 51.9084 30.6589 51.8418 30.5197 51.7148C27.3488 48.7557 24.9828 45.01 23.6757 40.877C23.5547 40.5018 23.7665 40.1024 24.1356 39.9875C24.5108 39.8725 24.9102 40.0782 25.0252 40.4473C26.2596 44.3504 28.4925 47.8843 31.4879 50.6739C31.7723 50.9402 31.7905 51.394 31.5242 51.6784C31.385 51.8297 31.1974 51.9023 31.0038 51.9023V51.9084Z"></path>
<path fill="#453B67" d="M28.7891 49.6933C28.5289 49.6933 28.2808 49.5481 28.1537 49.3C27.9782 48.949 28.1174 48.5315 28.4623 48.35C28.5531 48.3016 30.2958 47.291 30.2958 43.4364C30.2958 39.5817 24.1962 34.3414 21.0193 33.2279C20.862 34.1114 20.626 35.7755 20.626 37.8934C20.626 42.1838 21.582 47.4483 26.1326 48.2108C26.5199 48.2774 26.7801 48.6404 26.7195 49.0277C26.653 49.415 26.2839 49.6812 25.9026 49.6147C21.5881 48.8946 19.21 44.7374 19.21 37.8995C19.21 34.5229 19.7606 32.2779 19.7848 32.1871C19.8756 31.8301 20.2266 31.5941 20.5896 31.6607C24.0873 32.2416 31.7179 38.4986 31.7179 43.4485C31.7179 48.3984 29.2127 49.5723 29.1098 49.6268C29.0069 49.6752 28.898 49.6994 28.7951 49.6994L28.7891 49.6933Z"></path>
<path fill="#453B67" d="M34.332 54.6797C34.096 54.6797 33.86 54.5587 33.7268 54.3409C33.5211 54.008 33.624 53.5663 33.9628 53.3666C37.6904 51.0792 40.8673 47.9023 43.1547 44.1748C43.3604 43.842 43.7961 43.733 44.1289 43.9388C44.4617 44.1445 44.5706 44.5802 44.3649 44.913C41.9626 48.8282 38.6223 52.1685 34.7071 54.5708C34.5922 54.6434 34.4651 54.6737 34.338 54.6737L34.332 54.6797Z"></path>
<path fill="#453B67" d="M39.8325 52.7977C39.0035 52.7977 38.1381 52.7009 37.2305 52.5072C36.8492 52.4225 36.6011 52.0473 36.6858 51.6661C36.7645 51.2849 37.1397 51.0428 37.527 51.1215C40.359 51.7266 42.7613 51.2546 44.6674 49.7116C47.6325 47.3153 48.5886 42.9584 48.5886 41.2217C48.5886 39.4789 48.3587 38.3594 48.159 37.8088C47.5236 38.311 46.6159 38.777 45.5449 39.3337C42.0472 41.137 37.2607 43.5998 37.2607 49.5361C37.2607 49.9294 36.9461 50.2441 36.5527 50.2441C36.1594 50.2441 35.8447 49.9294 35.8447 49.5361C35.8447 42.7284 41.2908 39.9267 44.8974 38.069C46.1076 37.4457 47.2574 36.8527 47.6265 36.3625C47.7596 36.181 47.9714 36.0781 48.1953 36.0781C49.8352 36.0781 50.0167 39.6786 50.0167 41.2217C50.0167 43.5393 48.8125 48.1927 45.5691 50.8189C43.9352 52.1381 42.017 52.8038 39.8385 52.8038L39.8325 52.7977Z"></path>
<path fill="#453B67" d="M28.6076 31.4063C27.4156 31.4063 25.6607 30.7407 24.6259 28.1447C23.3975 25.0586 25.1887 22.6018 25.2674 22.4989C25.3884 22.3295 25.582 22.2326 25.7878 22.2145C25.9996 22.1963 26.1932 22.275 26.3384 22.4202C26.4958 22.5776 26.756 22.747 27.0525 22.9406C28.4503 23.8604 30.7921 25.3974 29.8239 30.7528C29.7755 31.019 29.5758 31.2369 29.3096 31.3095C29.116 31.364 28.8739 31.3942 28.6076 31.3942V31.4063ZM26.048 23.9875C25.7091 24.7379 25.3339 26.0752 25.9451 27.6182C26.7378 29.6031 27.8936 29.948 28.5108 29.9782C29.0917 25.9844 27.5366 24.9618 26.2719 24.1327C26.1993 24.0843 26.1206 24.0359 26.048 23.9815V23.9875Z"></path>
<path fill="#453B67" d="M47.6385 34.172C47.2875 34.172 46.9789 33.9057 46.9366 33.5487C46.392 29.216 49.6173 27.2614 51.5355 26.0996C51.7957 25.9423 52.0317 25.797 52.2314 25.6639C52.4008 25.5489 52.6126 25.5187 52.8063 25.5671C53.006 25.6216 53.1693 25.7547 53.2601 25.9362C53.2843 25.9846 53.8894 27.207 53.8894 28.4717C53.8894 32.4897 49.8472 33.9541 47.7051 34.1659C47.6809 34.1659 47.6567 34.1659 47.6325 34.1659L47.6385 34.172ZM52.2738 27.3098C50.5734 28.3386 48.292 29.7243 48.2981 32.6228C49.6657 32.3203 52.4734 31.346 52.4734 28.4656C52.4734 28.0602 52.3827 27.6427 52.2798 27.3038L52.2738 27.3098Z"></path>
</svg>
