<svg xmlns="http://www.w3.org/2000/svg" fill="none" viewBox="0 0 64 73" height="73" width="64">
<path fill="#453B67" d="M2.69756 46.5007C2.76974 46.5007 2.84192 46.4887 2.91409 46.4706C3.29301 46.3504 3.50954 45.9474 3.38925 45.5685C2.48705 42.6754 2.02994 39.65 2.02994 36.5886C2.02994 28.2222 5.37408 20.4453 11.4429 14.6833C11.7316 14.4066 11.7436 13.9495 11.4669 13.6608C11.1902 13.3721 10.7331 13.3601 10.4444 13.6367C4.08695 19.6694 0.586426 27.8192 0.586426 36.5886C0.586426 39.7944 1.0676 42.9641 2.0119 45.9955C2.10813 46.3022 2.39082 46.5007 2.70358 46.5007H2.69756Z"></path>
<path fill="#453B67" d="M53.8821 13.5168C53.5934 13.2461 53.1362 13.2582 52.8596 13.5469C52.5889 13.8356 52.6009 14.2927 52.8896 14.5694C59.0366 20.3374 62.4228 28.1564 62.4228 36.589C62.4228 39.8549 61.9056 43.0667 60.8831 46.1342C60.7568 46.5131 60.9613 46.9221 61.3402 47.0484C61.4184 47.0725 61.4906 47.0845 61.5688 47.0845C61.8695 47.0845 62.1522 46.892 62.2544 46.5913C63.325 43.3735 63.8664 40.0113 63.8664 36.589C63.8664 27.8858 60.2275 19.4773 53.8821 13.5168Z"></path>
<path fill="#453B67" d="M32.2233 13.0176C19.1775 13.0176 8.55566 23.6334 8.55566 36.6852C8.55566 49.737 19.1715 60.3528 32.2233 60.3528C45.275 60.3528 55.8909 49.737 55.8909 36.6852C55.8909 23.6334 45.275 13.0176 32.2233 13.0176ZM32.2233 58.9394C19.9534 58.9394 9.9691 48.9551 9.9691 36.6852C9.9691 24.4153 19.9534 14.431 32.2233 14.431C44.4931 14.431 54.4774 24.4153 54.4774 36.6852C54.4774 48.9551 44.4931 58.9394 32.2233 58.9394Z"></path>
<path fill="#453B67" d="M17.9086 13.1858C18.2454 13.9076 18.9311 14.1301 19.5145 13.8535C20.1099 13.5708 20.3626 12.9092 20.0257 12.1874L18.9912 9.99205L20.525 9.2703C21.2046 8.95152 21.4211 8.31998 21.1565 7.76664C20.8979 7.21329 20.2723 6.9727 19.5927 7.29148L18.059 8.01324L17.2831 6.35921L20.2122 4.98186C20.9159 4.65105 21.1385 4.00147 20.8678 3.41805C20.5971 2.83463 19.9476 2.58803 19.2438 2.92485L15.2561 4.79541C14.6186 5.09614 14.396 5.71564 14.6968 6.34718L17.9086 13.1858Z"></path>
<path fill="#453B67" d="M24.8014 10.1186C24.9156 10.9065 25.493 11.3215 26.1426 11.2253C26.7922 11.129 27.2253 10.5697 27.111 9.78175L26.8103 7.73678L28.0553 7.55634L29.8897 9.73965C30.2927 10.2268 30.6596 10.5637 31.2972 10.4734C31.9768 10.3712 32.3136 9.87197 32.2234 9.26449C32.1573 8.80738 31.9167 8.52469 31.6821 8.25403L30.2145 6.60602C31.0686 5.92035 31.4836 4.92192 31.3032 3.70697C31.0145 1.73416 29.4026 0.6395 27.1771 0.964291L24.6871 1.33118C23.9894 1.43343 23.5984 1.95671 23.7007 2.6544L24.7893 10.1246L24.8014 10.1186ZM27.4959 3.21377C28.2959 3.09949 28.8673 3.37616 28.9755 4.10393C29.0838 4.8317 28.6146 5.25874 27.8147 5.37904L26.4975 5.5715L26.1787 3.40623L27.4959 3.21377Z"></path>
<path fill="#453B67" d="M34.1661 10.4553L38.6109 11.1169C39.3808 11.2312 39.9281 10.8162 40.0243 10.1786C40.1206 9.54107 39.7176 8.98171 38.9477 8.86743L35.6577 8.37423L35.8983 6.74426L37.5704 6.99688C38.3102 7.10514 38.8395 6.70216 38.9297 6.09468C39.0199 5.4872 38.629 4.94589 37.8892 4.83161L36.2171 4.57899L36.4336 3.12345L39.6334 3.59861C40.4033 3.71289 40.9506 3.29788 41.0468 2.66032C41.1431 2.02277 40.7401 1.46341 39.9702 1.34913L35.6216 0.705566C34.9239 0.603317 34.3946 0.994268 34.2924 1.69197L33.1797 9.13208C33.0774 9.82977 33.4684 10.3591 34.1661 10.4613V10.4553Z"></path>
<path fill="#453B67" d="M41.4199 12.0435L45.4978 13.9321C46.2015 14.2569 46.8451 14.0103 47.1157 13.4269C47.3864 12.8435 47.1578 12.1939 46.4541 11.8631L43.4348 10.4617L44.1265 8.96404L45.6602 9.67376C46.3398 9.98652 46.9654 9.75195 47.224 9.19259C47.4826 8.63323 47.2601 8.00771 46.5804 7.68893L45.0467 6.9792L45.6662 5.64997L48.6013 7.00928C49.3111 7.33407 49.9486 7.08747 50.2253 6.50405C50.496 5.92063 50.2674 5.27105 49.5637 4.94024L45.57 3.08773C44.9324 2.79301 44.3129 3.01556 44.0182 3.65912L40.8545 10.4797C40.5598 11.1173 40.7823 11.7368 41.4199 12.0315V12.0435Z"></path>
<path fill="#453B67" d="M8.40578 54.9095C8.11106 54.1095 7.81033 53.2735 8.40578 52.8404C8.76666 52.5758 9.18768 52.672 9.65682 53.3096C10.3545 54.2599 9.83125 54.6809 10.3244 55.3546C10.7214 55.8959 11.2988 55.9741 11.768 55.6252C12.5619 55.0418 12.5679 53.5923 11.383 51.9803C10.0117 50.1158 8.40578 49.8752 6.95625 50.9458C5.3323 52.1367 5.54281 53.7246 5.97586 54.9456C6.31268 55.938 6.78183 56.7981 6.16833 57.2492C5.83151 57.4958 5.43455 57.3815 4.94736 56.7199C4.00908 55.4448 4.77294 54.9997 4.17147 54.1817C3.73842 53.5923 3.14297 53.5682 2.67383 53.911C1.71148 54.6208 1.9641 56.341 3.17304 57.989C4.62858 59.9738 6.24652 60.1542 7.64192 59.1257C9.36211 57.8627 8.87492 56.2207 8.41179 54.9095H8.40578Z"></path>
<path fill="#453B67" d="M18.9733 59.0655C18.444 58.6746 17.7463 58.7648 17.2771 59.4023L15.7374 61.4714L13.2112 59.5948L14.751 57.5258C15.2201 56.8942 15.1119 56.1965 14.5826 55.7996C14.0533 55.4026 13.3556 55.4988 12.8804 56.1364L8.37547 62.1931C7.90633 62.8247 8.01459 63.5224 8.54388 63.9193C9.07317 64.3103 9.77086 64.2201 10.24 63.5825L11.888 61.3691L14.4142 63.2457L12.7662 65.4591C12.297 66.0906 12.4053 66.7883 12.9346 67.1853C13.4639 67.5823 14.1616 67.486 14.6367 66.8485L19.1417 60.7917C19.6108 60.1602 19.5026 59.4625 18.9733 59.0655Z"></path>
<path fill="#453B67" d="M22.1188 60.4972C21.5173 60.2385 20.8557 60.4972 20.5489 61.2249L17.6018 68.1718C17.295 68.8996 17.5657 69.5492 18.1731 69.8078C18.7806 70.0665 19.4362 69.8078 19.743 69.0801L22.6901 62.1331C22.9969 61.4054 22.7262 60.7558 22.1188 60.4972Z"></path>
<path fill="#453B67" d="M27.8448 62.3255L25.3788 61.8744C24.6872 61.7481 24.1518 62.121 24.0255 62.8127L22.6722 70.2107C22.5279 70.9866 22.9429 71.564 23.5865 71.6843C24.23 71.8046 24.8195 71.4076 24.9638 70.6318L25.3307 68.6048L26.6539 68.8454C28.8553 69.2484 30.4973 68.2259 30.8582 66.2471C31.2191 64.2683 30.0462 62.7345 27.8448 62.3316V62.3255ZM28.5305 65.8621C28.3982 66.5839 27.8208 66.8365 27.0268 66.6922L25.7217 66.4516L26.1126 64.3104L27.4178 64.551C28.2117 64.6953 28.6568 65.1404 28.5305 65.8621Z"></path>
<path fill="#453B67" d="M35.3511 62.5062L32.8611 62.7708C32.1634 62.843 31.7544 63.3542 31.8266 64.0519L32.6145 71.5281C32.6987 72.3161 33.252 72.7491 33.9076 72.6829C34.5572 72.6168 35.0143 72.0695 34.9301 71.2876L34.7136 69.2426L36.0488 69.1042C38.2743 68.8697 39.5614 67.4262 39.3509 65.4233C39.1404 63.4204 37.5766 62.2836 35.3511 62.5182V62.5062ZM35.8083 66.9269L34.491 67.0653L34.2625 64.9L35.5797 64.7617C36.3796 64.6775 36.939 64.9782 37.0112 65.706C37.0894 66.4337 36.6082 66.8427 35.8083 66.9269Z"></path>
<path fill="#453B67" d="M42.0272 62.0306C41.7746 61.2788 41.1371 60.9781 40.5175 61.1886C39.898 61.3991 39.5732 62.0246 39.8259 62.7765L42.2377 69.9279C42.4903 70.6797 43.1279 70.9804 43.7474 70.7699C44.3669 70.5594 44.6917 69.9339 44.4391 69.1821L42.0272 62.0306Z"></path>
<path fill="#453B67" d="M50.3514 57.3094C49.9243 56.6418 49.2327 56.5034 48.6793 56.8583C48.126 57.2132 47.9696 57.8988 48.3966 58.5665L49.1605 59.7574C49.7018 60.5994 50.3093 61.4836 50.9528 62.3256C50.0446 61.8805 49.2507 61.5557 48.4327 61.249L45.0104 60.01C44.4691 59.8055 44.0962 59.7995 43.7052 60.0521C43.1398 60.413 43.0135 61.0445 43.4165 61.676L47.5365 68.0876C47.9636 68.7553 48.6552 68.8936 49.2086 68.5387C49.7619 68.1839 49.9183 67.4982 49.4913 66.8306L48.7274 65.6397C48.1861 64.7976 47.5786 63.9135 46.9351 63.0714C47.8433 63.5165 48.6372 63.8413 49.4552 64.1481L52.8775 65.3871C53.4188 65.5916 53.7918 65.5976 54.1827 65.345C54.7481 64.9841 54.8744 64.3525 54.4714 63.721L50.3514 57.3094Z"></path>
<path fill="#453B67" d="M60.3 52.9549L59.6384 52.4436C59.0851 52.0106 58.4355 52.0948 58.0084 52.6481L56.5589 54.5066C56.1018 55.0961 56.192 55.7517 56.6732 56.1306C57.1544 56.5035 57.816 56.4373 58.2731 55.8479L59.0069 54.9096C59.7286 55.5652 59.6204 56.4494 59.073 57.1531C58.1468 58.344 56.6431 58.2117 55.4161 57.2553C54.1952 56.305 53.714 54.8495 54.5861 53.7368C54.9891 53.2195 55.4943 53.009 55.9574 52.9489C56.3424 52.8887 56.6672 52.7444 56.9017 52.4376C57.3047 51.9203 57.1965 51.2828 56.7033 50.8979C56.3243 50.6031 55.8853 50.561 55.4582 50.6452C54.4538 50.8437 53.5335 51.3971 52.7998 52.3354C51.0134 54.6269 51.7953 57.4117 53.9726 59.1078C56.1499 60.804 59.0369 60.8822 60.8353 58.5725C62.4773 56.4674 61.8157 54.1337 60.3 52.9549Z"></path>
<path fill="#453B67" d="M31.8688 19.2006L15.0459 28.3789C14.9857 28.415 14.9256 28.4571 14.8775 28.5052C14.8715 28.5052 14.8655 28.5172 14.8594 28.5233C14.8053 28.5774 14.7632 28.6436 14.7271 28.7157C14.7151 28.7338 14.7091 28.7578 14.7031 28.7759C14.673 28.8601 14.6489 28.9443 14.6489 29.0345V44.3297C14.6489 44.6064 14.7993 44.859 15.0399 44.9914L31.8628 54.1697C31.8628 54.1697 31.8929 54.1817 31.9049 54.1877C31.923 54.1937 31.941 54.1998 31.9591 54.2118C32.0433 54.2419 32.1275 54.2659 32.2177 54.2659C32.3079 54.2659 32.3921 54.2419 32.4763 54.2118C32.4944 54.2058 32.5124 54.1998 32.5305 54.1877C32.5425 54.1817 32.5605 54.1757 32.5726 54.1697L49.3955 44.9914C49.6361 44.859 49.7865 44.6064 49.7865 44.3297V29.0345C49.7865 28.9443 49.7624 28.8601 49.7323 28.7759C49.7263 28.7518 49.7143 28.7338 49.7083 28.7157C49.6722 28.6436 49.6301 28.5774 49.5759 28.5233C49.5759 28.5172 49.5639 28.5112 49.5579 28.5052C49.5098 28.4571 49.4557 28.415 49.3895 28.3789L32.5665 19.2006C32.344 19.0803 32.0733 19.0803 31.8448 19.2006H31.8688ZM23.8152 25.3054L39.0684 33.6237L32.2237 37.3588L16.9706 29.0405L23.8152 25.3054ZM16.1526 30.3036L31.4719 38.6639V52.245L16.1526 43.8847V30.3036ZM32.9755 52.245V38.6639L48.2948 30.3036V43.8847L32.9755 52.245ZM40.6382 32.7696L25.3851 24.4514L32.2297 20.7163L47.4828 29.0345L40.6382 32.7696Z"></path>
<path fill="#453B67" d="M43.1338 38.9346L40.2648 40.3361L42.1715 36.192C42.3459 35.813 42.1775 35.368 41.8046 35.1935C41.4257 35.0191 40.9806 35.1875 40.8062 35.5604L38.0214 41.6172C37.8891 41.9059 37.9492 42.2487 38.1778 42.4713C38.4063 42.6938 38.7492 42.7479 39.0318 42.6096L42.0873 41.118L40.3851 45.5929C40.2348 45.9838 40.4333 46.4169 40.8182 46.5612C40.9084 46.5973 40.9986 46.6093 41.0828 46.6093C41.3836 46.6093 41.6723 46.4229 41.7866 46.1221L44.1683 39.8669C44.2766 39.5782 44.1984 39.2534 43.9699 39.0429C43.7413 38.8324 43.4105 38.7903 43.1338 38.9226V38.9346Z"></path>
<path fill="#453B67" d="M28.5064 40.011L19.7009 35.3256C19.4664 35.1993 19.1897 35.2113 18.9611 35.3436C18.7326 35.482 18.5942 35.7226 18.5942 35.9872V40.6726C18.5942 40.9493 18.7446 41.2079 18.9912 41.3342L27.7966 46.0196C27.9049 46.0798 28.0312 46.1098 28.1515 46.1098C28.2838 46.1098 28.4222 46.0738 28.5364 46.0016C28.765 45.8632 28.9033 45.6227 28.9033 45.358V40.6726C28.9033 40.3959 28.753 40.1373 28.5064 40.011ZM27.4057 44.107L20.1039 40.2215V37.2383L27.4057 41.1237V44.107Z"></path>
</svg>
