<svg xmlns="http://www.w3.org/2000/svg" fill="none" viewBox="0 0 69 69" height="69" width="69">
<g clip-path="url(#clip0_2250_6499)">
<path fill="black" d="M34.667 68.6897C15.9202 68.6897 0.666992 53.4365 0.666992 34.6897C0.666992 15.9429 15.9202 0.689697 34.667 0.689697C53.4138 0.689697 68.667 15.9429 68.667 34.6897C68.667 53.4365 53.4138 68.6897 34.667 68.6897ZM34.667 2.40895C16.8693 2.40895 2.38625 16.892 2.38625 34.6897C2.38625 52.4874 16.8693 66.9704 34.667 66.9704C52.4647 66.9704 66.9477 52.4874 66.9477 34.6897C66.9477 16.892 52.4647 2.40895 34.667 2.40895Z"></path>
<path fill="black" d="M11.23 58.9794C11.0099 58.9794 10.7898 58.8969 10.6248 58.725C10.2878 58.388 10.2878 57.8447 10.6248 57.5077L21.3942 46.7383C21.7312 46.4014 22.2745 46.4014 22.6115 46.7383C22.9484 47.0753 22.9484 47.6186 22.6115 47.9556L11.842 58.725C11.677 58.89 11.4569 58.9794 11.2369 58.9794H11.23Z"></path>
<path fill="black" d="M47.2588 22.9506C47.0387 22.9506 46.8187 22.8681 46.6536 22.6962C46.3166 22.3592 46.3166 21.8159 46.6536 21.4789L57.423 10.7095C57.76 10.3725 58.3033 10.3725 58.6403 10.7095C58.9772 11.0465 58.9772 11.5898 58.6403 11.9268L47.8708 22.6962C47.7058 22.8612 47.4857 22.9506 47.2657 22.9506H47.2588Z"></path>
<path fill="#FFF5D0" d="M35.5644 18.0167L17.9465 35.6346C17.2509 36.3302 17.2509 37.4579 17.9465 38.1535L40.2424 60.4494C40.9379 61.145 42.0657 61.145 42.7613 60.4494L60.3792 42.8315C61.0748 42.1359 61.0748 41.0082 60.3792 40.3126L38.0833 18.0167C37.3877 17.3211 36.2599 17.3211 35.5644 18.0167Z"></path>
<path fill="black" d="M41.4961 61.8333C40.7878 61.8333 40.1276 61.5582 39.6256 61.063L17.3371 38.7677C16.8351 38.2726 16.5669 37.6055 16.5669 36.9041C16.5669 36.2026 16.842 35.5355 17.3371 35.0404L34.9561 17.4215C35.9532 16.4243 37.6931 16.4243 38.6903 17.4215L60.9856 39.7168C61.4876 40.2188 61.7558 40.879 61.7558 41.5873C61.7558 42.2957 61.4807 42.9558 60.9856 43.451L43.3667 61.0699C42.8646 61.5719 42.2044 61.8401 41.503 61.8401L41.4961 61.8333ZM36.8197 18.3567C36.5722 18.3567 36.3452 18.453 36.1664 18.6249L18.5475 36.2439C18.3756 36.4158 18.2793 36.6496 18.2793 36.8972C18.2793 37.1448 18.3756 37.3717 18.5475 37.5505L40.8428 59.8458C41.1935 60.1897 41.7987 60.1965 42.1494 59.8458L59.7684 42.2269C59.9403 42.055 60.0366 41.8211 60.0366 41.5736C60.0366 41.326 59.9403 41.0922 59.7684 40.9202L37.473 18.6318C37.3011 18.4599 37.0673 18.3636 36.8197 18.3636V18.3567Z"></path>
<path fill="black" d="M55.1539 48.9114C54.9338 48.9114 54.7137 48.8289 54.5487 48.6569L29.7364 23.8446C29.4751 23.5833 29.4132 23.1844 29.5782 22.8543C29.7433 22.5242 30.1009 22.3317 30.4653 22.3867L36.5721 23.2463L35.6713 18.178C35.5887 17.7103 35.8982 17.2633 36.3658 17.1808C36.8335 17.0983 37.2805 17.4077 37.363 17.8754L38.4702 24.1128C38.5183 24.381 38.4358 24.663 38.2433 24.8624C38.0507 25.0619 37.7756 25.1581 37.5074 25.1169L32.7691 24.4498L55.7659 47.4466C56.1029 47.7835 56.1029 48.3268 55.7659 48.6638C55.6009 48.8289 55.3808 48.9183 55.1607 48.9183L55.1539 48.9114Z"></path>
<path fill="black" d="M28.7733 25.5226C28.5532 25.5226 28.3332 25.44 28.1681 25.2681L19.7988 16.8988L13.912 22.7855C13.5751 23.1225 13.0318 23.1225 12.6948 22.7855L11.0306 21.1213C10.6936 20.7843 10.6936 20.241 11.0306 19.904L17.4537 13.4809C17.4537 13.4809 17.495 13.4328 17.5156 13.4121C18.1208 12.8069 18.9323 12.47 19.7919 12.47C20.6515 12.47 21.4561 12.8069 22.0682 13.4121L31.0427 22.3866C31.3797 22.7236 31.3797 23.2669 31.0427 23.6039L29.3785 25.2681C29.2134 25.4332 28.9933 25.5226 28.7733 25.5226ZM19.7988 14.9732C20.1082 14.9732 20.4108 15.0901 20.6446 15.3239L28.7733 23.4526L29.2203 23.0056L20.851 14.6362C20.3008 14.0861 19.3586 14.0654 18.7878 14.5812C18.7741 14.595 18.7603 14.6156 18.7397 14.6294L12.8461 20.523L13.2931 20.97L18.9391 15.3239C19.173 15.0901 19.4824 14.9732 19.785 14.9732H19.7988Z"></path>
<path fill="black" d="M38.8619 59.9421C38.635 59.9421 38.4149 59.8526 38.2567 59.6876L18.7054 40.1362C18.3684 39.7992 18.3684 39.256 18.7054 38.919C21.4768 36.1475 25.1698 34.6208 29.0897 34.6208C33.0096 34.6208 36.7025 36.1475 39.474 38.919C45.2025 44.6475 45.2025 53.959 39.474 59.6876C39.3158 59.8458 39.0957 59.9421 38.8688 59.9421H38.8619ZM20.5484 39.5517L38.8413 57.8446C43.2976 52.7556 43.105 44.9845 38.2567 40.1362C35.8085 37.688 32.5557 36.3401 29.0897 36.3401C25.9125 36.3401 22.9141 37.4748 20.5484 39.5517Z"></path>
<path fill="black" d="M21.6418 42.722C21.5593 42.722 21.4699 42.7082 21.3874 42.6876C20.9335 42.55 20.6791 42.0687 20.8166 41.6148C21.4287 39.6273 23.423 37.9768 26.0225 37.3166C28.5395 36.6771 30.9808 37.1378 32.4044 38.527C32.7414 38.8571 32.7482 39.4004 32.4181 39.7442C32.088 40.0812 31.5448 40.0881 31.2009 39.758C30.2106 38.7883 28.3882 38.4926 26.4489 38.9877C24.4546 39.4966 22.8935 40.7276 22.4602 42.1237C22.3433 42.495 22.0063 42.7288 21.6418 42.7288V42.722Z"></path>
<path fill="black" d="M39.254 47.4395C39.1852 47.4395 39.1096 47.4327 39.0408 47.412C38.58 47.2951 38.305 46.8275 38.4219 46.3667C38.7657 45.0257 38.1193 43.3064 36.7232 41.876C35.286 40.3975 33.4292 39.6547 31.9987 39.978C31.538 40.088 31.0772 39.7923 30.9672 39.3315C30.864 38.8708 31.1529 38.41 31.6136 38.3C33.6492 37.8392 36.0768 38.747 37.9542 40.6725C39.7629 42.5293 40.5813 44.8744 40.0861 46.7931C39.983 47.1782 39.6391 47.4395 39.254 47.4395Z"></path>
<path fill="black" d="M36.5307 57.6107C36.1524 57.6107 35.8086 57.3632 35.7054 56.9849C35.5748 56.5242 35.843 56.0565 36.3037 55.9259C37.6379 55.5545 38.807 54.1241 39.3503 52.1985C39.9073 50.2179 39.6185 48.2442 38.6213 47.1714C38.2981 46.8276 38.3187 46.2774 38.6626 45.9542C39.0064 45.631 39.5566 45.6516 39.8798 45.9954C41.3033 47.5221 41.7297 50.0735 41.0007 52.6593C40.2993 55.1556 38.6763 57.0468 36.7645 57.5764C36.6889 57.597 36.6063 57.6107 36.5307 57.6107Z"></path>
<path fill="black" d="M32.1914 49.3309C31.8132 49.3309 31.4624 49.0764 31.3593 48.6913C31.2355 48.2306 31.5106 47.7629 31.9645 47.6391L39.0272 45.748C39.4879 45.6242 39.9556 45.8993 40.0793 46.3531C40.2031 46.807 39.9281 47.2815 39.4742 47.4053L32.4115 49.2965C32.3358 49.3171 32.2602 49.324 32.1914 49.324V49.3309Z"></path>
<path fill="black" d="M29.9698 46.8688C29.8942 46.8688 29.8185 46.8619 29.7497 46.8413C29.289 46.7175 29.0208 46.2499 29.1377 45.7891L30.9738 38.9121C31.0976 38.4513 31.5721 38.1831 32.026 38.3C32.4868 38.4238 32.755 38.8915 32.6381 39.3522L30.8019 46.2292C30.6988 46.6144 30.3549 46.8688 29.9698 46.8688Z"></path>
</g>
<defs>
<clipPath id="clip0_2250_6499">
<rect transform="translate(0.666992 0.689697)" fill="white" height="68" width="68"></rect>
</clipPath>
</defs>
</svg>
