<svg xmlns="http://www.w3.org/2000/svg" fill="none" viewBox="0 0 69 69" height="69" width="69">
<g clip-path="url(#clip0_2250_6563)">
<path fill="black" d="M34.6665 68.6897C15.9197 68.6897 0.666504 53.4365 0.666504 34.6897C0.666504 15.9429 15.9197 0.689697 34.6665 0.689697C53.4133 0.689697 68.6665 15.9429 68.6665 34.6897C68.6665 53.4365 53.4133 68.6897 34.6665 68.6897ZM34.6665 2.40895C16.8688 2.40895 2.38576 16.892 2.38576 34.6897C2.38576 52.4874 16.8688 66.9704 34.6665 66.9704C52.4642 66.9704 66.9473 52.4874 66.9473 34.6897C66.9473 16.892 52.4642 2.40895 34.6665 2.40895Z"></path>
<path fill="black" d="M11.2295 58.9795C11.0094 58.9795 10.7894 58.8969 10.6243 58.725C10.2873 58.388 10.2873 57.8447 10.6243 57.5078L17.5151 50.617C17.8521 50.28 18.3953 50.28 18.7323 50.617C19.0693 50.954 19.0693 51.4973 18.7323 51.8342L11.8415 58.725C11.6765 58.89 11.4564 58.9795 11.2364 58.9795H11.2295Z"></path>
<path fill="black" d="M46.873 23.3357C46.653 23.3357 46.4329 23.2532 46.2679 23.0813C45.9309 22.7443 45.9309 22.201 46.2679 21.864L57.4224 10.7095C57.7594 10.3725 58.3027 10.3725 58.6396 10.7095C58.9766 11.0465 58.9766 11.5898 58.6396 11.9268L47.4851 23.0813C47.3201 23.2463 47.1 23.3357 46.8799 23.3357H46.873Z"></path>
<path fill="#FFF5D0" d="M50.0713 42.2063C50.0713 50.4174 43.1736 57.0744 34.6667 57.0744C26.1599 57.0744 19.2622 50.4174 19.2622 42.2063C19.2622 28.9749 34.6667 12.2981 34.6667 12.2981C34.6667 12.2981 50.0713 28.9818 50.0713 42.2063Z"></path>
<path fill="black" d="M34.6665 57.934C25.6989 57.934 18.4023 50.8782 18.4023 42.2063C18.4023 28.7961 33.3943 12.4081 34.0338 11.7136C34.1989 11.5348 34.4258 11.4385 34.6665 11.4385C34.9072 11.4385 35.1341 11.5416 35.2992 11.7136C35.9388 12.4081 50.9307 28.7961 50.9307 42.2063C50.9307 50.8782 43.6341 57.934 34.6665 57.934ZM34.6665 13.591C31.7919 16.8851 20.1216 30.9761 20.1216 42.2063C20.1216 49.9292 26.6479 56.2148 34.6665 56.2148C42.6851 56.2148 49.2114 49.9292 49.2114 42.2063C49.2114 30.983 37.5411 16.892 34.6665 13.591Z"></path>
<path fill="#FFCA12" d="M30.5539 51.7104C27.5417 50.5963 25.2379 48.1275 24.4814 45.1016L30.5539 51.7104Z"></path>
<path fill="black" d="M30.554 52.57C30.4577 52.57 30.3546 52.5562 30.2583 52.5149C26.9436 51.2908 24.4747 48.595 23.6495 45.3078C23.5326 44.8471 23.8145 44.3794 24.2753 44.2625C24.7361 44.1456 25.2037 44.4276 25.3206 44.8883C26.0014 47.6254 28.0714 49.8673 30.8566 50.8989C31.3036 51.0639 31.5306 51.559 31.3655 52.0061C31.2348 52.3499 30.9116 52.57 30.5609 52.57H30.554Z"></path>
</g>
<defs>
<clipPath id="clip0_2250_6563">
<rect transform="translate(0.666504 0.689697)" fill="white" height="68" width="68"></rect>
</clipPath>
</defs>
</svg>
