<svg xmlns="http://www.w3.org/2000/svg" fill="none" viewBox="0 0 40 41" height="41" width="40">
<g clip-path="url(#clip0_2673_2936)">
<path fill="#6E58D4" d="M20.0036 40.3174C31.0512 40.3174 40.0071 31.3615 40.0071 20.3139C40.0071 9.2662 31.0512 0.310303 20.0036 0.310303C8.9559 0.310303 0 9.2662 0 20.3139C0 31.3615 8.9559 40.3174 20.0036 40.3174Z"></path>
<path stroke-linejoin="round" stroke-linecap="round" stroke-width="1.75" stroke="#6E58D4" fill="white" d="M30.3078 31.7993C26.8209 33.5641 22.7291 32.9237 20.8219 32.4683C20.2242 32.3259 19.9039 31.6926 20.1388 31.1233C20.8931 29.3158 22.7931 25.6367 26.28 23.8648C29.767 22.0929 33.8588 22.7405 35.7659 23.1959C36.3636 23.3382 36.6839 23.9716 36.449 24.5408C35.6947 26.3484 33.7947 30.0274 30.3078 31.7993Z"></path>
<path stroke-linejoin="round" stroke-linecap="round" stroke-width="1.75" stroke="#6E58D4" fill="white" d="M31.0977 25.039C28.3366 29.0738 23.4621 30.8387 21.0995 31.4791C20.3594 31.6784 19.6264 31.1802 19.5482 30.4188C19.292 27.9851 19.1568 22.7974 21.9179 18.7625C24.6789 14.7276 29.5535 12.9628 31.9161 12.3224C32.6562 12.1231 33.3891 12.6213 33.4674 13.3827C33.7236 15.8164 33.8588 21.0041 31.0977 25.039Z"></path>
<path stroke-linejoin="round" stroke-linecap="round" stroke-width="1.75" stroke="#6E58D4" fill="white" d="M9.69226 31.7994C13.1792 33.5642 17.271 32.9237 19.1781 32.4683C19.7759 32.326 20.0961 31.6926 19.8613 31.1233C19.107 29.3158 17.2069 25.6368 13.72 23.8648C10.2331 22.1 6.14129 22.7405 4.23416 23.1959C3.6364 23.3382 3.31617 23.9716 3.55101 24.5409C4.30532 26.3484 6.20534 30.0274 9.69226 31.7994Z"></path>
<path stroke-linejoin="round" stroke-linecap="round" stroke-width="1.75" stroke="#6E58D4" fill="white" d="M8.90235 25.039C11.6634 29.0738 16.538 30.8387 18.9006 31.4791C19.6407 31.6784 20.3736 31.1802 20.4519 30.4188C20.7081 27.9851 20.8433 22.7974 18.0822 18.7625C15.3211 14.7276 10.4466 12.9628 8.08399 12.3224C7.34391 12.1231 6.61094 12.6213 6.53267 13.3827C6.27648 15.8164 6.14128 21.0041 8.90235 25.039Z"></path>
<path stroke-linejoin="round" stroke-linecap="round" stroke-width="1.75" stroke="#6E58D4" fill="white" d="M26.7925 18.179C26.7925 24.0925 23.1205 29.1806 21.2063 31.4293C20.6085 32.1338 19.5268 32.1338 18.9291 31.4293C17.0077 29.1734 13.3429 24.0925 13.3429 18.179C13.3429 12.2654 17.0148 7.17735 18.9291 4.92864C19.5268 4.22414 20.6085 4.22414 21.2063 4.92864C23.1276 7.18447 26.7925 12.2654 26.7925 18.179Z"></path>
<path stroke-linejoin="round" stroke-linecap="round" stroke-width="1.5" stroke="#6E58D4" d="M22.4942 12.2797C22.9923 13.2119 23.6897 14.8059 23.9032 16.9265C24.3301 21.1535 22.5369 24.3202 22.0316 25.1386"></path>
</g>
<defs>
<clipPath id="clip0_2673_2936">
<rect transform="translate(0 0.310303)" fill="white" height="40" width="40"></rect>
</clipPath>
</defs>
</svg>
