<svg xmlns="http://www.w3.org/2000/svg" fill="none" viewBox="0 0 40 41" height="41" width="40">
<g clip-path="url(#clip0_2673_2896)">
<path fill="#FFCA12" d="M20.0036 40.6277C31.0512 40.6277 40.0071 31.6718 40.0071 20.6242C40.0071 9.5765 31.0512 0.620605 20.0036 0.620605C8.9559 0.620605 0 9.5765 0 20.6242C0 31.6718 8.9559 40.6277 20.0036 40.6277Z"></path>
<path fill="#111111" d="M19.9963 8.19499C20.281 8.19499 20.5514 8.30174 20.7649 8.50811C22.2735 9.93134 24.3799 10.6501 27.0342 10.6501C28.4076 10.6501 29.5747 10.4437 30.1511 10.3227C30.2223 10.3085 30.3077 10.3014 30.3859 10.3014C30.9837 10.3014 31.4605 10.771 31.4747 11.3759C31.5957 14.5426 31.6099 30.5327 20.3664 34.2615C20.224 34.3042 20.1102 34.3256 19.9892 34.3256C19.8682 34.3256 19.7615 34.3113 19.669 34.2829C8.41831 30.554 8.39696 14.5355 8.51082 11.3546C8.52505 10.7639 9.00895 10.3085 9.5996 10.3085C9.67787 10.3085 9.76327 10.3156 9.85578 10.337C10.4251 10.4579 11.5779 10.6572 12.9442 10.6572C15.5985 10.6572 17.712 9.93134 19.2349 8.50099C19.4341 8.30885 19.7046 8.20211 19.9892 8.20211M19.9963 7.19873C19.4555 7.19873 18.936 7.4051 18.5517 7.77514C17.2281 9.02759 15.3423 9.65381 12.9513 9.65381C11.6704 9.65381 10.5816 9.46167 10.0693 9.35493C9.91982 9.31935 9.76327 9.30512 9.60671 9.30512C8.46812 9.30512 7.55014 10.1946 7.52167 11.3261C7.40782 14.6209 7.43628 31.2727 19.363 35.2222C19.5694 35.2863 19.7828 35.3218 19.9963 35.3218C20.2098 35.3218 20.4233 35.2863 20.6652 35.2151C32.6062 31.2514 32.5991 14.6209 32.4781 11.3403C32.4496 10.2018 31.5316 9.31223 30.393 9.31223C30.2365 9.31223 30.0871 9.32647 29.9447 9.36205C29.411 9.47591 28.3222 9.66804 27.0413 9.66804C24.6503 9.66804 22.7645 9.0347 21.4551 7.79649C21.0637 7.41933 20.5443 7.21296 20.0034 7.21296L19.9963 7.19873Z"></path>
<path fill="#111111" d="M30.0729 12.0663C30.0729 11.8101 29.8309 11.625 29.5747 11.682C28.0804 12.0022 23.3481 12.7209 20.2881 9.83177C20.1245 9.67522 19.8754 9.67522 19.7117 9.83177C16.6447 12.7209 11.9195 12.0022 10.4251 11.682C10.1761 11.625 9.93411 11.8101 9.92699 12.0663C9.82737 14.9412 9.79179 29.4368 19.8612 32.7743C19.9537 32.8028 20.0462 32.8028 20.1387 32.7743C30.201 29.4368 30.1796 14.9412 30.0729 12.0663ZM24.444 21.1749C24.444 21.4311 24.2376 21.6446 23.9814 21.6446H21.7185V23.9004C21.7185 24.1637 21.505 24.3701 21.2488 24.3701H18.7439C18.4877 24.3701 18.2814 24.1637 18.2814 23.9004V21.6446H16.0184C15.7623 21.6446 15.5488 21.4311 15.5488 21.1749V18.6701C15.5488 18.4139 15.7623 18.2075 16.0184 18.2075H18.2814V15.9446C18.2814 15.6884 18.4877 15.4749 18.7439 15.4749H21.2488C21.505 15.4749 21.7185 15.6884 21.7185 15.9446V18.2075H23.9814C24.2376 18.2075 24.444 18.4139 24.444 18.6701V21.1749ZM25.7961 26.142C25.668 26.3342 25.4616 26.4338 25.2481 26.4338C25.1343 26.4338 25.0133 26.4053 24.9065 26.3342C24.6077 26.1492 24.5223 25.7506 24.7073 25.4518C25.1912 24.6903 25.5755 23.8577 25.8957 22.9967C26.4579 21.4454 26.7852 19.8158 26.956 18.3854C27.1695 16.7345 27.1837 15.3539 27.1766 14.6779C27.1766 14.3221 27.4541 14.0303 27.8099 14.0232C28.1942 14.0374 28.4504 14.3078 28.4575 14.6565C28.4789 16.3288 28.3508 22.0929 25.7961 26.142Z"></path>
</g>
<defs>
<clipPath id="clip0_2673_2896">
<rect transform="translate(0 0.310303)" fill="white" height="40" width="40"></rect>
</clipPath>
</defs>
</svg>
