<svg xmlns="http://www.w3.org/2000/svg" fill="none" viewBox="0 0 40 41" height="41" width="40">
<g clip-path="url(#clip0_2673_2911)">
<path fill="#6E58D4" d="M20.0036 40.3174C31.0512 40.3174 40.0071 31.3615 40.0071 20.3139C40.0071 9.2662 31.0512 0.310303 20.0036 0.310303C8.9559 0.310303 0 9.2662 0 20.3139C0 31.3615 8.9559 40.3174 20.0036 40.3174Z"></path>
<path fill="white" d="M34.3711 27.6791C31.4534 33.2867 25.298 36.9301 18.3882 36.1616C11.0514 35.3432 5.15208 29.4083 4.3693 22.0645C3.58652 14.7206 7.37232 8.92089 13.0653 6.05307C13.3997 5.8894 13.7698 6.20963 13.6417 6.55832C12.8802 8.62912 12.5387 10.8992 12.7095 13.2618C13.2716 20.933 19.4271 27.2237 27.0841 27.9424C29.4823 28.1701 31.795 27.857 33.9014 27.1169C34.2359 26.996 34.5419 27.3589 34.3782 27.6791H34.3711Z"></path>
<path fill="white" d="M24.3089 9.81043L21.6972 10.0524C21.5834 10.0595 21.4695 10.0168 21.3983 9.92429L19.7474 7.88906C19.5624 7.66846 19.2066 7.74674 19.1425 8.03138L18.5661 10.5861C18.5376 10.6999 18.4594 10.7925 18.3526 10.8352L15.9047 11.7745C15.6342 11.8812 15.6058 12.2442 15.8548 12.3936L18.1107 13.7386C18.2103 13.7955 18.2743 13.9022 18.2815 14.0161L18.4167 16.6348C18.4309 16.9195 18.7725 17.0689 18.986 16.8768L20.9571 15.1476C21.0425 15.0693 21.1635 15.0408 21.2774 15.0764L23.8107 15.7524C24.0883 15.8236 24.3302 15.5461 24.2163 15.2828L23.1845 12.8704C23.1418 12.7636 23.1489 12.6427 23.213 12.543L24.6433 10.3441C24.7999 10.1022 24.6077 9.78908 24.3231 9.81043H24.3089Z"></path>
<path fill="white" d="M31.6484 22.0184L29.9832 21.015C29.912 20.9723 29.8622 20.894 29.8622 20.8086L29.7697 18.8659C29.7626 18.6524 29.5064 18.5457 29.3499 18.6809L27.8768 19.9547C27.8128 20.0116 27.7274 20.033 27.642 20.0045L25.7633 19.4921C25.5569 19.4352 25.379 19.6416 25.4573 19.8408L26.2116 21.6341C26.2472 21.7124 26.2401 21.8049 26.1903 21.876L25.1229 23.4985C25.0019 23.6764 25.1442 23.9113 25.3577 23.897L27.2933 23.7334C27.3787 23.7262 27.4641 23.7618 27.5139 23.8259L28.7308 25.3416C28.866 25.5053 29.1293 25.4484 29.1791 25.242L29.6203 23.3491C29.6416 23.2637 29.6986 23.1996 29.7768 23.1712L31.5986 22.488C31.7978 22.4098 31.8263 22.1393 31.6413 22.0326L31.6484 22.0184Z"></path>
<path fill="white" d="M30.5284 8.97076L29.831 10.1093C29.8025 10.1592 29.7456 10.1876 29.6887 10.1947L28.358 10.2446C28.2085 10.2446 28.1374 10.4225 28.2299 10.5363L29.098 11.5468C29.1336 11.5895 29.1479 11.6536 29.1336 11.7105L28.7707 12.9914C28.728 13.1337 28.8703 13.2547 29.0055 13.1978L30.2366 12.6854C30.2936 12.6641 30.3505 12.6712 30.4003 12.6996L31.5104 13.4397C31.6314 13.518 31.7951 13.4255 31.7808 13.2832L31.6741 11.9524C31.6741 11.8955 31.6954 11.8386 31.7381 11.803L32.7842 10.9775C32.8981 10.885 32.8554 10.7071 32.7131 10.6715L31.4179 10.3584C31.361 10.3442 31.3112 10.3015 31.2969 10.2517L30.8344 8.99922C30.7846 8.86402 30.5996 8.84267 30.5213 8.97076H30.5284Z"></path>
<path fill="white" d="M18.5377 33.8986C12.3039 33.2012 7.29413 28.163 6.63232 21.9292L18.5377 33.8986Z"></path>
<path stroke-linejoin="round" stroke-linecap="round" stroke-width="1.75" stroke="#6E58D4" d="M18.5377 33.8986C12.3039 33.2012 7.29413 28.163 6.63232 21.9292"></path>
</g>
<defs>
<clipPath id="clip0_2673_2911">
<rect transform="translate(0 0.310303)" fill="white" height="40" width="40"></rect>
</clipPath>
</defs>
</svg>
