<svg xmlns="http://www.w3.org/2000/svg" fill="none" viewBox="0 0 40 41" height="41" width="40">
<g clip-path="url(#clip0_2673_2874)">
<path fill="#FFCA12" d="M20.0036 40.3174C31.0512 40.3174 40.0071 31.3615 40.0071 20.3139C40.0071 9.2662 31.0512 0.310303 20.0036 0.310303C8.9559 0.310303 0 9.2662 0 20.3139C0 31.3615 8.9559 40.3174 20.0036 40.3174Z"></path>
<path fill="#111111" d="M19.043 7.91038C18.9363 6.51561 17.6553 5.46242 16.1752 5.54782C15.1291 5.60474 14.2396 6.23097 13.8482 7.09914C14.937 7.41937 15.8905 8.17368 16.3673 9.24111C16.4954 9.56134 16.3246 9.91003 15.983 10.031C15.6628 10.1449 15.3141 10.0097 15.1647 9.71789C14.5812 8.42275 12.9943 7.81787 11.6137 8.3587C10.4751 8.80702 9.83467 9.90291 9.96988 11.013C10.3257 10.9419 10.6957 10.8992 11.0729 10.8992C13.5849 10.8992 15.6272 12.5999 15.6272 14.6707C15.6272 15.0266 15.5703 15.3752 15.4564 15.7026C15.3497 16.0299 14.9797 16.2007 14.631 16.1011C14.2894 16.0015 14.1044 15.6528 14.2111 15.3254C14.2823 15.1191 14.3179 14.8913 14.3179 14.6707C14.3179 13.2689 12.859 12.1232 11.0729 12.1232C10.6103 12.1232 10.162 12.2014 9.76351 12.3366C9.74928 12.3438 9.73504 12.3509 9.72081 12.358C9.70658 12.358 9.69946 12.358 9.69235 12.3651C8.58934 12.7707 7.82079 13.6531 7.82079 14.6636C7.82079 15.3112 8.14102 15.9374 8.71031 16.4071C8.81706 16.4925 8.89533 16.6063 8.9238 16.7487C9.00208 17.0831 8.78859 17.4105 8.43278 17.4888C7.15899 17.7592 6.241 18.9618 6.241 20.3637C6.241 21.0824 6.48295 21.7656 6.92415 22.3064C7.01667 22.406 7.07359 22.5412 7.08783 22.6693V22.769C7.08783 22.769 7.08071 22.7974 7.08071 22.8045V22.8188C7.05936 22.9326 7.00955 23.0322 6.92415 23.1319C6.48295 23.6656 6.23389 24.3559 6.23389 25.0746C6.23389 26.1349 6.7676 27.1241 7.63577 27.6435C7.90619 27.8001 8.00581 28.1132 7.89195 28.3907C7.33689 29.7001 8.00581 31.1803 9.39347 31.6997C10.0339 31.9488 10.7527 31.9488 11.3931 31.7069C11.7276 31.5859 12.1118 31.7353 12.2399 32.0556C12.2613 32.1054 12.2755 32.1552 12.2826 32.2121C12.4819 33.9698 14.1613 35.2436 16.0257 35.0515C17.5699 34.902 18.7868 33.7848 19.0288 32.39C19.0074 32.2121 19.0359 7.90327 19.0359 7.90327L19.043 7.91038ZM12.4392 29.8068C12.0763 29.8068 11.7845 29.5293 11.7845 29.1949C11.7916 26.8536 13.8055 24.9536 16.3033 24.9536C16.6662 24.9536 16.958 25.2311 16.958 25.5656C16.958 25.9001 16.6591 26.1776 16.3033 26.1776C14.5313 26.1776 13.101 27.5297 13.0939 29.1949C13.0939 29.5364 12.8021 29.8068 12.4463 29.8068H12.4392ZM13.9692 32.3829C13.6062 32.3829 13.3216 32.1054 13.3216 31.7709C13.3216 31.4364 13.6134 31.1589 13.9692 31.1589C15.1291 31.1589 16.0684 30.2765 16.0684 29.1949C16.0684 28.8533 16.3602 28.5829 16.716 28.5829C17.0718 28.5829 17.3707 28.8604 17.3707 29.1949C17.3636 30.9597 15.8478 32.39 13.9621 32.39L13.9692 32.3829ZM17.1359 21.7513C16.1681 21.7513 15.2643 21.5094 14.4815 21.0967C13.962 23.0038 12.119 24.4199 9.92006 24.427C9.55714 24.427 9.27249 24.1495 9.27249 23.815C9.27249 23.4806 9.56425 23.203 9.92006 23.203C11.7133 23.1959 13.1793 21.8937 13.3074 20.2356C12.368 19.3318 11.7916 18.0865 11.7845 16.7202C11.7845 16.3786 12.0834 16.1082 12.4392 16.1082C12.795 16.1082 13.0868 16.3857 13.0868 16.7202C13.0939 18.8266 14.9014 20.5202 17.1359 20.5202C17.4988 20.5202 17.7906 20.7978 17.7906 21.1322C17.7906 21.4667 17.4917 21.7442 17.1359 21.7442V21.7513Z"></path>
<path fill="#111111" d="M20.9643 32.4043C21.2063 33.7991 22.416 34.9163 23.9673 35.0657C25.8318 35.2508 27.5112 33.9841 27.7104 32.2264C27.7176 32.1695 27.7318 32.1196 27.7531 32.0698C27.8812 31.7496 28.2655 31.6002 28.6 31.7211C29.2404 31.9631 29.9591 31.9631 30.5996 31.714C31.9873 31.1945 32.6633 29.7144 32.1011 28.405C31.9873 28.1275 32.0869 27.8215 32.3573 27.6578C33.2255 27.1383 33.7592 26.1563 33.7592 25.0889C33.7592 24.363 33.5101 23.6799 33.0689 23.1462C32.9835 23.0536 32.9337 22.954 32.9124 22.833V22.8188C32.9124 22.8188 32.9124 22.7975 32.9052 22.7832V22.6836C32.9195 22.5555 32.9764 22.4203 33.0689 22.3207C33.5101 21.7799 33.7521 21.0896 33.7521 20.378C33.7521 18.9761 32.8341 17.7663 31.5603 17.503C31.2045 17.4319 30.991 17.0974 31.0693 16.763C31.0977 16.6277 31.176 16.5068 31.2828 16.4214C31.852 15.9517 32.1723 15.3326 32.1723 14.6779C32.1723 13.6674 31.4037 12.785 30.3007 12.3794C30.2936 12.3723 30.2865 12.3723 30.2723 12.3723C30.258 12.3652 30.2438 12.358 30.2296 12.3509C29.8311 12.2157 29.3827 12.1374 28.9202 12.1374C27.134 12.1374 25.6752 13.2831 25.6752 14.685C25.6752 14.9056 25.7108 15.1333 25.782 15.3397C25.8887 15.6671 25.7037 16.0086 25.3621 16.1154C25.0134 16.215 24.6434 16.0442 24.5366 15.7169C24.4228 15.3824 24.3658 15.0337 24.3658 14.685C24.3658 12.6071 26.4153 10.9135 28.9202 10.9135C29.3045 10.9135 29.6745 10.9562 30.0232 11.0273C30.1584 9.92431 29.5179 8.8213 28.3794 8.37298C26.9988 7.83216 25.4119 8.43703 24.8284 9.73217C24.6861 10.0239 24.3303 10.1591 24.01 10.0453C23.6685 9.93143 23.4977 9.57562 23.6258 9.25539C24.1025 8.19508 25.049 7.43365 26.1449 7.11342C25.7535 6.23813 24.864 5.61903 23.8179 5.5621C22.3377 5.4767 21.0568 6.5299 20.9501 7.92467C20.9501 7.92467 20.9785 32.2335 20.9572 32.4114L20.9643 32.4043ZM26.9134 29.1878C26.9063 27.5226 25.476 26.1705 23.704 26.1705C23.3411 26.1705 23.0493 25.893 23.0493 25.5585C23.0493 25.2241 23.3482 24.9465 23.704 24.9465C26.2018 24.9465 28.2157 26.8466 28.2228 29.1878C28.2228 29.5294 27.9239 29.7998 27.5681 29.7998C27.2123 29.7998 26.9205 29.5222 26.9205 29.1878H26.9134ZM22.6295 29.1878C22.6295 28.8462 22.9284 28.5758 23.2842 28.5758C23.64 28.5758 23.9317 28.8533 23.9317 29.1878C23.9317 30.2694 24.8711 31.1518 26.031 31.1518C26.3939 31.1518 26.6786 31.4294 26.6786 31.7638C26.6786 32.1054 26.3868 32.3758 26.031 32.3758C24.1524 32.3758 22.6295 30.9455 22.6224 29.1807L22.6295 29.1878ZM22.2096 21.1394C22.2096 20.7978 22.5085 20.5274 22.8643 20.5274C25.0988 20.5274 26.9063 18.8266 26.9134 16.7274C26.9134 16.3858 27.2052 16.1154 27.561 16.1154C27.9168 16.1154 28.2157 16.3929 28.2157 16.7274C28.2086 18.0937 27.6322 19.339 26.6928 20.2428C26.8138 21.9008 28.2868 23.2031 30.0801 23.2102C30.443 23.2102 30.7277 23.4877 30.7277 23.8222C30.7277 24.1638 30.4359 24.4342 30.0801 24.4342C27.8812 24.4271 26.0381 23.0109 25.5187 21.1038C24.7359 21.5237 23.8321 21.7585 22.8643 21.7585C22.5014 21.7585 22.2096 21.481 22.2096 21.1465V21.1394Z"></path>
</g>
<defs>
<clipPath id="clip0_2673_2874">
<rect transform="translate(0 0.310303)" fill="white" height="40" width="40"></rect>
</clipPath>
</defs>
</svg>
