<svg xmlns="http://www.w3.org/2000/svg" fill="none" viewBox="0 0 40 41" height="41" width="40">
<g clip-path="url(#clip0_2250_8170)">
<path fill="#231F20" d="M20.0036 40.6968C31.0512 40.6968 40.0071 31.7409 40.0071 20.6933C40.0071 9.6456 31.0512 0.689697 20.0036 0.689697C8.9559 0.689697 0 9.6456 0 20.6933C0 31.7409 8.9559 40.6968 20.0036 40.6968Z"></path>
<path stroke-linejoin="round" stroke-linecap="round" stroke-width="1.75" stroke="#231F20" fill="white" d="M30.3074 32.1787C26.8205 33.9435 22.7287 33.3031 20.8216 32.8477C20.2238 32.7053 19.9036 32.072 20.1384 31.5027C20.8927 29.6952 22.7927 26.0161 26.2797 24.2442C29.7666 22.4723 33.8584 23.1198 35.7655 23.5753C36.3633 23.7176 36.6835 24.3509 36.4487 24.9202C35.6944 26.7277 33.7943 30.4068 30.3074 32.1787Z"></path>
<path stroke-linejoin="round" stroke-linecap="round" stroke-width="1.75" stroke="#231F20" fill="white" d="M31.0975 25.4184C28.3364 29.4532 23.4618 31.2181 21.0993 31.8585C20.3592 32.0578 19.6262 31.5596 19.5479 30.7982C19.2917 28.3645 19.1565 23.1768 21.9176 19.1419C24.6787 15.107 29.5533 13.3422 31.9158 12.7018C32.6559 12.5025 33.3889 13.0007 33.4672 13.7621C33.7233 16.1958 33.8585 21.3835 31.0975 25.4184Z"></path>
<path stroke-linejoin="round" stroke-linecap="round" stroke-width="1.75" stroke="#231F20" fill="white" d="M9.69226 32.1788C13.1792 33.9436 17.271 33.3031 19.1781 32.8477C19.7759 32.7054 20.0961 32.072 19.8613 31.5027C19.107 29.6952 17.2069 26.0162 13.72 24.2442C10.2331 22.4794 6.14129 23.1199 4.23416 23.5753C3.6364 23.7176 3.31617 24.351 3.55101 24.9203C4.30532 26.7278 6.20534 30.4068 9.69226 32.1788Z"></path>
<path stroke-linejoin="round" stroke-linecap="round" stroke-width="1.75" stroke="#231F20" fill="white" d="M8.90247 25.4184C11.6635 29.4532 16.5381 31.2181 18.9007 31.8585C19.6408 32.0578 20.3737 31.5596 20.452 30.7982C20.7082 28.3645 20.8434 23.1768 18.0823 19.1419C15.3213 15.107 10.4467 13.3422 8.08411 12.7018C7.34403 12.5025 6.61107 13.0007 6.53279 13.7621C6.27661 16.1958 6.1414 21.3835 8.90247 25.4184Z"></path>
<path stroke-linejoin="round" stroke-linecap="round" stroke-width="1.75" stroke="#231F20" fill="white" d="M26.7923 18.5585C26.7923 24.472 23.1204 29.5601 21.2061 31.8088C20.6084 32.5133 19.5267 32.5133 18.929 31.8088C17.0076 29.553 13.3428 24.472 13.3428 18.5585C13.3428 12.6449 17.0147 7.55687 18.929 5.30816C19.5267 4.60366 20.6084 4.60366 21.2061 5.30816C23.1275 7.56399 26.7923 12.6449 26.7923 18.5585Z"></path>
<path stroke-linejoin="round" stroke-linecap="round" stroke-width="1.5" stroke="#231F20" d="M22.4943 12.6592C22.9924 13.5914 23.6898 15.1854 23.9033 17.306C24.3303 21.533 22.537 24.6997 22.0317 25.5181"></path>
</g>
<defs>
<clipPath id="clip0_2250_8170">
<rect transform="translate(0 0.689697)" fill="white" height="40" width="40"></rect>
</clipPath>
</defs>
</svg>
