<svg xmlns="http://www.w3.org/2000/svg" fill="none" viewBox="0 0 40 41" height="41" width="40">
<g clip-path="url(#clip0_2673_2922)">
<path fill="#6E58D4" d="M20.0036 40.3174C31.0512 40.3174 40.0071 31.3615 40.0071 20.3139C40.0071 9.2662 31.0512 0.310303 20.0036 0.310303C8.9559 0.310303 0 9.2662 0 20.3139C0 31.3615 8.9559 40.3174 20.0036 40.3174Z"></path>
<path fill="white" d="M20.0036 35.6564C28.477 35.6564 35.3461 28.7873 35.3461 20.3139C35.3461 11.8405 28.477 4.97144 20.0036 4.97144C11.5302 4.97144 4.66113 11.8405 4.66113 20.3139C4.66113 28.7873 11.5302 35.6564 20.0036 35.6564Z"></path>
<path stroke-linejoin="round" stroke-linecap="round" stroke-width="1.75" stroke="#6E58D4" d="M29.3542 22.7476C29.3542 27.1667 25.1628 30.2124 19.9964 30.2124C14.8301 30.2124 10.6387 27.1596 10.6387 22.7476"></path>
<path stroke-linejoin="round" stroke-linecap="round" stroke-width="1.75" stroke="#6E58D4" d="M29.3542 22.7476C29.3542 27.1667 25.1628 30.2124 19.9964 30.2124C14.8301 30.2124 10.6387 27.1596 10.6387 22.7476"></path>
<path stroke-linejoin="round" stroke-linecap="round" stroke-width="1.75" stroke="#6E58D4" d="M10.5248 16.1794C10.9304 14.7135 11.9694 13.6105 13.7484 13.6105C15.5274 13.6105 16.5237 14.7206 16.972 16.1794"></path>
<path stroke-linejoin="round" stroke-linecap="round" stroke-width="1.75" stroke="#6E58D4" d="M23.035 16.1794C23.4407 14.7135 24.4796 13.6105 26.2587 13.6105C28.0377 13.6105 29.034 14.7206 29.4823 16.1794"></path>
<path stroke-linejoin="round" stroke-linecap="round" stroke-width="1.75" stroke="#6E58D4" d="M8.79553 24C8.90227 23.7367 9.35771 22.7405 10.4821 22.1925C11.3574 21.7656 12.1615 21.8367 12.4888 21.8794"></path>
<path stroke-linejoin="round" stroke-linecap="round" stroke-width="1.75" stroke="#6E58D4" d="M31.2044 24C31.0977 23.7367 30.6422 22.7405 29.5179 22.1925C28.6426 21.7656 27.8385 21.8367 27.5111 21.8794"></path>
</g>
<defs>
<clipPath id="clip0_2673_2922">
<rect transform="translate(0 0.310303)" fill="white" height="40" width="40"></rect>
</clipPath>
</defs>
</svg>
