<svg xmlns="http://www.w3.org/2000/svg" fill="none" viewBox="0 0 40 41" height="41" width="40">
<g clip-path="url(#clip0_2673_2882)">
<path fill="#FFCA12" d="M20.0036 40.3174C31.0512 40.3174 40.0071 31.3615 40.0071 20.3139C40.0071 9.2662 31.0512 0.310303 20.0036 0.310303C8.9559 0.310303 0 9.2662 0 20.3139C0 31.3615 8.9559 40.3174 20.0036 40.3174Z"></path>
<path fill="#111111" d="M33.2895 12.2584C34.1221 13.4681 34.1505 15.1191 33.3535 16.3573C32.2007 18.1506 29.9805 18.5775 28.3082 17.6311C27.8883 17.3891 27.3546 17.4247 27.013 17.7734L17.4631 27.3233C17.1144 27.672 17.0788 28.1986 17.3208 28.6185C18.2744 30.2836 17.8474 32.511 16.047 33.6638C14.8088 34.4608 13.1649 34.4252 11.9481 33.5998C11.0514 32.9878 10.5248 32.1054 10.3541 31.1589C10.9305 31.0806 11.4286 30.9312 11.7915 30.7818C11.8698 30.7533 11.941 30.7035 11.9908 30.6537C12.1544 30.49 12.2185 30.2267 12.1189 29.999C11.9979 29.6859 11.6421 29.5436 11.329 29.6645C10.902 29.8424 10.2544 30.0346 9.47876 30.0132C9.46453 30.0132 9.4503 30.0132 9.44318 30.0132C8.3971 29.8994 7.38661 29.3514 6.71057 28.3694C5.87798 27.1596 5.8424 25.5087 6.63941 24.2705C7.79223 22.4772 10.0267 22.0502 11.6848 22.9967C12.1046 23.2386 12.6383 23.203 12.9799 22.8544L22.5298 13.3045C22.8785 12.9558 22.9141 12.4292 22.6721 12.0093C21.7328 10.3441 22.1455 8.11677 23.9459 6.96395C25.1842 6.16694 26.8351 6.20252 28.0449 7.02799C28.9273 7.63998 29.461 8.51527 29.6389 9.44749C28.8419 9.59693 28.2014 9.87446 27.7744 10.1235C27.4756 10.2943 27.3831 10.6572 27.5467 10.9419C27.7104 11.2408 28.0804 11.3333 28.3722 11.1767C28.728 10.9704 29.2404 10.7355 29.8951 10.6217C29.9022 10.6217 29.9235 10.6217 29.9378 10.6217C31.1902 10.5363 32.4711 11.0842 33.2824 12.2655L33.2895 12.2584Z"></path>
<path fill="#111111" d="M28.2868 28.7893C28.059 29.017 27.7032 29.0099 27.4826 28.7893L24.6148 25.8503C24.3942 25.6297 24.4013 25.2668 24.6148 25.0462C24.8425 24.8185 25.1983 24.8256 25.4189 25.0462L28.2868 27.9852C28.5074 28.2058 28.5002 28.5687 28.2868 28.7893Z"></path>
<path fill="#111111" d="M23.1916 31.6499C23.1204 31.7211 23.0351 31.7709 22.9283 31.7993C22.6223 31.8776 22.3163 31.6926 22.238 31.3866L21.2275 27.4087C21.1493 27.1027 21.3343 26.7896 21.6403 26.7184C21.9463 26.6401 22.2523 26.8251 22.3306 27.1311L23.341 31.1091C23.3909 31.3083 23.3268 31.5147 23.1916 31.6499Z"></path>
<path fill="#111111" d="M13.4994 18.7697C13.3571 18.912 13.1436 18.976 12.9444 18.9191L8.99488 17.809C8.68888 17.7236 8.51809 17.4105 8.60349 17.1045C8.68888 16.7985 9.00199 16.6277 9.30799 16.7131L13.2575 17.8232C13.5635 17.9086 13.7342 18.2217 13.6489 18.5277C13.6204 18.6274 13.5706 18.7128 13.5065 18.7768L13.4994 18.7697Z"></path>
<path fill="#111111" d="M15.3924 15.5745C15.1647 15.8022 14.8089 15.7951 14.5883 15.5745L11.7205 12.6355C11.4999 12.4078 11.4785 12.0449 11.7276 11.8314C11.9553 11.6108 12.3111 11.6179 12.5317 11.8385L15.3995 14.7775C15.6201 14.9981 15.613 15.361 15.3995 15.5816L15.3924 15.5745Z"></path>
<path fill="#111111" d="M18.6302 13.7599C18.559 13.831 18.4737 13.8809 18.3669 13.9093C18.0609 13.9876 17.7549 13.8026 17.6766 13.4966L16.6661 9.51864C16.5879 9.21265 16.7729 8.89954 17.0789 8.82838C17.3849 8.7501 17.6909 8.93512 17.7692 9.24111L18.7796 13.2191C18.8295 13.4183 18.7654 13.6247 18.6302 13.7599Z"></path>
<path fill="#111111" d="M31.2685 23.7724C31.1261 23.9147 30.9126 23.9787 30.7134 23.9218L26.7639 22.8117C26.4579 22.7263 26.2871 22.4132 26.3725 22.1072C26.4579 21.8012 26.771 21.6304 27.077 21.7158L31.0265 22.8259C31.3325 22.9113 31.5033 23.2244 31.4179 23.5304C31.3894 23.63 31.3396 23.7154 31.2756 23.7795L31.2685 23.7724Z"></path>
</g>
<defs>
<clipPath id="clip0_2673_2882">
<rect transform="translate(0 0.310303)" fill="white" height="40" width="40"></rect>
</clipPath>
</defs>
</svg>
