<svg xmlns="http://www.w3.org/2000/svg" fill="none" viewBox="0 0 69 69" height="69" width="69">
<g clip-path="url(#clip0_2250_6520)">
<path fill="#FFF5D0" d="M35.0006 14.5744L58.8501 38.4239C60.143 39.7168 60.1498 41.828 58.8501 43.1278L42.7716 59.2063C41.4718 60.506 39.3675 60.4991 38.0677 59.2063L14.2182 35.3567C12.9253 34.0639 12.9253 31.9595 14.2182 30.6597L30.2967 14.5813C31.5964 13.2815 33.7008 13.2815 34.9937 14.5813L35.0006 14.5744Z"></path>
<path fill="black" d="M40.4199 61.0356C39.347 61.0356 38.2742 60.6298 37.4559 59.8183L13.6132 35.9619C11.9903 34.339 11.9903 31.6844 13.6132 30.0477L29.6917 13.9692C30.4826 13.1784 31.5348 12.7451 32.6488 12.7451C33.7148 12.7451 34.7257 13.144 35.4959 13.8729C35.5303 13.9005 35.5716 13.928 35.5991 13.9623L59.4486 37.8119C60.2394 38.6027 60.6727 39.648 60.6727 40.769C60.6727 41.8899 60.2394 42.9421 59.4486 43.733L43.3701 59.8115C42.5586 60.623 41.4858 61.0356 40.413 61.0356H40.4199ZM32.6488 14.4644C31.9886 14.4644 31.3697 14.7188 30.9021 15.1865L14.8236 31.2649C13.8677 32.2277 13.8677 33.7888 14.8236 34.7447L38.6731 58.5942C39.6359 59.5501 41.2038 59.5501 42.1597 58.5942L58.2382 42.5158C58.7059 42.0481 58.9603 41.4292 58.9603 40.769C58.9603 40.1088 58.7059 39.4899 58.2382 39.0291L34.485 15.2759C34.4506 15.2484 34.4162 15.2208 34.3818 15.1933C33.9211 14.7257 33.3021 14.4713 32.6488 14.4713V14.4644Z"></path>
<path fill="black" d="M40.516 57.3357C40.2959 57.3357 40.0759 57.2532 39.9108 57.0812L17.5399 34.7103C17.0722 34.2427 16.8315 33.6031 16.8591 32.9223C16.8866 32.2689 17.1685 31.6431 17.6499 31.1686L30.8125 18.006C31.287 17.5315 31.9129 17.2495 32.5662 17.2151C33.2539 17.1808 33.8866 17.4215 34.3542 17.896L56.7252 40.2669C57.0621 40.6039 57.0621 41.1472 56.7252 41.4842C56.3882 41.8211 55.8449 41.8211 55.5079 41.4842L33.1438 19.1063C32.9788 18.9413 32.7656 18.9206 32.6487 18.9275C32.4218 18.9413 32.2017 19.0376 32.0298 19.2164L18.8671 32.379C18.6952 32.5509 18.5921 32.771 18.5783 32.9979C18.5783 33.1148 18.5921 33.328 18.7571 33.4931L41.1281 55.864C41.465 56.201 41.465 56.7443 41.1281 57.0812C40.963 57.2463 40.743 57.3357 40.5229 57.3357H40.516Z"></path>
<path fill="#FFF5D0" d="M19.1231 12.7581L12.4126 19.4686L13.3073 23.0475L16.8863 24.3896L21.36 20.3633L23.5968 16.337L20.0179 12.7581H19.1231Z"></path>
<path fill="black" d="M16.1784 25.1721C15.415 25.1721 14.6517 24.8832 14.0671 24.2987L11.9627 22.1943C11.3988 21.6304 11.0894 20.8808 11.0894 20.0831C11.0894 19.2853 11.3988 18.5357 11.9627 17.9718L17.6088 12.3258C18.1727 11.7619 18.9223 11.4524 19.72 11.4524C20.5178 11.4524 21.2673 11.7619 21.8313 12.3258L23.9356 14.4301C25.0978 15.5924 25.0978 17.4904 23.9356 18.6526L18.2896 24.2987C17.7051 24.8832 16.9417 25.1721 16.1784 25.1721ZM19.72 13.1716C19.383 13.1716 19.0667 13.3023 18.826 13.543L13.18 19.189C12.9393 19.4297 12.8086 19.7461 12.8086 20.0831C12.8086 20.42 12.9393 20.7364 13.18 20.9771L15.2843 23.0814C15.7795 23.5766 16.5772 23.5766 17.0724 23.0814L22.7184 17.4354C23.2135 16.9403 23.2135 16.1356 22.7184 15.6474L20.614 13.543C20.3733 13.3023 20.057 13.1716 19.72 13.1716Z"></path>
<path fill="black" d="M16.3156 22.7167C16.0955 22.7167 15.8754 22.6342 15.7104 22.4623L13.8055 20.5574C13.4685 20.2204 13.4685 19.6771 13.8055 19.3401C14.1424 19.0032 14.6857 19.0032 15.0227 19.3401L16.9276 21.2451C17.2646 21.582 17.2646 22.1253 16.9276 22.4623C16.7626 22.6273 16.5425 22.7167 16.3225 22.7167H16.3156Z"></path>
<path fill="black" d="M17.8561 21.1765C17.636 21.1765 17.416 21.0939 17.2509 20.922L15.346 19.0171C15.009 18.6801 15.009 18.1368 15.346 17.7998C15.683 17.4629 16.2263 17.4629 16.5632 17.7998L18.4682 19.7048C18.8051 20.0418 18.8051 20.585 18.4682 20.922C18.3031 21.0871 18.083 21.1765 17.863 21.1765H17.8561Z"></path>
<path fill="black" d="M19.3966 19.6428C19.1766 19.6428 18.9565 19.5603 18.7915 19.3883L16.8865 17.4834C16.5495 17.1464 16.5495 16.6031 16.8865 16.2662C17.2235 15.9292 17.7668 15.9292 18.1038 16.2662L20.0087 18.1711C20.3457 18.5081 20.3457 19.0514 20.0087 19.3883C19.8436 19.5534 19.6236 19.6428 19.4035 19.6428H19.3966Z"></path>
<path fill="black" d="M38.5629 46.6281C38.0678 46.6281 37.5451 46.5662 37.0087 46.4424C35.4683 46.0848 33.2057 45.4384 31.3214 43.9874C29.334 42.4607 28.2749 40.3975 28.4193 38.3276C28.55 36.4157 29.6778 34.7171 31.5208 33.6718C32.0504 33.3692 32.3461 33.1629 32.573 32.9291C32.8068 32.6953 33.0132 32.3996 33.3157 31.87C34.3679 30.027 36.0666 28.8992 37.9784 28.7685C40.0552 28.631 42.1115 29.69 43.6313 31.6775C45.0892 33.5755 45.7288 35.8312 46.0864 37.3648C46.5746 39.4485 46.0864 41.3191 44.8004 42.3713C44.4634 42.6463 44.1814 42.8458 43.9201 43.0246C43.6382 43.2171 43.4181 43.3753 43.2118 43.5816C43.0055 43.781 42.8542 44.008 42.6547 44.2899C42.4759 44.5444 42.2834 44.8332 42.0152 45.1633C41.2312 46.1192 39.9933 46.635 38.556 46.635L38.5629 46.6281ZM33.7903 34.1395C33.3914 34.5452 32.9306 34.8409 32.3736 35.1573C31.0395 35.9137 30.228 37.1103 30.1386 38.4376C30.0354 39.9505 30.8263 41.4291 32.3736 42.6188C33.9897 43.8636 36.0184 44.4412 37.4007 44.7576C37.9371 44.8814 39.7526 45.2046 40.6879 44.063C40.9217 43.7742 41.0937 43.5266 41.245 43.3065C41.4719 42.9764 41.6851 42.6601 42.0083 42.3437C42.3178 42.0343 42.6272 41.828 42.9505 41.601C43.1774 41.4429 43.425 41.2709 43.7207 41.0302C44.8623 40.1018 44.539 38.2794 44.4153 37.743C44.0989 36.3676 43.5281 34.3458 42.2765 32.7159C41.0937 31.1686 39.6151 30.3708 38.1022 30.4809C36.7749 30.5703 35.5714 31.3886 34.8149 32.7159C34.4917 33.2798 34.196 33.7337 33.7971 34.1326L33.7903 34.1395Z"></path>
<path fill="black" d="M34.4093 42.9422C34.2511 42.9422 34.0929 42.9009 33.9554 42.8115C31.851 41.4843 30.8057 39.4624 31.1633 37.4062C31.2459 36.9385 31.6929 36.6291 32.1605 36.7047C32.6281 36.7873 32.9376 37.2343 32.862 37.7019C32.745 38.3483 32.7175 39.9988 34.87 41.3605C35.2689 41.6149 35.3927 42.1445 35.1383 42.5433C34.9732 42.8046 34.6981 42.9422 34.4093 42.9422Z"></path>
<path fill="black" d="M32.8481 34.0639C32.628 34.0639 32.408 33.9813 32.2429 33.8094L31.9128 33.4793C28.9144 30.4809 30.001 27.0974 30.0492 26.953C30.2005 26.506 30.6818 26.2584 31.1357 26.4097C31.5827 26.561 31.8303 27.0424 31.679 27.4894C31.6446 27.6063 30.9088 30.0408 33.1301 32.2621L33.4602 32.5922C33.7971 32.9292 33.7971 33.4724 33.4602 33.8094C33.2951 33.9745 33.075 34.0639 32.855 34.0639H32.8481Z"></path>
<path fill="black" d="M27.422 35.0541C26.1291 35.0541 25.0288 34.559 24.96 34.5246C24.5818 34.3527 24.3824 33.9332 24.4855 33.5343C24.513 33.4311 25.1251 31.0654 26.9956 30.1714C28.818 29.298 31.1631 30.1302 31.2663 30.1714C31.6583 30.3158 31.8921 30.7147 31.8164 31.1273C31.8027 31.203 31.782 31.2718 31.7545 31.3405C31.5757 31.8838 30.8124 33.8988 29.155 34.6965C28.5842 34.9716 27.9859 35.0679 27.4151 35.0679L27.422 35.0541ZM26.4317 33.2111C27.03 33.3555 27.8071 33.4243 28.4123 33.1354C29.0175 32.8466 29.492 32.1589 29.7946 31.5675C29.155 31.4643 28.3504 31.4299 27.7384 31.7256C27.1332 32.0145 26.6999 32.6678 26.4317 33.2179V33.2111Z"></path>
<path fill="black" d="M34.3335 68.6897C15.5867 68.6897 0.333496 53.4365 0.333496 34.6897C0.333496 15.9429 15.5867 0.689697 34.3335 0.689697C53.0803 0.689697 68.3335 15.9429 68.3335 34.6897C68.3335 53.4365 53.0803 68.6897 34.3335 68.6897ZM34.3335 2.40895C16.5358 2.40895 2.05275 16.892 2.05275 34.6897C2.05275 52.4874 16.5358 66.9704 34.3335 66.9704C52.1312 66.9704 66.6142 52.4874 66.6142 34.6897C66.6142 16.892 52.1312 2.40895 34.3335 2.40895Z"></path>
<path fill="black" d="M10.8965 58.9794C10.6764 58.9794 10.4564 58.8969 10.2913 58.725C9.95433 58.388 9.95433 57.8447 10.2913 57.5077L21.0607 46.7383C21.3977 46.4014 21.941 46.4014 22.278 46.7383C22.6149 47.0753 22.6149 47.6186 22.278 47.9556L11.5085 58.725C11.3435 58.89 11.1234 58.9794 10.9034 58.9794H10.8965Z"></path>
<path fill="black" d="M46.9253 22.9506C46.7052 22.9506 46.4852 22.8681 46.3201 22.6962C45.9831 22.3592 45.9831 21.8159 46.3201 21.4789L57.0895 10.7095C57.4265 10.3725 57.9698 10.3725 58.3068 10.7095C58.6437 11.0465 58.6437 11.5898 58.3068 11.9268L47.5373 22.6962C47.3723 22.8612 47.1522 22.9506 46.9322 22.9506H46.9253Z"></path>
</g>
<defs>
<clipPath id="clip0_2250_6520">
<rect transform="translate(0.333496 0.689697)" fill="white" height="68" width="68"></rect>
</clipPath>
</defs>
</svg>
