<svg xmlns="http://www.w3.org/2000/svg" fill="none" viewBox="0 0 68 69" height="69" width="68">
<g clip-path="url(#clip0_2250_6542)">
<path fill="black" d="M10.563 58.9794C10.3429 58.9794 10.1229 58.8969 9.95781 58.725C9.62083 58.388 9.62083 57.8447 9.95781 57.5077L20.7272 46.7383C21.0642 46.4014 21.6075 46.4014 21.9445 46.7383C22.2814 47.0753 22.2814 47.6186 21.9445 47.9556L11.175 58.725C11.01 58.89 10.7899 58.9794 10.5699 58.9794H10.563Z"></path>
<path fill="black" d="M46.5508 22.9919C46.3307 22.9919 46.1107 22.9094 45.9456 22.7374C45.6086 22.4005 45.6086 21.8572 45.9456 21.5202L56.715 10.7508C57.052 10.4138 57.5953 10.4138 57.9323 10.7508C58.2692 11.0878 58.2692 11.631 57.9323 11.968L47.1628 22.7374C46.9978 22.9025 46.7777 22.9919 46.5577 22.9919H46.5508Z"></path>
<path fill="black" d="M34 68.6897C15.2532 68.6897 0 53.4365 0 34.6897C0 15.9429 15.2532 0.689697 34 0.689697C52.7468 0.689697 68 15.9429 68 34.6897C68 53.4365 52.7468 68.6897 34 68.6897ZM34 2.40895C16.2023 2.40895 1.71926 16.892 1.71926 34.6897C1.71926 52.4874 16.2023 66.9704 34 66.9704C51.7977 66.9704 66.2807 52.4874 66.2807 34.6897C66.2807 16.892 51.7977 2.40895 34 2.40895Z"></path>
<path fill="#FFF5D0" d="M32.2433 13.4081L12.7046 32.9468L35.7348 55.9769L55.2734 36.4383L32.2433 13.4081Z"></path>
<path fill="black" d="M35.7328 56.8337C35.5127 56.8337 35.2927 56.7511 35.1276 56.5792L12.0965 33.5549C11.7595 33.218 11.7595 32.6747 12.0965 32.3377L31.6341 12.8001C31.9711 12.4631 32.5144 12.4631 32.8513 12.8001L55.8825 35.8312C56.0407 35.9894 56.1369 36.2095 56.1369 36.4364C56.1369 36.6634 56.0475 36.8834 55.8825 37.0416L36.3449 56.5792C36.1798 56.7443 35.9597 56.8337 35.7397 56.8337H35.7328ZM13.9189 32.9429L35.7328 54.7568L54.0532 36.4364L32.2393 14.6225L13.9189 32.9429Z"></path>
<path fill="black" d="M35.3134 47.2059C35.0864 47.2059 34.8664 47.1165 34.7082 46.9515L21.7312 33.9745C21.3943 33.6376 21.3943 33.0943 21.7312 32.7573L32.0605 22.428C32.3975 22.091 32.9408 22.091 33.2778 22.428L46.2547 35.405C46.5917 35.7419 46.5917 36.2852 46.2547 36.6222L35.9254 46.9515C35.7673 47.1097 35.5472 47.2059 35.3202 47.2059H35.3134ZM23.5537 33.3694L35.3134 45.136L44.4254 36.0239L32.6657 24.2642L23.5537 33.3762V33.3694Z"></path>
<path fill="#FFF5D0" d="M32.2532 13.3984L12.7156 32.936L9.35957 29.58C8.98821 29.2086 9.18077 28.5691 9.69654 28.4659L11.684 28.0602C11.9316 28.012 12.131 27.8264 12.1929 27.5788L13.0044 24.4704C13.0663 24.2434 13.2382 24.0646 13.4652 24.0027L16.7249 23.0881C16.9449 23.0262 17.1169 22.8543 17.1787 22.6411L18.1622 19.292C18.2241 19.0719 18.396 18.9069 18.616 18.845L21.9239 17.8959C22.144 17.834 22.3159 17.6621 22.3778 17.4421L23.3199 14.148C23.3887 13.921 23.5675 13.7422 23.8013 13.6872L26.7928 12.9651C27.0404 12.9032 27.2261 12.7107 27.2811 12.47L27.7625 10.3381C27.8794 9.82919 28.5052 9.65039 28.8766 10.0149L32.2532 13.3915V13.3984Z"></path>
<path fill="black" d="M12.7156 33.7956C12.4886 33.7956 12.2686 33.7062 12.1104 33.5411L8.75442 30.1852C8.35555 29.7863 8.21114 29.2086 8.37618 28.6722C8.54123 28.1358 8.98136 27.7301 9.53152 27.62L11.3952 27.2418L12.1723 24.2503C12.3167 23.7208 12.7225 23.3081 13.2382 23.1706L16.3879 22.2903L17.3369 19.0513C17.4745 18.5561 17.8665 18.1641 18.3823 18.0197L21.5801 17.1051L22.4947 13.9141C22.6529 13.3777 23.0793 12.9789 23.6019 12.8551L26.4696 12.1605L26.9235 10.1524C27.0473 9.60911 27.453 9.18273 27.9826 9.03144C28.5121 8.87327 29.0829 9.02456 29.4818 9.40968L32.8653 12.7932C33.0234 12.9513 33.1197 13.1714 33.1197 13.3983C33.1197 13.6253 33.0303 13.8522 32.8653 14.0104L13.3276 33.548C13.1695 33.7062 12.9494 33.8025 12.7225 33.8025L12.7156 33.7956ZM10.233 29.2361L12.7156 31.7187L31.0429 13.3915L28.5259 10.8745L28.1201 12.6556C27.9895 13.2195 27.5631 13.6528 27.006 13.7972L24.1177 14.4918L23.2099 17.6759C23.0724 18.1779 22.6666 18.5767 22.1646 18.7212L18.9668 19.6358L18.0178 22.8749C17.8734 23.37 17.4745 23.7689 16.9725 23.9064L13.8228 24.7936L13.0388 27.792C12.9013 28.349 12.4336 28.7891 11.8628 28.8992L10.2467 29.2293L10.233 29.2361Z"></path>
<path fill="#FFF5D0" d="M35.7402 55.9741L55.2779 36.4365L58.6338 39.7925C59.0052 40.1639 58.8126 40.8034 58.2969 40.9066L56.3094 41.3123C56.0618 41.3605 55.8624 41.5462 55.8005 41.7937L54.989 44.9021C54.9271 45.1291 54.7552 45.3079 54.5283 45.3698L51.2686 46.2844C51.0485 46.3463 50.8766 46.5182 50.8147 46.7314L49.8313 50.0805C49.7694 50.3006 49.5974 50.4657 49.3774 50.5275L46.0695 51.4766C45.8495 51.5385 45.6775 51.7104 45.6156 51.9305L44.6735 55.2246C44.6047 55.4515 44.4259 55.6303 44.1921 55.6853L41.2006 56.4074C40.953 56.4693 40.7673 56.6618 40.7123 56.9025L40.2309 59.0344C40.114 59.5433 39.4882 59.7221 39.1169 59.3576L35.7402 55.981V55.9741Z"></path>
<path fill="black" d="M39.5843 60.4098C39.1923 60.4098 38.8003 60.2585 38.5115 59.9697L35.128 56.5862C34.9698 56.428 34.8735 56.208 34.8735 55.981C34.8735 55.7541 34.9629 55.5271 35.128 55.369L54.6656 35.8313C55.0026 35.4944 55.5459 35.4944 55.8828 35.8313L59.2388 39.1873C59.6377 39.5862 59.7821 40.1639 59.6171 40.7003C59.452 41.2367 59.0119 41.6424 58.4617 41.7525L56.5981 42.1307L55.8209 45.1222C55.6765 45.6517 55.2708 46.0644 54.755 46.2019L51.6053 47.0822L50.6563 50.3212C50.5188 50.8164 50.1268 51.2084 49.611 51.3528L46.4132 52.2674L45.4985 55.4584C45.3335 55.9948 44.914 56.3936 44.3845 56.5174L41.5167 57.212L41.0629 59.2201C40.9391 59.7634 40.5333 60.1898 40.0038 60.3411C39.8663 60.3823 39.7218 60.403 39.5774 60.403L39.5843 60.4098ZM36.9504 55.9741L39.4674 58.4911L39.8663 56.71C39.9969 56.1461 40.4233 55.7128 40.9803 55.5684L43.8687 54.8738L44.7764 51.6898C44.9209 51.1877 45.3197 50.7889 45.8218 50.6445L49.0265 49.7229L49.9755 46.4839C50.1199 45.9887 50.5188 45.5898 51.0208 45.4523L54.1705 44.5652L54.9544 41.5668C55.0989 41.0097 55.5596 40.5696 56.1304 40.4596L57.7465 40.1295L55.2639 37.64L36.9366 55.9673L36.9504 55.9741Z"></path>
<path fill="black" d="M18.2449 34.8892C18.0248 34.8892 17.8047 34.8067 17.6397 34.6348L14.3318 31.3201C13.9949 30.9831 13.9949 30.4398 14.3318 30.1028C14.6688 29.7659 15.2121 29.7659 15.5491 30.1028L18.8569 33.4176C19.1939 33.7545 19.1939 34.2978 18.8569 34.6348C18.6919 34.7998 18.4718 34.8892 18.2517 34.8892H18.2449Z"></path>
<path fill="black" d="M19.3107 31.1892C19.0907 31.1892 18.8706 31.1067 18.7056 30.9348L16.7112 28.9404C16.3743 28.6034 16.3743 28.0602 16.7112 27.7232C17.0482 27.3862 17.5915 27.3862 17.9285 27.7232L19.9228 29.7175C20.2598 30.0545 20.2598 30.5978 19.9228 30.9348C19.7577 31.0998 19.5377 31.1892 19.3176 31.1892H19.3107Z"></path>
</g>
<defs>
<clipPath id="clip0_2250_6542">
<rect transform="translate(0 0.689697)" fill="white" height="68" width="68"></rect>
</clipPath>
</defs>
</svg>
