<svg xmlns="http://www.w3.org/2000/svg" fill="none" viewBox="0 0 40 41" height="41" width="40">
<g clip-path="url(#clip0_2250_8147)">
<path fill="#231F20" d="M20.0036 40.6968C31.0512 40.6968 40.0071 31.7409 40.0071 20.6933C40.0071 9.6456 31.0512 0.689697 20.0036 0.689697C8.9559 0.689697 0 9.6456 0 20.6933C0 31.7409 8.9559 40.6968 20.0036 40.6968Z"></path>
<path fill="white" d="M34.3712 28.0585C31.4536 33.6661 25.2981 37.3095 18.3883 36.541C11.0515 35.7226 5.1522 29.7877 4.36942 22.4439C3.58664 15.1 7.37245 9.30028 13.0654 6.43246C13.3998 6.26879 13.7699 6.58902 13.6418 6.93771C12.8804 9.00852 12.5388 11.2786 12.7096 13.6411C13.2718 21.3124 19.4272 27.6031 27.0842 28.3218C29.4824 28.5495 31.7951 28.2364 33.9015 27.4963C34.236 27.3754 34.542 27.7383 34.3783 28.0585H34.3712Z"></path>
<path fill="white" d="M24.3091 10.1897L21.6975 10.4316C21.5836 10.4388 21.4697 10.3961 21.3986 10.3036L19.7476 8.26833C19.5626 8.04773 19.2068 8.12601 19.1428 8.41066L18.5663 10.9654C18.5379 11.0792 18.4596 11.1717 18.3529 11.2144L15.9049 12.1538C15.6345 12.2605 15.606 12.6234 15.8551 12.7729L18.1109 14.1178C18.2105 14.1748 18.2746 14.2815 18.2817 14.3954L18.4169 17.0141C18.4311 17.2988 18.7727 17.4482 18.9862 17.2561L20.9574 15.5268C21.0428 15.4485 21.1637 15.4201 21.2776 15.4557L23.811 16.1317C24.0885 16.2029 24.3304 15.9253 24.2166 15.662L23.1847 13.2497C23.142 13.1429 23.1492 13.0219 23.2132 12.9223L24.6436 10.7234C24.8001 10.4815 24.608 10.1684 24.3233 10.1897H24.3091Z"></path>
<path fill="white" d="M31.8023 22.4581L30.1371 21.4547C30.066 21.412 30.0162 21.3337 30.0162 21.2483L29.9237 19.3056C29.9165 19.0921 29.6604 18.9854 29.5038 19.1206L28.0308 20.3944C27.9667 20.4513 27.8813 20.4726 27.7959 20.4442L25.9172 19.9318C25.7109 19.8749 25.533 20.0813 25.6113 20.2805L26.3656 22.0738C26.4011 22.1521 26.394 22.2446 26.3442 22.3157L25.2768 23.9382C25.1558 24.1161 25.2981 24.351 25.5116 24.3367L27.4472 24.1731C27.5326 24.1659 27.618 24.2015 27.6678 24.2656L28.8847 25.7813C29.0199 25.945 29.2832 25.8881 29.333 25.6817L29.7742 23.7888C29.7956 23.7034 29.8525 23.6393 29.9308 23.6109L31.7525 22.9277C31.9518 22.8494 31.9802 22.579 31.7952 22.4723L31.8023 22.4581Z"></path>
<path fill="white" d="M30.5284 9.35003L29.831 10.4886C29.8025 10.5384 29.7456 10.5669 29.6887 10.574L28.358 10.6238C28.2085 10.6238 28.1374 10.8017 28.2299 10.9156L29.098 11.9261C29.1336 11.9688 29.1479 12.0328 29.1336 12.0898L28.7707 13.3707C28.728 13.513 28.8703 13.634 29.0055 13.577L30.2366 13.0647C30.2936 13.0433 30.3505 13.0504 30.4003 13.0789L31.5104 13.819C31.6314 13.8973 31.7951 13.8048 31.7808 13.6624L31.6741 12.3317C31.6741 12.2748 31.6954 12.2178 31.7381 12.1823L32.7842 11.3568C32.8981 11.2643 32.8554 11.0864 32.7131 11.0508L31.4179 10.7377C31.361 10.7235 31.3112 10.6808 31.2969 10.6309L30.8344 9.3785C30.7846 9.24329 30.5996 9.22194 30.5213 9.35003H30.5284Z"></path>
<path fill="white" d="M18.5377 34.278C12.3039 33.5806 7.29413 28.5424 6.63232 22.3086L18.5377 34.278Z"></path>
<path stroke-linejoin="round" stroke-linecap="round" stroke-width="1.75" stroke="#231F20" d="M18.5377 34.278C12.3039 33.5806 7.29413 28.5424 6.63232 22.3086"></path>
</g>
<defs>
<clipPath id="clip0_2250_8147">
<rect transform="translate(0 0.689697)" fill="white" height="40" width="40"></rect>
</clipPath>
</defs>
</svg>
