<svg xmlns="http://www.w3.org/2000/svg" fill="none" viewBox="0 0 69 69" height="69" width="69">
<path fill="black" d="M34.3335 68.6897C15.5867 68.6897 0.333496 53.4365 0.333496 34.6897C0.333496 15.9429 15.5867 0.689697 34.3335 0.689697C53.0803 0.689697 68.3335 15.9429 68.3335 34.6897C68.3335 53.4365 53.0803 68.6897 34.3335 68.6897ZM34.3335 2.40895C16.5358 2.40895 2.05275 16.892 2.05275 34.6897C2.05275 52.4874 16.5358 66.9704 34.3335 66.9704C52.1312 66.9704 66.6142 52.4874 66.6142 34.6897C66.6142 16.892 52.1312 2.40895 34.3335 2.40895Z"></path>
<path fill="#FFF5D0" d="M27.5663 25.0343L26.1152 41.6629L40.5982 34.6896L41.7123 18.728L27.5663 25.0343Z"></path>
<path fill="black" d="M10.8965 58.9794C10.6764 58.9794 10.4564 58.8969 10.2913 58.725C9.95433 58.388 9.95433 57.8447 10.2913 57.5077L22.9794 44.8196C23.3164 44.4827 23.8597 44.4827 24.1966 44.8196C24.5336 45.1566 24.5336 45.6999 24.1966 46.0369L11.5085 58.725C11.3435 58.89 11.1234 58.9794 10.9034 58.9794H10.8965Z"></path>
<path fill="black" d="M45.041 24.8349C44.821 24.8349 44.6009 24.7524 44.4358 24.5805C44.0989 24.2435 44.0989 23.7002 44.4358 23.3632L56.842 10.9571C57.179 10.6201 57.7222 10.6201 58.0592 10.9571C58.3962 11.2941 58.3962 11.8373 58.0592 12.1743L45.6531 24.5805C45.488 24.7455 45.268 24.8349 45.0479 24.8349H45.041Z"></path>
<path fill="#FFF5D0" d="M25.8542 41.9585L27.5666 25.0341L14.8304 15.7639L13.228 31.5604L25.8542 41.9585Z"></path>
<path fill="black" d="M25.854 42.8182C25.6546 42.8182 25.462 42.7495 25.3107 42.6188L12.6845 32.2207C12.4645 32.0351 12.3476 31.7531 12.3751 31.4711L13.9774 15.6746C14.0118 15.3652 14.2043 15.1038 14.4794 14.9732C14.7614 14.8494 15.0846 14.8838 15.3391 15.0626L28.0753 24.3328C28.3229 24.5116 28.4535 24.8073 28.426 25.1168L26.7137 42.0411C26.6793 42.3575 26.4798 42.6257 26.1841 42.7495C26.081 42.7907 25.9641 42.8113 25.854 42.8113V42.8182ZM14.1287 31.1892L25.1594 40.2737L26.6586 25.44L15.5316 17.3389L14.1287 31.1892Z"></path>
<path fill="black" d="M25.8539 42.8184C25.5445 42.8184 25.2419 42.6465 25.0906 42.3508C24.8705 41.9313 25.0356 41.4086 25.4619 41.1954L33.1711 37.2136C33.5906 36.9936 34.1132 37.1586 34.3264 37.585C34.5465 38.0045 34.3814 38.5271 33.9551 38.7403L26.2459 42.7221C26.1221 42.784 25.9846 42.8184 25.8539 42.8184Z"></path>
<path fill="black" d="M25.8544 42.8184C25.8544 42.8184 25.7993 42.8184 25.765 42.8184C25.2904 42.7703 24.9466 42.3508 24.9947 41.8763L26.7071 24.9519C26.7346 24.6493 26.9272 24.3811 27.2091 24.2573L41.5477 17.731C41.981 17.5316 42.4899 17.731 42.6893 18.1574C42.8887 18.5838 42.6893 19.0996 42.2629 19.299L28.3713 25.619L26.7071 42.0551C26.6658 42.4952 26.2876 42.8253 25.8544 42.8253V42.8184Z"></path>
<path fill="black" d="M40.8737 31.3819C40.8737 31.3819 40.8255 31.3819 40.798 31.3819C40.3235 31.3407 39.9728 30.9281 40.014 30.4535L41.0456 18.4394C41.0869 17.9649 41.4857 17.6141 41.974 17.6554C42.4485 17.6967 42.7992 18.1093 42.758 18.5838L41.7264 30.598C41.6852 31.045 41.3138 31.3819 40.8737 31.3819Z"></path>
<path fill="#FFF5D0" d="M41.9054 18.5079L29.0522 10.3655L14.8306 15.7639L27.5668 25.0342L41.8848 18.7279"></path>
<path fill="black" d="M27.5667 25.8939C27.3879 25.8939 27.2091 25.8389 27.0578 25.7288L14.3216 16.4586C14.0671 16.2729 13.9365 15.9635 13.9777 15.6471C14.019 15.3308 14.2322 15.0695 14.521 14.9594L28.7427 9.56097C28.9971 9.46469 29.2791 9.4922 29.506 9.63662L42.3592 17.779C42.6755 17.9784 42.8131 18.3498 42.7374 18.6937C42.7512 19.0375 42.5586 19.3607 42.2217 19.512L27.9037 25.8183C27.7937 25.8664 27.6768 25.8939 27.5598 25.8939H27.5667ZM16.6185 16.0047L27.6699 24.0509L40.2755 18.5011L28.949 11.3284L16.6116 16.0116L16.6185 16.0047Z"></path>
<path fill="#FFF5D0" d="M49.903 29.5801L33.7626 31.3612L33.2881 47.2678L49.4285 45.4866L49.903 29.5801Z"></path>
<path fill="black" d="M33.2882 48.1275C33.075 48.1275 32.8618 48.045 32.7036 47.9006C32.518 47.7286 32.4217 47.4948 32.4286 47.2404L32.9031 31.3338C32.9168 30.9074 33.2401 30.5498 33.6664 30.5017L49.8068 28.7205C50.0475 28.693 50.302 28.7756 50.4808 28.9406C50.6664 29.1125 50.7627 29.3464 50.7558 29.6008L50.2813 45.5074C50.2676 45.9337 49.9443 46.2913 49.518 46.3395L33.3776 48.1206C33.3776 48.1206 33.3157 48.1206 33.2813 48.1206L33.2882 48.1275ZM34.6017 32.1316L34.1822 46.3051L48.5965 44.7165L49.0228 30.543L34.6086 32.1316H34.6017Z"></path>
<path fill="#FFF5D0" d="M49.9027 29.5801L56.0989 35.9069L55.6244 51.8135L49.4282 45.4866L49.9027 29.5801Z"></path>
<path fill="black" d="M55.6246 52.6732C55.3976 52.6732 55.1775 52.5838 55.0125 52.4118L48.8163 46.085C48.6513 45.9199 48.5619 45.693 48.5687 45.4592L49.0432 29.5526C49.0501 29.2088 49.2702 28.9062 49.5865 28.7755C49.9029 28.6517 50.2742 28.7274 50.5149 28.9749L56.7111 35.3018C56.8762 35.4669 56.9656 35.6938 56.9587 35.9276L56.4842 51.8342C56.4773 52.178 56.2572 52.4806 55.9409 52.6113C55.8377 52.6525 55.7346 52.6732 55.6246 52.6732ZM50.3017 45.1497L54.8268 49.7711L55.2326 36.2508L50.7075 31.6295L50.3017 45.1497Z"></path>
<path fill="#FFF5D0" d="M55.6247 51.8134L39.4912 53.5946L33.2881 47.2677L49.4285 45.4866L55.6247 51.8134Z"></path>
<path fill="black" d="M39.4912 54.4542C39.2643 54.4542 39.0373 54.3648 38.8792 54.1928L32.6761 47.866C32.4492 47.6322 32.3666 47.2883 32.4835 46.9788C32.6005 46.6694 32.8687 46.4493 33.1988 46.4149L49.3391 44.6338C49.5936 44.6063 49.8618 44.6957 50.0475 44.8882L56.2437 51.2151C56.4706 51.4489 56.5531 51.7928 56.4362 52.1022C56.3262 52.4117 56.0511 52.6318 55.721 52.6661L39.5875 54.4473C39.5875 54.4473 39.5256 54.4473 39.4912 54.4473V54.4542ZM35.1381 47.9279L39.8076 52.6937L53.7679 51.1532L49.0984 46.3874L35.1312 47.9279H35.1381Z"></path>
</svg>
