<svg xmlns="http://www.w3.org/2000/svg" fill="none" viewBox="0 0 40 41" height="41" width="40">
<g clip-path="url(#clip0_2250_8184)">
<path fill="#231F20" d="M20.0036 40.6968C31.0512 40.6968 40.0071 31.7409 40.0071 20.6933C40.0071 9.6456 31.0512 0.689697 20.0036 0.689697C8.9559 0.689697 0 9.6456 0 20.6933C0 31.7409 8.9559 40.6968 20.0036 40.6968Z"></path>
<path fill="white" d="M34.1006 21.1914C33.7732 20.921 33.4032 20.7289 33.0189 20.6221C33.2395 20.4229 33.453 20.2165 33.6451 19.9817C35.7942 17.3985 35.4384 13.5629 32.8552 11.4138C30.4713 9.42841 27.02 9.58496 24.814 11.6487C25.7248 9.75575 25.2765 7.42165 23.59 6.01976C21.5975 4.36169 18.6442 4.63211 16.9862 6.62464C16.4525 7.26509 16.118 8.01229 15.9828 8.78083C15.6768 8.20443 15.079 7.81304 14.3888 7.81304C13.3854 7.81304 12.5742 8.62428 12.5742 9.62766C12.5742 10.0404 12.7165 10.4176 12.9513 10.7235C10.6172 9.89807 7.92018 10.5528 6.24788 12.5666C4.09879 15.1498 4.4546 18.9854 7.03777 21.1345C7.16586 21.2412 7.29395 21.3338 7.42916 21.4263C7.37223 21.4903 7.30819 21.5472 7.25126 21.6184C5.10217 24.2016 5.45798 28.0372 8.04115 30.1863C9.7775 31.6309 12.076 31.9369 14.0472 31.211C13.7056 31.5597 13.4921 32.0294 13.4921 32.556C13.4921 33.6163 14.3461 34.4702 15.4064 34.4702C16.3244 34.4702 17.0929 33.8226 17.2779 32.9545C17.6907 33.5878 18.203 34.1713 18.815 34.6837C22.0814 37.4021 26.9417 36.9538 29.6601 33.6874C31.4534 31.5312 31.859 28.6848 30.9979 26.2155C32.1863 26.7421 33.6238 26.4574 34.4991 25.4042C35.5523 24.1375 35.3815 22.2517 34.1148 21.1986L34.1006 21.1914ZM17.8045 23.8315C17.8045 23.8315 17.7832 23.86 17.7761 23.8742C17.7618 23.8173 17.7405 23.7533 17.7191 23.6963C17.769 23.7248 17.8188 23.739 17.8686 23.7675C17.8472 23.7888 17.8259 23.8102 17.8045 23.8387V23.8315ZM25.917 21.348C25.917 21.348 25.9597 21.3765 25.981 21.3907C25.9526 21.3836 25.9312 21.3765 25.9027 21.3693C25.9027 21.3693 25.9099 21.3551 25.917 21.348Z"></path>
<path stroke-linejoin="round" stroke-linecap="round" stroke-width="3" stroke="#231F20" d="M10.7241 15.0572L17.392 13.7976L12.9799 22.4224L19.4485 20.4014"></path>
<path stroke-linejoin="round" stroke-linecap="round" stroke-width="3" stroke="#231F20" d="M23.149 17.1636L28.8632 17.7471L22.9497 22.9134L28.0449 23.6891"></path>
<path stroke-linejoin="round" stroke-linecap="round" stroke-width="3" stroke="#231F20" d="M18.5374 25.9451L21.8535 26.2368L18.146 29.7665L21.7397 30.2219"></path>
<path stroke-linejoin="round" stroke-linecap="round" stroke-width="1.5" stroke="#231F20" d="M8.09799 24.4578C8.03394 24.7282 7.73506 26.1443 8.61035 27.4821C9.74894 29.2327 11.8411 29.2541 11.9905 29.2469"></path>
</g>
<defs>
<clipPath id="clip0_2250_8184">
<rect transform="translate(0 0.689697)" fill="white" height="40" width="40"></rect>
</clipPath>
</defs>
</svg>
