<svg xmlns="http://www.w3.org/2000/svg" fill="none" viewBox="0 0 68 69" height="69" width="68">
<g clip-path="url(#clip0_2250_6464)">
<path fill="black" d="M34 68.6897C15.2532 68.6897 0 53.4365 0 34.6897C0 15.9429 15.2532 0.689697 34 0.689697C52.7468 0.689697 68 15.9429 68 34.6897C68 53.4365 52.7468 68.6897 34 68.6897ZM34 2.40895C16.2023 2.40895 1.71926 16.892 1.71926 34.6897C1.71926 52.4874 16.2023 66.9704 34 66.9704C51.7977 66.9704 66.2807 52.4874 66.2807 34.6897C66.2807 16.892 51.7977 2.40895 34 2.40895Z"></path>
<path fill="black" d="M10.5977 58.9449C10.3776 58.9449 10.1575 58.8624 9.99248 58.6905C9.6555 58.3535 9.6555 57.8102 9.99248 57.4732L21.2364 46.2293C21.5734 45.8923 22.1167 45.8923 22.4536 46.2293C22.7906 46.5663 22.7906 47.1095 22.4536 47.4465L11.2097 58.6905C11.0447 58.8555 10.8246 58.9449 10.6045 58.9449H10.5977Z"></path>
<path fill="black" d="M46.0278 23.5145C45.8078 23.5145 45.5877 23.432 45.4227 23.26C45.0857 22.9231 45.0857 22.3798 45.4227 22.0428L56.6666 10.7989C57.0036 10.4619 57.5468 10.4619 57.8838 10.7989C58.2208 11.1358 58.2208 11.6791 57.8838 12.0161L46.6399 23.26C46.4748 23.4251 46.2548 23.5145 46.0347 23.5145H46.0278Z"></path>
<path fill="#FFF5D0" d="M25.1632 18.4323C28.8768 22.1459 27.02 27.7094 27.02 27.7094C27.02 27.7094 21.4496 29.5662 17.7429 25.8527C14.0293 22.1391 14.0293 14.7188 14.0293 14.7188C14.0293 14.7188 21.4496 14.7187 25.1632 18.4323Z"></path>
<path fill="black" d="M23.76 29.0436C21.7382 29.0436 19.1937 28.5278 17.1375 26.4647C13.2176 22.5448 13.1694 15.0419 13.1694 14.7256C13.1694 14.2511 13.5545 13.866 14.0291 13.866C14.3454 13.866 21.8482 13.9141 25.7681 17.834C29.8118 21.8777 27.9138 27.7438 27.8312 27.9914C27.7487 28.2458 27.5424 28.4521 27.288 28.5347C27.1642 28.5759 25.6994 29.0504 23.7532 29.0504L23.76 29.0436ZM14.93 15.6196C15.0675 17.6415 15.6727 22.5654 18.3547 25.2474C21.0849 27.9845 25.0323 27.3243 26.3252 27.0148C26.6346 25.722 27.288 21.7677 24.5578 19.0444C21.8689 16.3554 16.9449 15.7571 14.93 15.6196Z"></path>
<path fill="#FFF5D0" d="M25.218 29.188C30.4651 29.188 33.0922 34.4352 33.0922 34.4352C33.0922 34.4352 30.4651 39.6823 25.218 39.6823C19.9708 39.6823 14.7236 34.4352 14.7236 34.4352C14.7236 34.4352 19.9708 29.188 25.218 29.188Z"></path>
<path fill="black" d="M25.218 40.542C19.6751 40.542 14.3385 35.2673 14.1185 35.0404C13.7815 34.7034 13.7815 34.1601 14.1185 33.8232C14.3454 33.5962 19.682 28.3215 25.218 28.3215C30.754 28.3215 33.7455 33.8094 33.8624 34.0432C33.9862 34.2839 33.9862 34.5727 33.8624 34.8134C33.7455 35.0473 30.9328 40.5351 25.218 40.5351V40.542ZM15.9959 34.4352C17.5226 35.7693 21.4287 38.8227 25.218 38.8227C29.0072 38.8227 31.4073 35.5699 32.1019 34.4352C31.4073 33.3005 29.0691 30.0477 25.218 30.0477C21.3668 30.0477 17.5157 33.1011 15.9959 34.4352Z"></path>
<path fill="#FFF5D0" d="M28.4985 25.9077C28.4985 31.1548 33.7457 33.7819 33.7457 33.7819C33.7457 33.7819 38.9929 31.1548 38.9929 25.9077C38.9929 20.6605 33.7457 15.4133 33.7457 15.4133C33.7457 15.4133 28.4985 20.6605 28.4985 25.9077Z"></path>
<path fill="black" d="M33.7455 34.6415C33.6148 34.6415 33.4841 34.614 33.3604 34.5521C33.1265 34.4352 27.6387 31.6225 27.6387 25.9077C27.6387 20.1929 32.9133 15.0282 33.1403 14.8082C33.4773 14.4712 34.0205 14.4712 34.3575 14.8082C34.5845 15.0351 39.8591 20.3717 39.8591 25.9077C39.8591 31.4437 34.3713 34.4352 34.1375 34.5521C34.0137 34.614 33.883 34.6415 33.7523 34.6415H33.7455ZM33.7455 16.6856C32.4113 18.2123 29.3579 22.1184 29.3579 25.9077C29.3579 29.6969 32.6108 32.0901 33.7455 32.7916C34.8802 32.0901 38.133 29.7519 38.133 25.9077C38.133 22.0634 35.0796 18.2054 33.7455 16.6856Z"></path>
<path fill="#FFF5D0" d="M33.5739 37.5435C38.8211 37.5435 41.4481 42.7906 41.4481 42.7906C41.4481 42.7906 38.8211 48.0378 33.5739 48.0378C28.3268 48.0378 23.0796 42.7906 23.0796 42.7906C23.0796 42.7906 28.3268 37.5435 33.5739 37.5435Z"></path>
<path fill="black" d="M33.5737 48.8974C28.0308 48.8974 22.6942 43.6228 22.4742 43.3958C22.316 43.2376 22.2197 43.0176 22.2197 42.7906C22.2197 42.5637 22.3091 42.3436 22.4742 42.1855C22.7011 41.9585 28.0377 36.6838 33.5737 36.6838C39.1097 36.6838 42.1012 42.1717 42.2181 42.4055C42.3419 42.6462 42.3419 42.9351 42.2181 43.1757C42.1012 43.4096 39.2885 48.8974 33.5737 48.8974ZM24.3516 42.7906C25.8783 44.1248 29.7845 47.1782 33.5737 47.1782C37.3629 47.1782 39.763 43.9253 40.4576 42.7906C39.763 41.6559 37.4248 38.4031 33.5737 38.4031C29.7226 38.4031 25.8714 41.4565 24.3516 42.7906Z"></path>
<path fill="#FFF5D0" d="M36.854 34.2634C36.854 39.5105 42.1012 42.1376 42.1012 42.1376C42.1012 42.1376 47.3483 39.5105 47.3483 34.2634C47.3483 29.0162 42.1012 23.769 42.1012 23.769C42.1012 23.769 36.854 29.0162 36.854 34.2634Z"></path>
<path fill="black" d="M42.1009 42.9971C41.9703 42.9971 41.8396 42.9696 41.7158 42.9077C41.482 42.7908 35.9941 39.9781 35.9941 34.2633C35.9941 28.5485 41.2688 23.3839 41.4958 23.1638C41.819 22.8406 42.3898 22.8406 42.713 23.1638C42.9399 23.3907 48.2146 28.7273 48.2146 34.2633C48.2146 39.7993 42.7267 42.7908 42.4929 42.9077C42.3691 42.9696 42.2385 42.9971 42.1078 42.9971H42.1009ZM42.1009 25.0412C40.7668 26.5679 37.7134 30.4741 37.7134 34.2633C37.7134 38.0526 40.9662 40.4526 42.1009 41.1472C43.2356 40.4526 46.4885 38.1144 46.4885 34.2633C46.4885 30.4122 43.4351 26.5611 42.1009 25.0412Z"></path>
<path fill="#FFF5D0" d="M41.9226 45.8923C47.1697 45.8923 49.7968 51.1395 49.7968 51.1395C49.7968 51.1395 47.1697 56.3867 41.9226 56.3867C36.6754 56.3867 31.4282 51.1395 31.4282 51.1395C31.4282 51.1395 36.6754 45.8923 41.9226 45.8923Z"></path>
<path fill="black" d="M41.9223 57.2463C36.3863 57.2463 31.0429 51.9716 30.8228 51.7447C30.6646 51.5865 30.5684 51.3665 30.5684 51.1395C30.5684 50.9126 30.6578 50.6925 30.8228 50.5343C31.0498 50.3074 36.3863 45.0327 41.9223 45.0327C47.4583 45.0327 50.4498 50.5206 50.5667 50.7544C50.6905 50.9951 50.6905 51.2839 50.5667 51.5246C50.4498 51.7584 47.6371 57.2463 41.9223 57.2463ZM32.7002 51.1395C34.2269 52.4737 38.1331 55.527 41.9223 55.527C45.7116 55.527 48.1048 52.2742 48.8062 51.1395C48.1048 50.0048 45.7666 46.752 41.9223 46.752C38.0781 46.752 34.2201 49.8054 32.7002 51.1395Z"></path>
<path fill="#FFF5D0" d="M45.2026 42.612C45.2026 47.8592 50.4498 50.4862 50.4498 50.4862C50.4498 50.4862 55.697 47.8592 55.697 42.612C55.697 37.3648 50.4498 32.1177 50.4498 32.1177C50.4498 32.1177 45.2026 37.3648 45.2026 42.612Z"></path>
<path fill="black" d="M50.4496 51.3458C50.3189 51.3458 50.1882 51.3183 50.0645 51.2564C49.8306 51.1395 44.3428 48.3268 44.3428 42.6119C44.3428 36.8971 49.6175 31.7325 49.8444 31.5124C50.1676 31.1892 50.7384 31.1892 51.0616 31.5124C51.2886 31.7394 56.5632 37.0759 56.5632 42.6119C56.5632 48.148 51.0754 51.1395 50.8416 51.2564C50.7178 51.3183 50.5871 51.3458 50.4564 51.3458H50.4496ZM50.4496 33.3899C49.1154 34.9166 46.062 38.8227 46.062 42.6119C46.062 46.4012 49.3149 48.7944 50.4496 49.4959C51.5843 48.7944 54.8371 46.4562 54.8371 42.6119C54.8371 38.7677 51.7837 34.9097 50.4496 33.3899Z"></path>
<path fill="#FFF5D0" d="M25.1632 18.4323C28.8768 22.1459 27.02 27.7094 27.02 27.7094C27.02 27.7094 21.4496 29.5662 17.7429 25.8527C14.0293 22.1391 14.0293 14.7188 14.0293 14.7188C14.0293 14.7188 21.4496 14.7187 25.1632 18.4323Z"></path>
<path fill="black" d="M23.76 29.0436C21.7382 29.0436 19.1937 28.5278 17.1375 26.4647C13.2176 22.5448 13.1694 15.0419 13.1694 14.7256C13.1694 14.2511 13.5545 13.866 14.0291 13.866C14.3454 13.866 21.8482 13.9141 25.7681 17.834C29.8118 21.8777 27.9138 27.7438 27.8312 27.9914C27.7487 28.2458 27.5424 28.4521 27.288 28.5347C27.1642 28.5759 25.6994 29.0504 23.7532 29.0504L23.76 29.0436ZM14.93 15.6196C15.0675 17.6415 15.6727 22.5654 18.3547 25.2474C21.0849 27.9845 25.0323 27.3243 26.3252 27.0148C26.6346 25.722 27.288 21.7677 24.5578 19.0444C21.8689 16.3554 16.9449 15.7571 14.93 15.6196Z"></path>
<path fill="black" d="M53.9294 55.4788C53.7093 55.4788 53.4893 55.3963 53.3242 55.2243L49.6106 51.5107C49.2737 51.1738 49.2737 50.6305 49.6106 50.2935C49.9476 49.9565 50.4909 49.9565 50.8279 50.2935L54.5415 54.0071C54.8784 54.3441 54.8784 54.8874 54.5415 55.2243C54.3764 55.3894 54.1564 55.4788 53.9363 55.4788H53.9294Z"></path>
</g>
<defs>
<clipPath id="clip0_2250_6464">
<rect transform="translate(0 0.689697)" fill="white" height="68" width="68"></rect>
</clipPath>
</defs>
</svg>
