<?xml version="1.0" encoding="UTF-8"?>
<svg version="1.1" xmlns="http://www.w3.org/2000/svg" width="120" height="120">
<path d="M0 0 C0.94372971 -0.01182816 1.88745941 -0.02365631 2.85978699 -0.0358429 C5.97601647 -0.06870924 9.09137232 -0.07168684 12.20776367 -0.0715332 C14.3786403 -0.08184957 16.5495135 -0.09291285 18.72038269 -0.10469055 C23.27071096 -0.12412395 27.82073189 -0.1275441 32.37109375 -0.12109375 C38.19217159 -0.11510154 44.01165265 -0.15930535 49.83240223 -0.21698284 C54.31670814 -0.25402045 58.80063071 -0.25888166 63.28507042 -0.25470924 C65.43043103 -0.2575766 67.5758077 -0.27161519 69.72101784 -0.2971859 C72.72785985 -0.32925711 75.73142869 -0.31656561 78.73828125 -0.29296875 C79.61803619 -0.3118515 80.49779114 -0.33073425 81.40420532 -0.35018921 C87.57537292 -0.23543663 90.63661512 1.60633165 95.06098461 5.86879253 C97.96088858 9.14346985 97.95568028 12.00933177 97.91479492 16.2409668 C97.31323012 20.21797857 95.47846675 21.8487172 92.56323242 24.56518555 C89.74269427 26.25213602 87.6746424 26.81718876 84.40213013 26.83261108 C83.58071533 26.84114105 82.75930054 26.84967102 81.91299438 26.85845947 C81.02042938 26.8575531 80.12786438 26.85664673 79.20825195 26.85571289 C78.26145569 26.86243011 77.31465942 26.86914734 76.33917236 26.87606812 C73.20807655 26.8950719 70.07719482 26.89897351 66.94604492 26.90112305 C64.76895052 26.90754925 62.59185698 26.91427748 60.4147644 26.92129517 C55.85013832 26.93327385 51.28558796 26.93697537 46.72094727 26.93579102 C40.87430186 26.93558778 35.02814228 26.96289229 29.18161201 26.99733543 C24.68457818 27.01958184 20.18766169 27.02362925 15.69057846 27.02257156 C13.53521932 27.02493083 11.37985711 27.03377263 9.22455215 27.0492363 C6.20835679 27.06885035 3.19321457 27.06307592 0.17700195 27.05102539 C-1.15577286 27.06788391 -1.15577286 27.06788391 -2.51547241 27.08508301 C-7.97961467 27.02965913 -11.10235831 26.20686733 -15.43676758 22.56518555 C-17.80978925 19.63845882 -18.39643384 17.8820935 -18.87426758 14.12768555 C-18.23461793 8.9191098 -15.94601719 6.13740135 -12.3820343 2.42472839 C-8.23679271 -0.19243843 -4.81154556 -0.01837971 0 0 Z " fill="#F6EE00" transform="translate(20.436767578125,12.434814453125)"/>
<path d="M0 0 C0.92597488 -0.00686325 1.85194977 -0.0137265 2.8059845 -0.02079773 C5.85657227 -0.03904827 8.90664491 -0.03523066 11.95727539 -0.02954102 C14.08427599 -0.03410364 16.21127511 -0.03940945 18.33827209 -0.04542542 C22.79263301 -0.0543531 27.24681459 -0.0519372 31.70117188 -0.04199219 C37.40196415 -0.03050296 43.10213696 -0.05071541 48.80284786 -0.07990932 C53.19442154 -0.0982784 57.58584696 -0.09797742 61.97744942 -0.0922718 C64.07894319 -0.09211868 66.18044707 -0.09815584 68.28190422 -0.11056328 C71.22348475 -0.12548455 74.16392331 -0.1147875 77.10546875 -0.09765625 C78.4000853 -0.1121582 78.4000853 -0.1121582 79.72085571 -0.12695312 C85.49944225 -0.05668396 88.85750991 1.08681077 93.61743164 4.40405273 C96.56119763 7.82261969 97.1564381 10.89616985 96.96899414 15.41186523 C96.21951736 19.6589003 93.85027994 22.41913157 90.56369019 25.04478455 C86.40282437 26.96441666 82.69705973 26.8467875 78.16479492 26.83984375 C77.21945892 26.84991959 76.27412292 26.85999542 75.30014038 26.87037659 C72.1792209 26.89884232 69.05878531 26.90473243 65.93774414 26.90795898 C63.76447349 26.91760087 61.59120479 26.9276934 59.41793823 26.93821716 C54.86345913 26.95617496 50.30915068 26.96173852 45.75463867 26.95996094 C39.92468393 26.95965608 34.09582539 27.00061617 28.26613045 27.05227757 C23.77760818 27.08566863 19.28935015 27.09171767 14.8007164 27.09013176 C12.65174454 27.09366732 10.50276551 27.10691155 8.35391617 27.13012886 C5.34478694 27.15959806 2.33802659 27.15087384 -0.67114258 27.1328125 C-1.99616791 27.15810028 -1.99616791 27.15810028 -3.34796143 27.18389893 C-8.97544719 27.09827057 -11.91754578 25.88691407 -15.99742317 21.98390102 C-19.0487154 18.50370354 -19.83123143 16.09609721 -19.69506836 11.46655273 C-19.16886745 7.99362672 -17.67664954 5.99998671 -15.38256836 3.40405273 C-10.23244131 0.10190433 -5.91469618 -0.03077774 0 0 Z " fill="#F9F100" transform="translate(21.382568359375,80.595947265625)"/>
<path d="M0 0 C0.91899582 -0.0049649 1.83799164 -0.00992981 2.78483582 -0.01504517 C5.82873276 -0.02966503 8.8725776 -0.03646822 11.91650391 -0.04199219 C14.03016156 -0.04774341 16.14381919 -0.05350115 18.25747681 -0.05926514 C22.69102217 -0.06977437 27.1245494 -0.07561767 31.55810547 -0.07910156 C37.23999524 -0.08458866 42.92164565 -0.10862173 48.60346031 -0.13707352 C52.97004905 -0.15569303 57.33658002 -0.16090512 61.70320511 -0.16243744 C63.79798314 -0.16546562 65.89276012 -0.17349969 67.98749924 -0.18662262 C70.91763302 -0.20366991 73.84718055 -0.2018061 76.77734375 -0.1953125 C77.6429744 -0.20452728 78.50860504 -0.21374207 79.40046692 -0.22323608 C85.89146257 -0.17815548 89.07092938 1.30053521 93.83056641 5.84863281 C96.16929307 9.3901332 96.72745677 11.08481772 96.43603516 15.20410156 C95.71685139 18.5714947 94.27683168 20.60516159 92.01806641 23.16113281 C86.85808483 26.47416238 82.53062458 26.59077022 76.60375977 26.54931641 C75.6745723 26.55457336 74.74538483 26.55983032 73.78804016 26.56524658 C70.72782401 26.57841118 67.66813127 26.56972164 64.60791016 26.55957031 C62.47611898 26.56159189 60.34432848 26.56450403 58.21253967 26.56826782 C53.74978028 26.57268624 49.28720128 26.56627489 44.82446289 26.55224609 C39.10562522 26.53514425 33.38720964 26.54500496 27.66838741 26.56296349 C23.26832398 26.5738054 18.86836059 26.57035325 14.46829414 26.56258011 C12.35957349 26.56057978 10.25084374 26.56303151 8.14213371 26.57001877 C5.1955039 26.57764096 2.24955746 26.56601843 -0.69702148 26.54931641 C-1.56728973 26.5553891 -2.43755798 26.56146179 -3.334198 26.56771851 C-9.85504843 26.49927481 -13.05836251 25.04195787 -17.79443359 20.41113281 C-20.41799097 16.51327614 -20.7227138 14.77043189 -19.98193359 10.16113281 C-15.11926279 1.13045846 -9.70470706 0.01247413 0 0 Z " fill="#F8F000" transform="translate(21.98193359375,46.8388671875)"/>
<path d="M0 0 C0.92597488 -0.00686325 1.85194977 -0.0137265 2.8059845 -0.02079773 C5.85657227 -0.03904827 8.90664491 -0.03523066 11.95727539 -0.02954102 C14.08427599 -0.03410364 16.21127511 -0.03940945 18.33827209 -0.04542542 C22.79263301 -0.0543531 27.24681459 -0.0519372 31.70117188 -0.04199219 C37.40196415 -0.03050296 43.10213696 -0.05071541 48.80284786 -0.07990932 C53.19442154 -0.0982784 57.58584696 -0.09797742 61.97744942 -0.0922718 C64.07894319 -0.09211868 66.18044707 -0.09815584 68.28190422 -0.11056328 C71.22348475 -0.12548455 74.16392331 -0.1147875 77.10546875 -0.09765625 C78.4000853 -0.1121582 78.4000853 -0.1121582 79.72085571 -0.12695312 C85.49944225 -0.05668396 88.85750991 1.08681077 93.61743164 4.40405273 C96.56119763 7.82261969 97.1564381 10.89616985 96.96899414 15.41186523 C96.21951736 19.6589003 93.85027994 22.41913157 90.56369019 25.04478455 C86.40282437 26.96441666 82.69705973 26.8467875 78.16479492 26.83984375 C77.21945892 26.84991959 76.27412292 26.85999542 75.30014038 26.87037659 C72.1792209 26.89884232 69.05878531 26.90473243 65.93774414 26.90795898 C63.76447349 26.91760087 61.59120479 26.9276934 59.41793823 26.93821716 C54.86345913 26.95617496 50.30915068 26.96173852 45.75463867 26.95996094 C39.92468393 26.95965608 34.09582539 27.00061617 28.26613045 27.05227757 C23.77760818 27.08566863 19.28935015 27.09171767 14.8007164 27.09013176 C12.65174454 27.09366732 10.50276551 27.10691155 8.35391617 27.13012886 C5.34478694 27.15959806 2.33802659 27.15087384 -0.67114258 27.1328125 C-1.99616791 27.15810028 -1.99616791 27.15810028 -3.34796143 27.18389893 C-8.97544719 27.09827057 -11.91754578 25.88691407 -15.99742317 21.98390102 C-19.0487154 18.50370354 -19.83123143 16.09609721 -19.69506836 11.46655273 C-19.16886745 7.99362672 -17.67664954 5.99998671 -15.38256836 3.40405273 C-10.23244131 0.10190433 -5.91469618 -0.03077774 0 0 Z M-15.38256836 9.40405273 C-15.71256836 9.73405273 -16.04256836 10.06405273 -16.38256836 10.40405273 C-16.30001638 14.61420353 -15.74375976 17.4888128 -12.91236877 20.59579468 C-8.94537665 24.34217524 -5.21852845 24.24112492 0.03173828 24.14868164 C1.42551949 24.15963364 1.42551949 24.15963364 2.84745789 24.17080688 C5.90825303 24.18697367 8.96691545 24.15984306 12.02758789 24.13061523 C14.15937804 24.12957754 16.29117012 24.13061484 18.42295837 24.13363647 C22.8859421 24.13345724 27.3482017 24.11264099 31.81103516 24.07641602 C37.53003552 24.03101339 43.24797958 24.02996011 48.96711063 24.04345131 C53.36723715 24.05013539 57.76712304 24.03686298 62.1672039 24.01719284 C64.27591124 24.00949833 66.38464535 24.00718849 68.49336433 24.01036453 C71.44026797 24.01110671 74.38581922 23.98584663 77.33251953 23.95336914 C78.63792191 23.96080139 78.63792191 23.96080139 79.96969604 23.96838379 C83.9846455 23.89779689 86.09775563 23.72880899 89.57273865 21.55722046 C92.0837301 18.91301628 93.51458905 17.19251262 93.99243164 13.52905273 C93.53120893 9.68553016 92.28303056 8.14805162 89.61743164 5.40405273 C86.18805811 3.68936597 82.24882443 4.22902437 78.47363281 4.21118164 C77.52552231 4.20300415 76.5774118 4.19482666 75.60057068 4.18640137 C72.45385373 4.16152927 69.30718192 4.14502731 66.16040039 4.13061523 C65.08728418 4.12529156 64.01416798 4.11996788 62.9085331 4.11448288 C57.22939391 4.08774431 51.55027676 4.06837104 45.87109375 4.05395508 C39.99957307 4.03729915 34.12861281 3.99251505 28.25730419 3.94158363 C23.74745525 3.90796022 19.23774016 3.89638303 14.72777748 3.890728 C12.563192 3.88400272 10.39861571 3.86874775 8.23415184 3.84483719 C5.20543853 3.81328663 2.17824795 3.81313385 -0.85058594 3.82055664 C-1.74583984 3.80415131 -2.64109375 3.78774597 -3.56347656 3.77084351 C-9.25014711 3.82793519 -11.71781312 4.69715965 -15.38256836 9.40405273 Z " fill="#0F0E00" transform="translate(21.382568359375,80.595947265625)"/>
<path d="M0 0 C0.91899582 -0.0049649 1.83799164 -0.00992981 2.78483582 -0.01504517 C5.82873276 -0.02966503 8.8725776 -0.03646822 11.91650391 -0.04199219 C14.03016156 -0.04774341 16.14381919 -0.05350115 18.25747681 -0.05926514 C22.69102217 -0.06977437 27.1245494 -0.07561767 31.55810547 -0.07910156 C37.23999524 -0.08458866 42.92164565 -0.10862173 48.60346031 -0.13707352 C52.97004905 -0.15569303 57.33658002 -0.16090512 61.70320511 -0.16243744 C63.79798314 -0.16546562 65.89276012 -0.17349969 67.98749924 -0.18662262 C70.91763302 -0.20366991 73.84718055 -0.2018061 76.77734375 -0.1953125 C77.6429744 -0.20452728 78.50860504 -0.21374207 79.40046692 -0.22323608 C85.89146257 -0.17815548 89.07092938 1.30053521 93.83056641 5.84863281 C96.16929307 9.3901332 96.72745677 11.08481772 96.43603516 15.20410156 C95.71685139 18.5714947 94.27683168 20.60516159 92.01806641 23.16113281 C86.85808483 26.47416238 82.53062458 26.59077022 76.60375977 26.54931641 C75.6745723 26.55457336 74.74538483 26.55983032 73.78804016 26.56524658 C70.72782401 26.57841118 67.66813127 26.56972164 64.60791016 26.55957031 C62.47611898 26.56159189 60.34432848 26.56450403 58.21253967 26.56826782 C53.74978028 26.57268624 49.28720128 26.56627489 44.82446289 26.55224609 C39.10562522 26.53514425 33.38720964 26.54500496 27.66838741 26.56296349 C23.26832398 26.5738054 18.86836059 26.57035325 14.46829414 26.56258011 C12.35957349 26.56057978 10.25084374 26.56303151 8.14213371 26.57001877 C5.1955039 26.57764096 2.24955746 26.56601843 -0.69702148 26.54931641 C-1.56728973 26.5553891 -2.43755798 26.56146179 -3.334198 26.56771851 C-9.85504843 26.49927481 -13.05836251 25.04195787 -17.79443359 20.41113281 C-20.41799097 16.51327614 -20.7227138 14.77043189 -19.98193359 10.16113281 C-15.11926279 1.13045846 -9.70470706 0.01247413 0 0 Z M-16.98193359 11.16113281 C-17.81619144 13.74938989 -17.81619144 13.74938989 -16.98193359 16.16113281 C-14.72503552 19.62708343 -12.7813589 21.59057949 -8.98193359 23.16113281 C-7.02387814 23.46197852 -7.02387814 23.46197852 -4.97268677 23.42855835 C-3.7910495 23.4413533 -3.7910495 23.4413533 -2.58554077 23.45440674 C-1.73037872 23.45350037 -0.87521667 23.45259399 0.00585938 23.45166016 C0.91364136 23.45837738 1.82142334 23.4650946 2.75671387 23.47201538 C5.75794955 23.49101475 8.75896183 23.49492055 11.76025391 23.49707031 C13.84766736 23.50349684 15.9350799 23.51022509 18.02249146 23.51724243 C22.39880461 23.52922002 26.7750388 23.53292275 31.15136719 23.53173828 C36.75588464 23.53153506 42.35989521 23.55883891 47.96429253 23.5932827 C52.27603475 23.6155329 56.58765463 23.6195764 60.89944839 23.61851883 C62.96549349 23.62087755 65.03154182 23.6297163 67.09753036 23.64518356 C69.98920825 23.66480536 72.87978836 23.65902032 75.77148438 23.64697266 C77.04815475 23.66383118 77.04815475 23.66383118 78.35061646 23.68103027 C83.70576815 23.62440768 86.78643006 22.74491503 91.01806641 19.16113281 C93.36356315 15.6428877 93.59798043 14.30337587 93.01806641 10.16113281 C90.6845744 7.32702127 90.6845744 7.32702127 88.01806641 5.16113281 C87.52306641 4.66613281 87.52306641 4.66613281 87.01806641 4.16113281 C84.00633989 4.02850313 81.01699474 3.96121462 78.00366211 3.93652344 C77.05730392 3.92513336 76.11094574 3.91374329 75.13591003 3.90200806 C65.22505384 3.79130078 55.31344408 3.7439129 45.40209961 3.70117188 C40.69632533 3.67889082 35.99134337 3.63711783 31.28588867 3.578125 C25.61122689 3.50711217 19.93731132 3.47035028 14.26222801 3.45805359 C12.09842039 3.44763903 9.93463596 3.42518196 7.77108192 3.39045715 C4.73964921 3.34432183 1.71114856 3.34224272 -1.32055664 3.35058594 C-2.21378632 3.32699005 -3.10701599 3.30339417 -4.02731323 3.27908325 C-10.57347157 3.36622845 -13.6558656 5.50195836 -16.98193359 11.16113281 Z " fill="#0A0900" transform="translate(21.98193359375,46.8388671875)"/>
<path d="M0 0 C0.94372971 -0.01182816 1.88745941 -0.02365631 2.85978699 -0.0358429 C5.97601647 -0.06870924 9.09137232 -0.07168684 12.20776367 -0.0715332 C14.3786403 -0.08184957 16.5495135 -0.09291285 18.72038269 -0.10469055 C23.27071096 -0.12412395 27.82073189 -0.1275441 32.37109375 -0.12109375 C38.19217159 -0.11510154 44.01165265 -0.15930535 49.83240223 -0.21698284 C54.31670814 -0.25402045 58.80063071 -0.25888166 63.28507042 -0.25470924 C65.43043103 -0.2575766 67.5758077 -0.27161519 69.72101784 -0.2971859 C72.72785985 -0.32925711 75.73142869 -0.31656561 78.73828125 -0.29296875 C79.61803619 -0.3118515 80.49779114 -0.33073425 81.40420532 -0.35018921 C87.57537292 -0.23543663 90.63661512 1.60633165 95.06098461 5.86879253 C97.96088858 9.14346985 97.95568028 12.00933177 97.91479492 16.2409668 C97.31323012 20.21797857 95.47846675 21.8487172 92.56323242 24.56518555 C89.74269427 26.25213602 87.6746424 26.81718876 84.40213013 26.83261108 C83.58071533 26.84114105 82.75930054 26.84967102 81.91299438 26.85845947 C81.02042938 26.8575531 80.12786438 26.85664673 79.20825195 26.85571289 C78.26145569 26.86243011 77.31465942 26.86914734 76.33917236 26.87606812 C73.20807655 26.8950719 70.07719482 26.89897351 66.94604492 26.90112305 C64.76895052 26.90754925 62.59185698 26.91427748 60.4147644 26.92129517 C55.85013832 26.93327385 51.28558796 26.93697537 46.72094727 26.93579102 C40.87430186 26.93558778 35.02814228 26.96289229 29.18161201 26.99733543 C24.68457818 27.01958184 20.18766169 27.02362925 15.69057846 27.02257156 C13.53521932 27.02493083 11.37985711 27.03377263 9.22455215 27.0492363 C6.20835679 27.06885035 3.19321457 27.06307592 0.17700195 27.05102539 C-1.15577286 27.06788391 -1.15577286 27.06788391 -2.51547241 27.08508301 C-7.97961467 27.02965913 -11.10235831 26.20686733 -15.43676758 22.56518555 C-17.80978925 19.63845882 -18.39643384 17.8820935 -18.87426758 14.12768555 C-18.23461793 8.9191098 -15.94601719 6.13740135 -12.3820343 2.42472839 C-8.23679271 -0.19243843 -4.81154556 -0.01837971 0 0 Z M-14.6502533 9.36302185 C-15.56371678 11.92063099 -15.66682032 13.86755602 -15.43676758 16.56518555 C-13.73494602 19.50115251 -11.4990616 22.03403854 -8.43676758 23.56518555 C-5.47313422 23.67433091 -2.5326432 23.72252385 0.43164062 23.72631836 C1.35049042 23.73128326 2.26934021 23.73624817 3.21603394 23.74136353 C6.26536805 23.75600615 9.31465013 23.7627909 12.36401367 23.76831055 C14.47910057 23.77406059 16.59418744 23.77981834 18.70927429 23.7855835 C23.14879602 23.79609968 27.5882996 23.8019382 32.02783203 23.80541992 C37.71759757 23.81090374 43.4071237 23.83492688 49.09681416 23.86339188 C53.4676941 23.88201311 57.83851634 23.8872236 62.2094326 23.8887558 C64.3070017 23.89178438 66.40456974 23.89981979 68.50209999 23.91294098 C71.43713216 23.92998935 74.37157907 23.928124 77.30664062 23.92163086 C78.60744316 23.93545303 78.60744316 23.93545303 79.93452454 23.94955444 C85.71503223 23.90948047 89.16886374 22.95955423 93.37573242 18.75268555 C95.09451921 15.58649935 95.33158959 14.12756879 94.56323242 10.56518555 C91.15941461 6.40921159 87.49715587 3.24057648 82.04173279 2.66957092 C80.3768526 2.62549748 78.71069008 2.61883029 77.04541016 2.64355469 C76.12889679 2.62968216 75.21238342 2.61580963 74.26809692 2.60151672 C71.26008041 2.565817 68.25495591 2.58108303 65.24682617 2.6003418 C63.14509858 2.5930802 61.04337685 2.58388964 58.94166565 2.57286072 C54.54603984 2.55806034 50.15140938 2.56896821 45.75585938 2.59765625 C40.13058612 2.63196663 34.5080847 2.59856186 28.88304043 2.54544926 C24.54621565 2.51260608 20.21005042 2.5175355 15.87315559 2.53359795 C13.79956212 2.53641276 11.72591475 2.52713463 9.6524334 2.50538826 C-4.19852189 1.71192445 -4.19852189 1.71192445 -14.6502533 9.36302185 Z " fill="#010100" transform="translate(20.436767578125,12.434814453125)"/>
</svg>
