<svg xmlns="http://www.w3.org/2000/svg" fill="none" viewBox="0 0 40 41" height="41" width="40">
<g clip-path="url(#clip0_2250_7492)">
<path fill="black" d="M20.0036 40.6968C31.0512 40.6968 40.0071 31.7409 40.0071 20.6933C40.0071 9.6456 31.0512 0.689697 20.0036 0.689697C8.9559 0.689697 0 9.6456 0 20.6933C0 31.7409 8.9559 40.6968 20.0036 40.6968Z"></path>
<path fill="white" d="M19.9963 8.57439C20.281 8.57439 20.5514 8.68113 20.7649 8.8875C22.2735 10.3107 24.3799 11.0295 27.0342 11.0295C28.4076 11.0295 29.5747 10.8231 30.1511 10.7021C30.2223 10.6879 30.3077 10.6808 30.3859 10.6808C30.9837 10.6808 31.4605 11.1504 31.4747 11.7553C31.5957 14.922 31.6099 30.9121 20.3664 34.6409C20.224 34.6836 20.1102 34.705 19.9892 34.705C19.8682 34.705 19.7615 34.6907 19.669 34.6623C8.41831 30.9334 8.39696 14.9149 8.51082 11.734C8.52505 11.1433 9.00895 10.6879 9.5996 10.6879C9.67787 10.6879 9.76327 10.695 9.85578 10.7164C10.4251 10.8373 11.5779 11.0366 12.9442 11.0366C15.5985 11.0366 17.712 10.3107 19.2349 8.88038C19.4341 8.68825 19.7046 8.58151 19.9892 8.58151M19.9963 7.57812C19.4555 7.57812 18.936 7.78449 18.5517 8.15453C17.2281 9.40698 15.3423 10.0332 12.9513 10.0332C11.6704 10.0332 10.5816 9.84107 10.0693 9.73432C9.91982 9.69874 9.76327 9.68451 9.60671 9.68451C8.46812 9.68451 7.55014 10.574 7.52167 11.7055C7.40782 15.0003 7.43628 31.6521 19.363 35.6016C19.5694 35.6657 19.7828 35.7012 19.9963 35.7012C20.2098 35.7012 20.4233 35.6657 20.6652 35.5945C32.6062 31.6308 32.5991 15.0003 32.4781 11.7197C32.4496 10.5811 31.5316 9.69163 30.393 9.69163C30.2365 9.69163 30.0871 9.70586 29.9447 9.74144C29.411 9.8553 28.3222 10.0474 27.0413 10.0474C24.6503 10.0474 22.7645 9.4141 21.4551 8.17588C21.0637 7.79873 20.5443 7.59236 20.0034 7.59236L19.9963 7.57812Z"></path>
<path fill="white" d="M30.0726 12.4456C30.0726 12.1895 29.8307 12.0044 29.5745 12.0614C28.0801 12.3816 23.3479 13.1003 20.2879 10.2112C20.1242 10.0546 19.8752 10.0546 19.7115 10.2112C16.6444 13.1003 11.9193 12.3816 10.4249 12.0614C10.1758 12.0044 9.93387 12.1895 9.92675 12.4456C9.82712 15.3206 9.79154 29.8162 19.8609 33.1537C19.9534 33.1822 20.0459 33.1822 20.1385 33.1537C30.2007 29.8162 30.1794 15.3206 30.0726 12.4456ZM24.4437 21.5543C24.4437 21.8105 24.2374 22.024 23.9812 22.024H21.7182V24.2798C21.7182 24.5431 21.5048 24.7495 21.2486 24.7495H18.7437C18.4875 24.7495 18.2811 24.5431 18.2811 24.2798V22.024H16.0182C15.762 22.024 15.5485 21.8105 15.5485 21.5543V19.0495C15.5485 18.7933 15.762 18.5869 16.0182 18.5869H18.2811V16.324C18.2811 16.0678 18.4875 15.8543 18.7437 15.8543H21.2486C21.5048 15.8543 21.7182 16.0678 21.7182 16.324V18.5869H23.9812C24.2374 18.5869 24.4437 18.7933 24.4437 19.0495V21.5543ZM25.7958 26.5214C25.6677 26.7136 25.4614 26.8132 25.2479 26.8132C25.134 26.8132 25.013 26.7847 24.9063 26.7136C24.6074 26.5285 24.522 26.13 24.707 25.8312C25.1909 25.0697 25.5752 24.2371 25.8954 23.3761C26.4576 21.8248 26.785 20.1952 26.9558 18.7648C27.1692 17.1139 27.1835 15.7333 27.1763 15.0573C27.1763 14.7015 27.4539 14.4097 27.8097 14.4026C28.194 14.4168 28.4501 14.6872 28.4573 15.0359C28.4786 16.7082 28.3505 22.4723 25.7958 26.5214Z"></path>
</g>
<defs>
<clipPath id="clip0_2250_7492">
<rect transform="translate(0 0.689697)" fill="white" height="40" width="40"></rect>
</clipPath>
</defs>
</svg>
