<svg xmlns="http://www.w3.org/2000/svg" fill="none" viewBox="0 0 40 41" height="41" width="40">
<g clip-path="url(#clip0_2250_7511)">
<path fill="black" d="M20.0036 40.6968C31.0512 40.6968 40.0071 31.7409 40.0071 20.6933C40.0071 9.6456 31.0512 0.689697 20.0036 0.689697C8.9559 0.689697 0 9.6456 0 20.6933C0 31.7409 8.9559 40.6968 20.0036 40.6968Z"></path>
<path fill="white" d="M33.2892 12.6378C34.1218 13.8475 34.1503 15.4985 33.3533 16.7367C32.2005 18.53 29.9802 18.9569 28.3079 18.0105C27.8881 17.7685 27.3543 17.8041 27.0128 18.1528L17.4629 27.7027C17.1142 28.0514 17.0786 28.578 17.3205 28.9978C18.2741 30.663 17.8471 32.8904 16.0467 34.0432C14.8085 34.8402 13.1647 34.8046 11.9478 33.9792C11.0512 33.3672 10.5246 32.4848 10.3538 31.5383C10.9302 31.46 11.4283 31.3106 11.7913 31.1612C11.8696 31.1327 11.9407 31.0829 11.9905 31.0331C12.1542 30.8694 12.2182 30.6061 12.1186 30.3784C11.9976 30.0653 11.6418 29.923 11.3287 30.0439C10.9018 30.2218 10.2542 30.414 9.47852 30.3926C9.46428 30.3926 9.45005 30.3926 9.44294 30.3926C8.39686 30.2788 7.38636 29.7308 6.71033 28.7488C5.87773 27.539 5.84215 25.8881 6.63916 24.6499C7.79198 22.8566 10.0265 22.4296 11.6845 23.3761C12.1044 23.618 12.6381 23.5824 12.9797 23.2338L22.5296 13.6838C22.8783 13.3352 22.9139 12.8086 22.6719 12.3887C21.7326 10.7235 22.1453 8.49616 23.9457 7.34334C25.1839 6.54633 26.8349 6.58191 28.0446 7.40739C28.927 8.01938 29.4607 8.89467 29.6386 9.82688C28.8416 9.97632 28.2012 10.2539 27.7742 10.5029C27.4753 10.6737 27.3828 11.0366 27.5465 11.3213C27.7101 11.6202 28.0802 11.7127 28.372 11.5561C28.7278 11.3497 29.2401 11.1149 29.8948 11.0011C29.9019 11.0011 29.9233 11.0011 29.9375 11.0011C31.19 10.9157 32.4709 11.4636 33.2821 12.6449L33.2892 12.6378Z"></path>
<path fill="white" d="M28.2864 29.1688C28.0587 29.3965 27.7029 29.3894 27.4823 29.1688L24.6145 26.2298C24.3939 26.0092 24.401 25.6463 24.6145 25.4257C24.8422 25.198 25.198 25.2051 25.4186 25.4257L28.2864 28.3647C28.507 28.5853 28.4999 28.9482 28.2864 29.1688Z"></path>
<path fill="white" d="M23.191 32.0295C23.1198 32.1007 23.0344 32.1505 22.9277 32.179C22.6217 32.2573 22.3157 32.0722 22.2374 31.7662L21.2269 27.7883C21.1487 27.4823 21.3337 27.1692 21.6397 27.098C21.9457 27.0198 22.2517 27.2048 22.3299 27.5108L23.3404 31.4887C23.3903 31.688 23.3262 31.8943 23.191 32.0295Z"></path>
<path fill="white" d="M13.4989 19.1491C13.3566 19.2914 13.1431 19.3554 12.9439 19.2985L8.99439 18.1884C8.68839 18.103 8.51761 17.7899 8.603 17.4839C8.68839 17.1779 9.0015 17.0071 9.3075 17.0925L13.257 18.2026C13.563 18.288 13.7338 18.6011 13.6484 18.9071C13.6199 19.0068 13.5701 19.0921 13.506 19.1562L13.4989 19.1491Z"></path>
<path fill="white" d="M15.3919 15.9541C15.1642 16.1818 14.8084 16.1747 14.5878 15.9541L11.72 13.0151C11.4994 12.7874 11.478 12.4245 11.7271 12.211C11.9548 11.9904 12.3106 11.9975 12.5312 12.2181L15.399 15.1571C15.6196 15.3777 15.6125 15.7406 15.399 15.9612L15.3919 15.9541Z"></path>
<path fill="white" d="M18.6295 14.1394C18.5583 14.2106 18.4729 14.2604 18.3662 14.2888C18.0602 14.3671 17.7542 14.1821 17.6759 13.8761L16.6654 9.89816C16.5871 9.59217 16.7722 9.27906 17.0782 9.20789C17.3841 9.12962 17.6901 9.31464 17.7684 9.62063L18.7789 13.5986C18.8287 13.7978 18.7647 14.0042 18.6295 14.1394Z"></path>
<path fill="white" d="M31.268 24.1518C31.1256 24.2941 30.9122 24.3581 30.7129 24.3012L26.7634 23.1911C26.4574 23.1057 26.2866 22.7926 26.372 22.4866C26.4574 22.1806 26.7705 22.0098 27.0765 22.0952L31.026 23.2053C31.332 23.2907 31.5028 23.6038 31.4174 23.9098C31.3889 24.0094 31.3391 24.0948 31.2751 24.1589L31.268 24.1518Z"></path>
</g>
<defs>
<clipPath id="clip0_2250_7511">
<rect transform="translate(0 0.689697)" fill="white" height="40" width="40"></rect>
</clipPath>
</defs>
</svg>
