<svg xmlns="http://www.w3.org/2000/svg" fill="none" viewBox="0 0 40 41" height="41" width="40">
<g clip-path="url(#clip0_2250_7499)">
<path fill="black" d="M20.0036 40.6968C31.0512 40.6968 40.0071 31.7409 40.0071 20.6933C40.0071 9.6456 31.0512 0.689697 20.0036 0.689697C8.9559 0.689697 0 9.6456 0 20.6933C0 31.7409 8.9559 40.6968 20.0036 40.6968Z"></path>
<path fill="white" d="M19.043 8.28978C18.9363 6.89501 17.6553 5.84182 16.1752 5.92721C15.1291 5.98414 14.2396 6.61036 13.8482 7.47853C14.937 7.79876 15.8905 8.55308 16.3673 9.6205C16.4954 9.94073 16.3246 10.2894 15.983 10.4104C15.6628 10.5243 15.3141 10.389 15.1647 10.0973C14.5812 8.80214 12.9943 8.19727 11.6137 8.7381C10.4751 9.18642 9.83467 10.2823 9.96988 11.3924C10.3257 11.3213 10.6957 11.2786 11.0729 11.2786C13.5849 11.2786 15.6272 12.9793 15.6272 15.0501C15.6272 15.406 15.5703 15.7546 15.4564 16.082C15.3497 16.4093 14.9797 16.5801 14.631 16.4805C14.2894 16.3809 14.1044 16.0322 14.2111 15.7048C14.2823 15.4985 14.3179 15.2707 14.3179 15.0501C14.3179 13.6483 12.859 12.5026 11.0729 12.5026C10.6103 12.5026 10.162 12.5808 9.76351 12.716C9.74928 12.7232 9.73504 12.7303 9.72081 12.7374C9.70658 12.7374 9.69946 12.7374 9.69235 12.7445C8.58934 13.1501 7.82079 14.0325 7.82079 15.043C7.82079 15.6906 8.14102 16.3168 8.71031 16.7865C8.81706 16.8719 8.89533 16.9857 8.9238 17.1281C9.00208 17.4625 8.78859 17.7899 8.43278 17.8681C7.15899 18.1386 6.241 19.3412 6.241 20.7431C6.241 21.4618 6.48295 22.145 6.92415 22.6858C7.01667 22.7854 7.07359 22.9206 7.08783 23.0487V23.1483C7.08783 23.1483 7.08071 23.1768 7.08071 23.1839V23.1982C7.05936 23.312 7.00955 23.4116 6.92415 23.5113C6.48295 24.045 6.23389 24.7353 6.23389 25.454C6.23389 26.5143 6.7676 27.5034 7.63577 28.0229C7.90619 28.1795 8.00581 28.4926 7.89195 28.7701C7.33689 30.0795 8.00581 31.5597 9.39347 32.0791C10.0339 32.3282 10.7527 32.3282 11.3931 32.0863C11.7276 31.9653 12.1118 32.1147 12.2399 32.4349C12.2613 32.4848 12.2755 32.5346 12.2826 32.5915C12.4819 34.3492 14.1613 35.623 16.0257 35.4309C17.5699 35.2814 18.7868 34.1642 19.0288 32.7694C19.0074 32.5915 19.0359 8.28266 19.0359 8.28266L19.043 8.28978ZM12.4392 30.1862C12.0763 30.1862 11.7845 29.9087 11.7845 29.5742C11.7916 27.233 13.8055 25.333 16.3033 25.333C16.6662 25.333 16.958 25.6105 16.958 25.945C16.958 26.2795 16.6591 26.557 16.3033 26.557C14.5313 26.557 13.101 27.9091 13.0939 29.5742C13.0939 29.9158 12.8021 30.1862 12.4463 30.1862H12.4392ZM13.9692 32.7623C13.6062 32.7623 13.3216 32.4848 13.3216 32.1503C13.3216 31.8158 13.6134 31.5383 13.9692 31.5383C15.1291 31.5383 16.0684 30.6559 16.0684 29.5742C16.0684 29.2327 16.3602 28.9623 16.716 28.9623C17.0718 28.9623 17.3707 29.2398 17.3707 29.5742C17.3636 31.3391 15.8478 32.7694 13.9621 32.7694L13.9692 32.7623ZM17.1359 22.1307C16.1681 22.1307 15.2643 21.8888 14.4815 21.476C13.962 23.3832 12.119 24.7993 9.92006 24.8064C9.55714 24.8064 9.27249 24.5289 9.27249 24.1944C9.27249 23.86 9.56425 23.5824 9.92006 23.5824C11.7133 23.5753 13.1793 22.2731 13.3074 20.615C12.368 19.7112 11.7916 18.4659 11.7845 17.0996C11.7845 16.758 12.0834 16.4876 12.4392 16.4876C12.795 16.4876 13.0868 16.7651 13.0868 17.0996C13.0939 19.206 14.9014 20.8996 17.1359 20.8996C17.4988 20.8996 17.7906 21.1772 17.7906 21.5116C17.7906 21.8461 17.4917 22.1236 17.1359 22.1236V22.1307Z"></path>
<path fill="white" d="M20.9644 32.7836C21.2064 34.1783 22.4161 35.2956 23.9675 35.445C25.8319 35.63 27.5113 34.3634 27.7106 32.6057C27.7177 32.5487 27.7319 32.4989 27.7533 32.4491C27.8813 32.1289 28.2656 31.9794 28.6001 32.1004C29.2405 32.3424 29.9593 32.3424 30.5997 32.0933C31.9874 31.5738 32.6634 30.0937 32.1012 28.7843C31.9874 28.5068 32.087 28.2008 32.3574 28.0371C33.2256 27.5176 33.7593 26.5356 33.7593 25.4681C33.7593 24.7423 33.5102 24.0591 33.069 23.5254C32.9836 23.4329 32.9338 23.3333 32.9125 23.2123V23.1981C32.9125 23.1981 32.9125 23.1767 32.9054 23.1625V23.0629C32.9196 22.9348 32.9765 22.7996 33.069 22.7C33.5102 22.1591 33.7522 21.4689 33.7522 20.7572C33.7522 19.3554 32.8342 18.1456 31.5604 17.8823C31.2046 17.8111 30.9911 17.4767 31.0694 17.1422C31.0979 17.007 31.1761 16.886 31.2829 16.8006C31.8522 16.331 32.1724 15.7119 32.1724 15.0572C32.1724 14.0467 31.4039 13.1643 30.3008 12.7587C30.2937 12.7515 30.2866 12.7515 30.2724 12.7515C30.2581 12.7444 30.2439 12.7373 30.2297 12.7302C29.8312 12.595 29.3829 12.5167 28.9203 12.5167C27.1341 12.5167 25.6753 13.6624 25.6753 15.0643C25.6753 15.2849 25.7109 15.5126 25.7821 15.719C25.8888 16.0463 25.7038 16.3879 25.3622 16.4947C25.0135 16.5943 24.6435 16.4235 24.5367 16.0961C24.4229 15.7617 24.366 15.413 24.366 15.0643C24.366 12.9864 26.4154 11.2927 28.9203 11.2927C29.3046 11.2927 29.6746 11.3354 30.0233 11.4066C30.1585 10.3036 29.5181 9.20058 28.3795 8.75226C26.9989 8.21143 25.412 8.8163 24.8285 10.1114C24.6862 10.4032 24.3304 10.5384 24.0101 10.4246C23.6686 10.3107 23.4978 9.95489 23.6259 9.63466C24.1027 8.57435 25.0491 7.81292 26.145 7.4927C25.7536 6.61741 24.8641 5.9983 23.818 5.94137C22.3378 5.85598 21.0569 6.90917 20.9502 8.30394C20.9502 8.30394 20.9787 32.6128 20.9573 32.7907L20.9644 32.7836ZM26.9135 29.5671C26.9064 27.9019 25.4761 26.5498 23.7042 26.5498C23.3412 26.5498 23.0495 26.2723 23.0495 25.9378C23.0495 25.6033 23.3483 25.3258 23.7042 25.3258C26.2019 25.3258 28.2158 27.2258 28.2229 29.5671C28.2229 29.9086 27.924 30.179 27.5682 30.179C27.2124 30.179 26.9207 29.9015 26.9207 29.5671H26.9135ZM22.6296 29.5671C22.6296 29.2255 22.9285 28.9551 23.2843 28.9551C23.6401 28.9551 23.9319 29.2326 23.9319 29.5671C23.9319 30.6487 24.8712 31.5311 26.0311 31.5311C26.3941 31.5311 26.6787 31.8087 26.6787 32.1431C26.6787 32.4847 26.387 32.7551 26.0311 32.7551C24.1525 32.7551 22.6296 31.3248 22.6225 29.5599L22.6296 29.5671ZM22.2098 21.5187C22.2098 21.1771 22.5086 20.9067 22.8644 20.9067C25.0989 20.9067 26.9064 19.2059 26.9135 17.1066C26.9135 16.7651 27.2053 16.4947 27.5611 16.4947C27.9169 16.4947 28.2158 16.7722 28.2158 17.1066C28.2087 18.4729 27.6323 19.7183 26.6929 20.622C26.8139 22.2801 28.287 23.5824 30.0802 23.5895C30.4432 23.5895 30.7278 23.867 30.7278 24.2015C30.7278 24.543 30.4361 24.8135 30.0802 24.8135C27.8813 24.8063 26.0383 23.3902 25.5188 21.4831C24.736 21.9029 23.8322 22.1378 22.8644 22.1378C22.5015 22.1378 22.2098 21.8602 22.2098 21.5258V21.5187Z"></path>
</g>
<defs>
<clipPath id="clip0_2250_7499">
<rect transform="translate(0 0.689697)" fill="white" height="40" width="40"></rect>
</clipPath>
</defs>
</svg>
