<svg xmlns="http://www.w3.org/2000/svg" fill="none" viewBox="0 0 40 41" height="41" width="40">
<g clip-path="url(#clip0_2250_7506)">
<path fill="black" d="M20.0036 40.6968C31.0512 40.6968 40.0071 31.7409 40.0071 20.6933C40.0071 9.6456 31.0512 0.689697 20.0036 0.689697C8.9559 0.689697 0 9.6456 0 20.6933C0 31.7409 8.9559 40.6968 20.0036 40.6968Z"></path>
<path fill="white" d="M28.4077 19.9674C28.4077 19.9674 28.4077 19.9603 28.4148 19.9603C28.0945 19.5689 27.7316 19.1918 27.326 18.8217C25.1911 16.8932 22.8357 16.2385 21.1847 16.0322C21.1634 16.0322 21.1349 16.0251 21.1136 16.0251C20.9926 16.0037 20.8716 15.9966 20.7507 15.9895C20.5087 15.9681 20.2525 15.961 20.0035 15.961C17.9896 15.961 16.054 16.5018 14.3817 17.5266C13.3712 16.1318 12.8802 14.9505 12.8802 13.94C12.8802 13.1003 13.2146 12.3745 13.8693 11.7127C15.4989 10.0759 17.6836 9.16507 20.0035 9.16507C22.3233 9.16507 24.4938 10.0688 26.1305 11.7127C27.3473 12.9224 27.4612 14.4026 26.3795 16.3453C27.02 16.7296 27.6605 17.1921 28.2867 17.7543C28.6354 18.0674 28.9556 18.3947 29.2474 18.7221C29.4608 18.3876 29.653 18.0461 29.8309 17.6902C30.5496 16.2528 30.877 14.8438 30.8058 13.5202C30.7133 11.8763 30.0088 10.3891 28.7279 9.11526C26.3867 6.77404 23.2911 5.50024 19.9963 5.50024C16.7016 5.50024 13.5989 6.77404 11.2648 9.11526C9.98389 10.3891 9.2865 11.8763 9.18688 13.5202C9.1086 14.8438 9.43594 16.2528 10.1618 17.6902C10.5603 18.4944 11.0584 19.2558 11.5708 19.9603C10.0195 21.8817 9.16553 24.2514 9.16553 26.7563C9.16553 29.0761 9.89138 31.2821 11.2577 33.1537C11.6064 33.6234 12.1543 33.9009 12.7378 33.9009H27.2193C27.8028 33.9009 28.3507 33.6234 28.6994 33.1537C30.0657 31.2821 30.7916 29.0761 30.7916 26.7563C30.7916 24.2514 29.9447 21.8817 28.3863 19.9603L28.4077 19.9674ZM18.2671 19.8607C17.3776 20.0457 15.6697 20.5794 14.2963 22.1663C12.6738 24.0308 12.5244 26.1727 12.5457 27.0053C12.5457 27.354 12.2753 27.6315 11.9337 27.6387H11.9195C11.5779 27.6387 11.3004 27.3682 11.3004 27.0267C11.279 26.0517 11.4427 23.5326 13.357 21.3408C14.9723 19.4764 16.972 18.8431 18.018 18.6367C18.3454 18.5655 18.6798 18.7861 18.751 19.1206C18.8222 19.4551 18.6016 19.7824 18.2671 19.8536V19.8607Z"></path>
</g>
<defs>
<clipPath id="clip0_2250_7506">
<rect transform="translate(0 0.689697)" fill="white" height="40" width="40"></rect>
</clipPath>
</defs>
</svg>
