<svg xmlns="http://www.w3.org/2000/svg" fill="none" viewBox="0 0 47 48" height="48" width="47">
<g clip-path="url(#clip0_2250_7104)">
<path stroke="#FFCA12" fill="#FFCA12" d="M42.6504 14.7053C35.6017 30.3142 19.8606 37.5532 4.25882 30.123C3.73943 29.8756 3.11783 30.0959 2.86998 30.6092C2.62274 31.1312 2.84308 31.7537 3.36248 32.0011C20.086 39.9734 36.993 32.2904 44.549 15.5656C44.7856 15.0443 44.5521 14.4227 44.028 14.1845C43.5046 13.955 42.8871 14.184 42.6504 14.7053Z" clip-rule="evenodd" fill-rule="evenodd"></path>
<path stroke="#FFCA12" fill="#FFCA12" d="M16.4461 22.7932C18.1177 22.6773 19.3789 21.2282 19.263 19.5566C19.147 17.8849 17.6979 16.6238 16.0262 16.7398C14.3546 16.8557 13.0935 18.3048 13.2094 19.9764C13.3254 21.6481 14.7745 22.9092 16.4461 22.7932Z"></path>
<path stroke="#FFCA12" fill="#FFCA12" d="M28.7528 18.7044C30.3917 18.5907 31.6282 17.17 31.5146 15.531C31.4009 13.8921 29.9801 12.6556 28.3411 12.7693C26.7022 12.8829 25.4657 14.3037 25.5794 15.9427C25.693 17.5816 27.1138 18.8181 28.7528 18.7044Z"></path>
</g>
<defs>
<clipPath id="clip0_2250_7104">
<rect transform="translate(0.887207 3.96777) rotate(-3.96761)" fill="white" height="43.2202" width="43.2202"></rect>
</clipPath>
</defs>
</svg>
