<svg xmlns="http://www.w3.org/2000/svg" fill="none" viewBox="0 0 64 73" height="73" width="64">
<path fill="#453B67" d="M7.3224 56.3314C7.10502 56.3314 6.89404 56.2355 6.75339 56.0501C2.51458 50.4687 0.270508 43.8068 0.270508 36.7805C0.270508 28.9614 3.12834 21.4492 8.31976 15.6121C8.58189 15.318 9.02943 15.2924 9.32352 15.5545C9.61762 15.8166 9.64319 16.2642 9.38106 16.5583C4.4262 22.1333 1.69623 29.313 1.69623 36.7805C1.69623 43.4935 3.83801 49.8549 7.89141 55.187C8.12796 55.5003 8.07042 55.9478 7.75714 56.1844C7.62928 56.2803 7.47584 56.3314 7.32879 56.3314H7.3224Z"></path>
<path fill="#453B67" d="M57.0247 56.2289C56.8776 56.2289 56.7242 56.1841 56.5963 56.0882C56.2831 55.8517 56.2191 55.4041 56.4557 55.0908C60.4579 49.7843 62.5741 43.4485 62.5741 36.7802C62.5741 29.3767 59.8825 22.2353 54.998 16.6795C54.7359 16.3854 54.7678 15.9379 55.0619 15.6757C55.356 15.4136 55.8036 15.4456 56.0657 15.7397C61.1804 21.5512 63.9999 29.0251 63.9999 36.7802C63.9999 43.7618 61.7814 50.3853 57.5937 55.9476C57.453 56.133 57.2421 56.2289 57.0247 56.2289Z"></path>
<path fill="#453B67" d="M17.993 11.7309C18.6196 11.3026 19.2781 11.4368 19.6361 11.9547C19.9942 12.4726 19.8791 13.1375 19.2525 13.5658L15.6339 16.0401C15.0649 16.43 14.4383 16.3086 14.0483 15.7396L9.90542 9.68504C9.51542 9.11603 9.63689 8.48948 10.2059 8.09949L13.7478 5.6764C14.3744 5.24804 15.0329 5.3823 15.3909 5.90017C15.749 6.41803 15.6339 7.08294 15.0073 7.5113L12.3988 9.29505L13.2044 10.4778L14.5662 9.54439C15.1672 9.12882 15.8065 9.26308 16.1453 9.75537C16.4842 10.2477 16.3755 10.8934 15.7681 11.3026L14.4063 12.236L15.3142 13.5594L17.993 11.7309Z"></path>
<path fill="#453B67" d="M22.5709 10.3951L22.2513 11.5075C22.0659 12.1341 21.8229 12.4729 21.337 12.6264C20.768 12.8054 20.231 12.5816 20.0264 11.9231C19.9433 11.661 19.9305 11.3413 20.0839 10.817L21.1452 7.2751L18.5175 5.33791C18.0764 5.01824 17.9102 4.73694 17.8271 4.46841C17.6161 3.81629 17.923 3.31761 18.492 3.13859C18.9779 2.98515 19.3679 3.13859 19.8857 3.5222L20.7105 4.13596C21.1324 4.44923 21.5736 4.78169 22.117 5.23562C22.2449 4.56432 22.3983 4.04006 22.5326 3.55416L22.8075 2.59516C22.9929 1.96861 23.2359 1.62976 23.7218 1.47632C24.2908 1.2973 24.8278 1.52107 25.0324 2.17959C25.1155 2.44172 25.1283 2.76138 24.9749 3.28564L24.0158 6.56544L26.8801 8.65607C27.3212 8.97574 27.4874 9.25705 27.5706 9.52557C27.7815 10.1777 27.4747 10.6764 26.9057 10.8554C26.4198 11.0088 26.0298 10.8554 25.5119 10.4718L24.5657 9.76213C24.1437 9.44885 23.6195 9.06525 23.0441 8.60493C22.897 9.29541 22.7244 9.90278 22.5709 10.3951Z"></path>
<path fill="#453B67" d="M32.736 9.21846C32.7487 9.99206 32.2629 10.4844 31.6235 10.4971C30.9778 10.5099 30.4727 10.0368 30.4599 9.26322L30.3384 2.98493L28.8808 3.0105C28.1199 3.02329 27.6468 2.55018 27.634 1.92363C27.6213 1.29708 28.0816 0.804787 28.8424 0.792L34.0338 0.689706C34.7946 0.67692 35.2677 1.15003 35.2805 1.77658C35.2933 2.40313 34.833 2.89542 34.0722 2.90821L32.6145 2.93378L32.736 9.21207V9.21846Z"></path>
<path fill="#453B67" d="M38.5993 9.97286C38.3883 10.7209 37.7745 11.0469 37.1607 10.8743C36.5406 10.6953 36.1953 10.1007 36.4063 9.3527L38.4202 2.26246C38.6056 1.60394 39.1683 1.29066 39.8268 1.47607L42.1923 2.14737C44.3021 2.74835 45.2995 4.36587 44.7689 6.23913C44.4428 7.38994 43.6756 8.11878 42.6399 8.3873L43.2856 10.4396C43.3879 10.772 43.4902 11.1173 43.3623 11.5584C43.2025 12.1338 42.6974 12.4471 42.0517 12.2681C41.4443 12.0955 41.2525 11.6479 41.0927 11.0533L40.3319 8.37452L39.1491 8.04206L38.5993 9.98565V9.97286ZM40.9904 6.33503C41.7512 6.55241 42.3394 6.35421 42.5312 5.66373C42.7294 4.97324 42.333 4.50013 41.5722 4.28276L40.3191 3.92473L39.7373 5.977L40.9904 6.33503Z"></path>
<path fill="#453B67" d="M46.3225 12.5493L45.5681 13.048C45.0758 13.3676 44.6283 13.5083 44.1168 13.1695C43.567 12.805 43.4519 12.1977 43.7971 11.6734C43.9122 11.5008 44.1104 11.2834 44.3597 11.1172L50.7339 6.81444C51.3093 6.42445 51.7825 6.3733 52.2236 6.6674C52.6583 6.96149 52.7926 7.42181 52.6583 8.09951L51.1239 15.6309C51.0664 15.925 50.9385 16.1935 50.8298 16.3661C50.4782 16.8904 49.8708 17.0119 49.3274 16.6474C48.8159 16.3086 48.7776 15.8419 48.8799 15.2601L49.0397 14.365L46.3289 12.5557L46.3225 12.5493ZM50.1521 9.76818C49.468 10.35 48.8287 10.8359 48.0679 11.3601L49.4744 12.3C49.6599 11.3921 49.8772 10.6185 50.1521 9.76179V9.76818Z"></path>
<path fill="#453B67" d="M8.21148 61.2928C8.56951 60.8453 9.13212 60.7238 9.69474 61.1649C10.4747 61.7851 9.86736 62.4052 11.0757 63.3706C11.7023 63.8693 12.1114 63.8757 12.3672 63.556C12.8339 62.9742 12.169 62.2774 11.5936 61.4271C10.8711 60.3849 10.2701 58.9336 11.4977 57.3928C12.5973 56.0119 14.1829 55.8328 15.9539 57.2394C17.4819 58.4605 17.8463 59.8351 17.2453 60.5895C16.8937 61.0371 16.3247 61.1074 15.8132 60.6982C15.1739 60.1867 15.5575 59.6561 14.656 58.9336C14.0486 58.4477 13.6267 58.4669 13.3517 58.8122C12.9042 59.3748 13.4029 60.0844 13.8824 60.7685C14.656 61.8874 15.5319 63.3195 14.234 64.9498C13.1791 66.2732 11.6064 66.5162 9.72031 65.0137C8.15394 63.767 7.47624 62.2006 8.20509 61.2864L8.21148 61.2928Z"></path>
<path fill="#453B67" d="M25.1156 62.9546C25.6654 62.4687 26.1065 62.3664 26.5477 62.5199C27.1231 62.7308 27.4172 63.2999 27.1806 63.9584L24.6297 71.023C24.3675 71.7519 23.7346 72.0396 23.1272 71.8158C22.5262 71.5984 22.2194 70.9719 22.4815 70.2431L22.8523 69.2137C23.108 68.5105 23.4405 67.7624 23.8561 66.8737C23.108 67.6601 22.4879 68.2164 21.8741 68.7406C21.3371 69.2009 20.9087 69.3096 20.4548 69.1434C20.0009 68.9772 19.7387 68.6191 19.6173 67.9287C19.483 67.1359 19.3615 66.3111 19.2848 65.2307C19.0355 66.1833 18.8117 66.9696 18.5623 67.6729L18.1915 68.7023C17.9294 69.4311 17.2965 69.7124 16.6891 69.495C16.0817 69.2777 15.7812 68.6511 16.0434 67.9223L18.5943 60.8576C18.8309 60.1991 19.4191 59.9433 20.0009 60.1543C20.442 60.3142 20.7169 60.6722 20.8256 61.401L21.5992 65.9723L25.1156 62.9546Z"></path>
<path fill="#453B67" d="M28.2418 71.3429L28.8236 63.9713C28.8811 63.1977 29.4181 62.7566 30.0575 62.8077C30.6968 62.8589 31.1571 63.3767 31.0932 64.1503L30.5114 71.5219C30.4475 72.2955 29.9168 72.7366 29.2775 72.6855C28.6382 72.6343 28.1778 72.1165 28.2418 71.3429Z"></path>
<path fill="#453B67" d="M38.8936 69.8404C39.648 69.7445 40.1723 70.1601 40.2554 70.7867C40.3385 71.4068 39.9357 71.9503 39.1813 72.0462L35.064 72.5768C34.3991 72.6663 33.8748 72.2571 33.7853 71.5922L32.8391 64.2846C32.7432 63.5174 33.1715 62.974 33.8109 62.8908C34.4502 62.8077 35.0064 63.2233 35.1023 63.9905L35.9079 70.224L38.8936 69.8404Z"></path>
<path fill="#453B67" d="M47.582 66.778C48.2789 66.4775 48.899 66.7396 49.1484 67.3151C49.3977 67.8905 49.1484 68.5234 48.4579 68.8175L44.4301 70.5373C43.7971 70.8058 43.2025 70.5693 42.934 69.9363L40.0506 63.1913C39.7821 62.5584 40.0186 61.9638 40.6516 61.6953L44.6027 60.0074C45.2996 59.7069 45.9197 59.9691 46.1691 60.5445C46.4184 61.1199 46.1691 61.7464 45.4786 62.0469L42.576 63.2872L43.1386 64.6043L44.6538 63.9585C45.3251 63.6708 45.9261 63.9202 46.1627 64.4764C46.3992 65.0262 46.1627 65.6336 45.4914 65.9213L43.9761 66.5734L44.6091 68.0503L47.5948 66.778H47.582Z"></path>
<path fill="#453B67" d="M50.7785 65.5185C50.4205 65.0774 50.4205 64.4956 50.9767 64.0416C51.7503 63.4215 52.2234 64.1439 53.4254 63.1722C54.0519 62.6671 54.1478 62.2771 53.8921 61.9574C53.4254 61.3756 52.6006 61.8679 51.648 62.2451C50.4717 62.7246 48.9308 62.9931 47.6905 61.4523C46.5845 60.0778 46.7507 58.4986 48.5153 57.0793C50.0369 55.8517 51.4562 55.7942 52.0636 56.5486C52.4216 56.9898 52.3705 57.5588 51.859 57.9679C51.2197 58.4794 50.7849 57.9871 49.8899 58.7096C49.2889 59.1955 49.2122 59.611 49.4871 59.9563C49.9346 60.5125 50.7402 60.1864 51.5138 59.8604C52.7733 59.3489 54.3588 58.8055 55.6695 60.4294C56.7308 61.7464 56.6221 63.3384 54.7488 64.8472C53.1888 66.1003 51.5138 66.42 50.7849 65.5121L50.7785 65.5185Z"></path>
<path fill="#453B67" d="M32.1353 60.6148C18.9969 60.6148 8.30078 49.9251 8.30078 36.7803C8.30078 23.6355 18.9905 12.9458 32.1353 12.9458C45.28 12.9458 55.9698 23.6355 55.9698 36.7803C55.9698 49.9251 45.28 60.6148 32.1353 60.6148ZM32.1353 14.3715C19.7769 14.3715 9.7265 24.4219 9.7265 36.7803C9.7265 49.1387 19.7769 59.189 32.1353 59.189C44.4936 59.189 54.544 49.1387 54.544 36.7803C54.544 24.4219 44.4936 14.3715 32.1353 14.3715Z"></path>
<path fill="#453B67" d="M32.1351 54.7135C22.2445 54.7135 14.2017 46.6706 14.2017 36.7801C14.2017 26.8895 22.2445 18.8467 32.1351 18.8467C42.0256 18.8467 50.0685 26.8895 50.0685 36.7801C50.0685 46.6706 42.0256 54.7135 32.1351 54.7135ZM32.1351 20.2724C23.0309 20.2724 15.6274 27.6759 15.6274 36.7801C15.6274 45.8842 23.0309 53.2878 32.1351 53.2878C41.2392 53.2878 48.6427 45.8842 48.6427 36.7801C48.6427 27.6759 41.2392 20.2724 32.1351 20.2724Z"></path>
<path fill="#453B67" d="M32.135 50.1235C25.6969 50.1235 20.1794 45.5331 19.0158 39.21C18.971 38.9671 19.0542 38.7177 19.2396 38.5515C19.425 38.3853 19.6743 38.3277 19.9173 38.3981C27.5701 40.6421 36.7063 40.6421 44.3591 38.3981C44.5957 38.3277 44.8514 38.3853 45.0368 38.5515C45.2222 38.7177 45.3053 38.9671 45.2606 39.21C44.097 45.5331 38.5795 50.1235 32.1414 50.1235H32.135ZM20.6781 40.0859C22.1294 45.1431 26.771 48.7042 32.135 48.7042C37.499 48.7042 42.1406 45.1431 43.5919 40.0859C36.3354 41.972 27.9409 41.972 20.6781 40.0859Z"></path>
<path fill="#453B67" d="M28.4907 34.0505C28.1966 34.0505 27.9217 33.8715 27.8194 33.5774C27.4358 32.4905 26.4001 31.7553 25.2429 31.7553C24.0857 31.7553 23.05 32.4841 22.6664 33.5774C22.5385 33.9482 22.1293 34.14 21.7585 34.0121C21.3877 33.8779 21.1959 33.4751 21.3237 33.1043C21.9119 31.4484 23.4847 30.3359 25.2429 30.3359C27.0011 30.3359 28.5738 31.4484 29.162 33.1043C29.2963 33.4751 29.0981 33.8779 28.7273 34.0121C28.6505 34.0377 28.5674 34.0505 28.4907 34.0505Z"></path>
<path fill="#453B67" d="M42.2685 34.0505C41.9745 34.0505 41.6995 33.8715 41.5972 33.5774C41.2136 32.4905 40.1779 31.7553 39.0207 31.7553C37.8635 31.7553 36.8278 32.4841 36.4442 33.5774C36.3163 33.9482 35.9071 34.14 35.5363 34.0121C35.1655 33.8779 34.9737 33.4751 35.1016 33.1043C35.6898 31.4484 37.2625 30.3359 39.0207 30.3359C40.7789 30.3359 42.3517 31.4484 42.9398 33.1043C43.0741 33.4751 42.8759 33.8779 42.5051 34.0121C42.4284 34.0377 42.3453 34.0505 42.2685 34.0505Z"></path>
</svg>
