<svg xmlns="http://www.w3.org/2000/svg" fill="none" viewBox="0 0 28 31" height="31" width="28">
<path fill="#FFCA12" d="M3.39455 13.7305C4.70444 13.2434 6.08287 12.5959 7.14584 11.6586C8.4083 10.5453 8.92173 9.11147 9.26652 7.60218C9.70918 5.66311 9.88605 3.59753 10.4228 1.65532C10.6215 0.934061 11.004 0.661424 11.1681 0.540429C11.5829 0.234798 12.0022 0.153104 12.3967 0.183745C12.8642 0.219101 13.5064 0.403724 13.9287 1.22162C13.9889 1.33869 14.0672 1.51705 14.1199 1.76139C14.1583 1.94053 14.1831 2.50071 14.2238 2.7317C14.3254 3.30053 14.4105 3.86939 14.4903 4.44137C14.756 6.34507 14.9088 7.96199 15.7482 9.71092C16.8872 12.0852 18.0285 13.538 19.5763 14.1815C21.0729 14.8037 22.8623 14.6867 25.1486 14.1988C25.3662 14.1438 25.5814 14.0966 25.7945 14.0581C26.8025 13.8743 27.7661 14.5649 27.9641 15.613C28.1621 16.6603 27.5215 17.6809 26.5225 17.9111C26.314 17.959 26.1084 18.0046 25.9052 18.0462C22.8156 18.8445 19.239 21.6934 17.1605 24.1879C16.5198 24.9571 15.5819 27.1075 14.625 28.4793C13.9189 29.4913 13.1254 30.1583 12.4592 30.394C12.0128 30.5527 11.6364 30.5284 11.3255 30.4483C10.8738 30.332 10.4989 30.0766 10.2113 29.6704C10.0547 29.448 9.9094 29.1503 9.84014 28.77C9.80701 28.5869 9.80327 28.1219 9.80402 27.9113C9.60904 27.2112 9.3704 26.5277 9.1965 25.8213C8.7817 24.1361 7.9679 23.0691 7.00128 21.6596C6.09716 20.3404 5.12606 19.5115 3.70249 18.85C3.5173 18.8029 2.02296 18.421 1.49524 18.2018C0.724359 17.8805 0.356967 17.3422 0.22372 17.0523C-0.00287707 16.5605 -0.0261937 16.1308 0.0189751 15.7725C0.0859754 15.2437 0.313326 14.7912 0.716834 14.4258C0.966768 14.1988 1.34017 13.978 1.84003 13.8703C2.22623 13.7863 3.25076 13.7376 3.39455 13.7305ZM12.1611 10.9837C12.2303 11.1448 12.3041 11.3066 12.3824 11.4701C14.0506 14.9475 15.9161 16.8889 18.1836 17.831L18.2596 17.8616C16.7427 19.037 15.3695 20.3506 14.3201 21.6101C13.888 22.1286 13.3159 23.2058 12.6978 24.3105C12.1362 22.4052 11.2178 21.0586 10.063 19.3733C9.18069 18.0871 8.25624 17.1192 7.12024 16.3303C8.00179 15.8581 8.84267 15.305 9.57516 14.6592C10.7947 13.5836 11.601 12.3375 12.1611 10.9837Z" clip-rule="evenodd" fill-rule="evenodd"></path>
</svg>
