<svg xmlns="http://www.w3.org/2000/svg" fill="none" viewBox="0 0 30 33" height="33" width="30">
<path stroke="#FFCA12" fill="#FFCA12" d="M12.067 7.38363C11.9846 6.88291 11.9226 6.38787 11.8825 5.89277C11.8221 5.15013 11.8595 4.4018 11.8381 3.65916C11.8287 3.3441 11.792 2.5227 11.8068 2.40455C11.9413 1.37498 12.7521 1.21743 12.9893 1.1893C13.1041 1.17242 14.2822 1.03745 14.5364 2.37646C14.8482 4.01366 14.9481 5.66208 14.8378 7.27677C15.0953 8.64954 15.5356 10.0166 16.117 11.2544C18.4304 16.1772 22.8389 16.6554 27.6151 16.6104C28.3497 16.5992 28.9597 17.1899 28.9981 17.9382C29.0365 18.6921 28.4897 19.3447 27.7585 19.4122C25.0887 19.6767 20.3519 21.8709 18.7142 24.1551C18.3717 24.6333 18.1724 25.7866 17.9089 26.9175C17.541 28.4872 17.1035 30.0399 16.6132 30.6926C16.5397 30.7938 15.6454 31.8291 15.3785 31.981C14.7373 32.341 14.224 32.1328 13.9325 31.9415C13.641 31.7503 13.311 31.3733 13.1793 30.7488C13.0415 30.0962 13.1579 28.7572 13.1364 28.4702C13.0585 27.4294 12.8554 25.3871 12.4409 23.6318C12.2174 22.6866 11.9792 21.8146 11.585 21.3814C10.1257 19.7779 7.79251 20.0142 5.82765 20.2787C5.60201 20.3068 5.37638 20.3406 5.15129 20.3687C4.3514 20.6106 3.50208 20.7906 2.60447 20.8975C1.24899 21.0607 1.02612 19.7836 1.01404 19.6992C0.988784 19.5135 0.894895 18.5571 1.91658 18.1745C2.02803 18.1351 2.85043 17.9494 3.1672 17.8763C3.6086 17.775 4.05492 17.6963 4.5029 17.6232C9.1304 16.1491 11.6437 12.0083 12.067 7.38363ZM13.6553 12.4978C15.4022 16.1998 18.0533 17.9888 21.1957 18.799H21.1952C19.2331 19.8511 17.4483 21.1676 16.5023 22.4897C16.1433 22.9905 15.8139 23.9975 15.5169 25.1284C15.356 24.0763 15.1387 22.9566 14.8515 22.0002C14.5249 20.9088 14.0851 20.003 13.5943 19.4629C12.6467 18.4221 11.4576 17.8426 10.179 17.5557C11.7096 16.166 12.8702 14.4332 13.6553 12.4978Z" clip-rule="evenodd" fill-rule="evenodd"></path>
</svg>
