<svg xmlns="http://www.w3.org/2000/svg" fill="none" viewBox="0 0 64 73" height="73" width="64">
<path fill="#453B67" d="M34.6962 47.7586C34.5333 47.7586 34.3704 47.7043 34.2437 47.5957L30.811 44.7361C30.5094 44.4888 30.4672 44.0363 30.7205 43.7407C30.9739 43.4391 31.4143 43.3968 31.716 43.6502L34.8832 46.2866L42.551 44.6457C42.9371 44.5672 43.3112 44.8085 43.3896 45.1886C43.474 45.5687 43.2267 45.9488 42.8466 46.0272L34.841 47.7405C34.7927 47.7526 34.7384 47.7586 34.6902 47.7586H34.6962Z"></path>
<path fill="#453B67" d="M31.8363 54.618C21.9907 54.618 13.979 46.6063 13.979 36.7606C13.979 26.915 21.9907 18.9033 31.8363 18.9033C41.682 18.9033 49.6936 26.915 49.6936 36.7606C49.6936 46.6063 41.682 54.618 31.8363 54.618ZM31.8363 20.315C22.7689 20.315 15.3907 27.6932 15.3907 36.7606C15.3907 45.8281 22.7689 53.2063 31.8363 53.2063C40.9037 53.2063 48.2819 45.8281 48.2819 36.7606C48.2819 27.6932 40.9037 20.315 31.8363 20.315Z"></path>
<path fill="#453B67" d="M36.4091 32.8932C36.2281 32.8932 36.0471 32.8268 35.9083 32.688C35.6308 32.4105 35.6308 31.9641 35.9083 31.6866L43.4615 24.1334C43.739 23.8559 44.1854 23.8559 44.4629 24.1334C44.7405 24.4109 44.7405 24.8574 44.4629 25.1349L36.9098 32.688C36.771 32.8268 36.59 32.8932 36.4091 32.8932Z"></path>
<path fill="#453B67" d="M19.7103 49.5926C19.5293 49.5926 19.3484 49.5262 19.2096 49.3875C18.9321 49.1099 18.9321 48.6635 19.2096 48.386L24.7659 42.8297C25.0434 42.5522 25.4898 42.5522 25.7673 42.8297C26.0448 43.1072 26.0448 43.5537 25.7673 43.8312L20.2111 49.3875C20.0723 49.5262 19.8913 49.5926 19.7103 49.5926Z"></path>
<path fill="#453B67" d="M12.3141 61.5861C12.1572 61.5861 12.0003 61.5378 11.8676 61.4292C4.39289 55.3662 0.103516 46.3772 0.103516 36.7608C0.103516 29.7144 2.36584 23.036 6.64919 17.4556C6.88447 17.1479 7.3309 17.0876 7.63858 17.3228C7.94626 17.5581 8.00658 18.0046 7.7713 18.3183C3.68101 23.6453 1.52124 30.0221 1.52124 36.7608C1.52124 45.9488 5.61756 54.5336 12.7605 60.3252C13.0621 60.5725 13.1104 61.019 12.8631 61.3206C12.7243 61.4956 12.5192 61.5861 12.3141 61.5861Z"></path>
<path fill="#453B67" d="M12.0787 16.4601C11.7349 16.0076 11.753 15.4285 12.3201 15.0001C13.1104 14.4029 13.5568 15.1389 14.7875 14.2038C15.427 13.7212 15.5295 13.329 15.2822 13.0033C14.8358 12.412 14.0032 12.8826 13.038 13.2265C11.8555 13.6669 10.3111 13.8961 9.12263 12.3276C8.05481 10.928 8.272 9.35338 10.0638 7.98995C11.6142 6.8075 13.0319 6.79544 13.6111 7.56161C13.955 8.01408 13.8886 8.57514 13.3698 8.97331C12.7182 9.468 12.302 8.96124 11.385 9.66105C10.7696 10.1256 10.6851 10.5419 10.9506 10.8918C11.385 11.4589 12.1934 11.1512 12.9716 10.8556C14.2385 10.385 15.8372 9.88427 17.0981 11.5433C18.1177 12.8886 17.9668 14.4632 16.0544 15.9171C14.4678 17.1237 12.7906 17.3952 12.0848 16.4661L12.0787 16.4601Z"></path>
<path fill="#453B67" d="M18.0211 9.40782L16.5491 5.25117C16.2897 4.52722 16.5974 3.90583 17.2006 3.69468C17.8039 3.48353 18.4313 3.76708 18.6908 4.49706L20.1387 8.58131C20.5549 9.76376 21.2909 10.3972 22.3708 10.0111C23.4507 9.625 23.6257 8.67181 23.2094 7.4954L21.7615 3.41114C21.5021 2.68116 21.8098 2.06581 22.413 1.85466C23.0163 1.63747 23.6438 1.92705 23.8971 2.65703L25.3692 6.81368C26.2138 9.2027 25.3692 11.3021 23.1068 12.1045C20.8445 12.9069 18.8657 11.8029 18.0211 9.41385V9.40782Z"></path>
<path fill="#453B67" d="M32.7355 7.01267C32.0055 7.00061 31.5651 6.53004 31.5772 5.93279C31.5892 5.33553 32.0477 4.87703 32.7717 4.8891L35.0702 4.9253C35.7519 4.93736 36.1983 5.39586 36.1863 6.07758L36.1742 6.89201C36.1441 8.76824 34.7143 10.6505 32.1141 10.6083C29.2605 10.56 27.6256 8.26148 27.6739 5.57081C27.7101 2.88618 29.4234 0.641954 32.2589 0.690217C33.4232 0.708316 34.3885 1.10649 35.1366 1.7701C35.4503 2.05365 35.6795 2.42165 35.6735 2.88618C35.6614 3.4955 35.2331 3.954 34.5936 3.94797C34.2135 3.94194 33.9119 3.77905 33.6404 3.50757C33.3267 3.1818 32.8622 2.91032 32.2227 2.90428C30.8412 2.88015 29.9905 4.10483 29.9664 5.61908C29.9423 7.13333 30.7205 8.38213 32.1865 8.40627C33.0613 8.41833 33.8093 7.98396 33.8998 7.0368L32.7355 7.0187V7.01267Z"></path>
<path fill="#453B67" d="M39.293 9.79981L38.6958 10.4755C38.3037 10.9099 37.9115 11.1632 37.3324 10.9642C36.711 10.753 36.4395 10.198 36.6386 9.60675C36.7049 9.4137 36.8377 9.15429 37.0368 8.93107L42.0621 3.14554C42.5146 2.62068 42.961 2.45176 43.4557 2.62068C43.9504 2.7896 44.1978 3.19381 44.24 3.88759L44.7045 11.5312C44.7287 11.8269 44.6744 12.1225 44.608 12.3155C44.4089 12.9067 43.8539 13.1842 43.2325 12.9731C42.6534 12.774 42.4965 12.3396 42.4482 11.7545L42.3698 10.8495L39.293 9.80584V9.79981ZM42.2552 6.13182C41.7424 6.86783 41.2537 7.50128 40.6625 8.20713L42.2612 8.75008C42.2069 7.82102 42.219 7.02468 42.2612 6.13182H42.2552Z"></path>
<path fill="#453B67" d="M47.2924 14.0655C46.8339 14.6868 46.1522 14.7773 45.6334 14.3912C45.1206 14.0112 45.012 13.3295 45.4705 12.7081L49.8443 6.81998C50.2546 6.27099 50.882 6.18049 51.431 6.5847L53.3917 8.04465C55.1412 9.34775 55.4972 11.2059 54.3449 12.7624C53.633 13.7216 52.6617 14.1258 51.606 14.0112L51.4853 16.1528C51.4612 16.5027 51.431 16.8587 51.1656 17.2207C50.8096 17.6973 50.2365 17.8179 49.6996 17.4137C49.1988 17.0397 49.1807 16.551 49.235 15.9417L49.4703 13.1847L48.487 12.4547L47.2864 14.0655H47.2924ZM50.7975 11.5196C51.425 11.9902 52.0464 12.0143 52.4687 11.4412C52.891 10.868 52.6919 10.2828 52.0644 9.81832L51.0268 9.04611L49.7599 10.7534L50.7975 11.5256V11.5196Z"></path>
<path fill="#453B67" d="M20.2838 64.6202C20.9474 64.9219 21.1646 65.5312 20.9173 66.0741C20.6699 66.6171 20.0666 66.8524 19.403 66.5568L17.9069 65.8751L16.9356 68.0228C16.6158 68.7226 15.9703 68.9579 15.3851 68.6924C14.818 68.433 14.5526 67.7875 14.8723 67.0816L17.9008 60.4032C18.1844 59.7819 18.7816 59.5586 19.403 59.8422L23.3003 61.6098C23.988 61.9235 24.2173 62.5509 23.9579 63.1241C23.6984 63.6912 23.077 63.9385 22.3893 63.6248L19.5237 62.3277L18.7877 63.9445L20.2838 64.6263V64.6202Z"></path>
<path fill="#453B67" d="M25.8945 70.8888C25.7859 71.655 25.2309 72.0592 24.5974 71.9687C23.964 71.8782 23.5417 71.3352 23.6442 70.5751L24.6578 63.3115C24.7543 62.6358 25.2611 62.2497 25.9428 62.3462L28.362 62.6841C30.5217 62.9857 31.7283 64.4517 31.4629 66.3641C31.3 67.5466 30.6424 68.367 29.659 68.7712L30.576 70.7078C30.7268 71.0215 30.8656 71.3533 30.8053 71.7997C30.7208 72.391 30.2744 72.771 29.6108 72.6745C28.9894 72.59 28.742 72.1677 28.4947 71.6067L27.3786 69.0668L26.166 68.8979L25.8885 70.8888H25.8945ZM27.7526 66.9734C28.5309 67.082 29.0859 66.8045 29.1824 66.0987C29.2789 65.3928 28.8265 64.9766 28.0482 64.868L26.7632 64.687L26.4676 66.7925L27.7526 66.9734Z"></path>
<path fill="#453B67" d="M39.2331 69.5432C39.9812 69.4286 40.5121 69.8388 40.6086 70.4542C40.6991 71.0756 40.313 71.6185 39.565 71.7271L35.2454 72.3726C34.5697 72.4752 34.0569 72.0951 33.9544 71.4194L32.8745 64.1921C32.7719 63.5164 33.152 63.0036 33.8277 62.901L38.0628 62.2736C38.8108 62.159 39.3417 62.5692 39.4383 63.1846C39.5287 63.806 39.1426 64.3489 38.3946 64.4575L35.2816 64.922L35.4928 66.3337L37.1216 66.0924C37.8395 65.9838 38.3584 66.382 38.4428 66.9672C38.5333 67.5584 38.1533 68.0833 37.4353 68.1919L35.8065 68.4332L36.0417 70.0138L39.2392 69.5372L39.2331 69.5432Z"></path>
<path fill="#453B67" d="M47.9686 66.2433C48.6564 65.9296 49.2778 66.1709 49.5432 66.738C49.8026 67.3051 49.5794 67.9385 48.8917 68.2523L44.922 70.0681C44.3007 70.3517 43.7034 70.1285 43.4199 69.5071L40.3793 62.8649C40.0957 62.2435 40.319 61.6463 40.9403 61.3627L44.8316 59.583C45.5193 59.2693 46.1407 59.5106 46.4001 60.0777C46.6595 60.6448 46.4363 61.2782 45.7486 61.592L42.889 62.9011L43.4802 64.1982L44.9763 63.5164C45.64 63.2148 46.2432 63.4501 46.4906 63.993C46.7379 64.536 46.5208 65.1453 45.8632 65.447L44.367 66.1287L45.0306 67.5826L47.9686 66.2373V66.2433Z"></path>
<path fill="#453B67" d="M51.3652 61.5857C51.1601 61.5857 50.9549 61.4952 50.8162 61.3203C50.5688 61.0186 50.6171 60.5722 50.9187 60.3248C58.0617 54.5333 62.158 45.9485 62.158 36.7604C62.158 30.0217 59.9982 23.645 55.9079 18.3179C55.6666 18.0042 55.7269 17.5638 56.0407 17.3225C56.3544 17.0812 56.7948 17.1475 57.03 17.4552C61.3134 23.0356 63.5757 29.708 63.5757 36.7604C63.5757 46.3768 59.2863 55.3658 51.8116 61.4228C51.6789 61.5314 51.522 61.5797 51.3652 61.5797V61.5857Z"></path>
<path fill="#453B67" d="M31.8365 60.5002C18.7512 60.5002 8.09717 49.8522 8.09717 36.7609C8.09717 23.6695 18.7512 13.0215 31.8365 13.0215C44.9218 13.0215 55.5759 23.6695 55.5759 36.7609C55.5759 49.8522 44.9279 60.5002 31.8365 60.5002ZM31.8365 14.4392C19.5295 14.4392 9.51489 24.4538 9.51489 36.7609C9.51489 49.0679 19.5295 59.0825 31.8365 59.0825C44.1436 59.0825 54.1582 49.0679 54.1582 36.7609C54.1582 24.4538 44.1436 14.4392 31.8365 14.4392Z"></path>
<path fill="#453B67" d="M27.2633 42.6126C27.1306 42.6126 26.9918 42.5764 26.8712 42.4919L20.0118 37.919C19.686 37.7018 19.5955 37.2614 19.8127 36.9356C20.0299 36.6099 20.4703 36.5194 20.7961 36.7365L27.6555 41.3095C27.9812 41.5266 28.0717 41.967 27.8545 42.2928C27.7158 42.4979 27.4926 42.6065 27.2633 42.6065V42.6126Z"></path>
<path fill="#453B67" d="M27.2633 42.6121C26.8712 42.6121 26.5574 42.2984 26.5574 41.9063V33.7378L21.1158 30.5584V37.3273C21.1158 37.7195 20.8021 38.0332 20.4099 38.0332C20.0178 38.0332 19.7041 37.7195 19.7041 37.3273V29.3217C19.7041 29.0683 19.8368 28.833 20.06 28.7063C20.2772 28.5797 20.5487 28.5797 20.7719 28.7063L27.6313 32.7061C27.8485 32.8328 27.9812 33.0681 27.9812 33.3155V41.8882C27.9812 42.2803 27.6675 42.594 27.2754 42.594L27.2633 42.6121Z"></path>
<path fill="#453B67" d="M27.2638 42.6123C27.0346 42.6123 26.8113 42.5037 26.6726 42.2986C26.4554 41.9728 26.5459 41.5324 26.8717 41.3152L28.3497 40.3319C28.6755 40.1147 29.1159 40.1991 29.3331 40.5309C29.5503 40.8567 29.4598 41.2971 29.134 41.5143L27.6559 42.4977C27.5353 42.5761 27.3965 42.6183 27.2638 42.6183V42.6123Z"></path>
<path fill="#453B67" d="M27.2635 42.6125C26.8713 42.6125 26.5576 42.2988 26.5576 41.9067V33.3339C26.5576 33.0806 26.6903 32.8513 26.9075 32.7246L33.7669 28.7248C34.1047 28.5257 34.5391 28.6404 34.7382 28.9782C34.9373 29.316 34.8227 29.7504 34.4848 29.9435L27.9753 33.7381V41.9067C27.9753 42.2988 27.6616 42.6125 27.2695 42.6125H27.2635Z"></path>
<path fill="#453B67" d="M34.1228 33.8222C33.7307 33.8222 33.417 33.5085 33.417 33.1164V29.3338C33.417 28.9416 33.7307 28.6279 34.1228 28.6279C34.515 28.6279 34.8287 28.9416 34.8287 29.3338V33.1164C34.8287 33.5085 34.515 33.8222 34.1228 33.8222Z"></path>
<path fill="#453B67" d="M34.1231 30.0402C34.0145 30.0402 33.9059 30.016 33.8094 29.9678L27.2637 26.6919L20.718 29.9678C20.3681 30.1427 19.9458 29.9979 19.7709 29.6541C19.5959 29.3041 19.7347 28.8818 20.0846 28.7069L26.944 25.2742C27.1431 25.1716 27.3783 25.1716 27.5774 25.2742L34.4368 28.7069C34.7867 28.8818 34.9255 29.3041 34.7505 29.6541C34.6238 29.9014 34.3765 30.0462 34.1171 30.0462L34.1231 30.0402Z"></path>
<path fill="#453B67" d="M31.2694 44.8989C31.1185 44.8989 30.9677 44.8506 30.8471 44.7541C30.6842 44.6334 30.5816 44.4404 30.5635 44.2353L29.9904 36.2296C29.9602 35.8375 30.2558 35.4997 30.648 35.4755C31.0462 35.4273 31.378 35.741 31.4021 36.1331L31.9149 43.3243L38.5209 41.9066L37.996 34.5163C37.9659 34.1242 38.2615 33.7863 38.6536 33.7622C39.0518 33.72 39.3836 34.0276 39.4077 34.4198L39.9808 42.4254C40.005 42.7753 39.7697 43.095 39.4258 43.1674L31.4202 44.8808C31.3719 44.8928 31.3237 44.8989 31.2694 44.8989Z"></path>
<path fill="#453B67" d="M30.6962 36.8995C30.3704 36.8995 30.0748 36.6702 30.0024 36.3384C29.9179 35.9583 30.1653 35.5783 30.5454 35.4998L38.551 33.7865C38.9311 33.7141 39.3111 33.9494 39.3896 34.3294C39.474 34.7095 39.2267 35.0896 38.8466 35.168L30.841 36.8814C30.7927 36.8934 30.7384 36.8995 30.6901 36.8995H30.6962Z"></path>
<path fill="#453B67" d="M42.7019 46.0453C42.539 46.0453 42.3761 45.991 42.2494 45.8824L38.8167 43.0229C38.6719 42.9022 38.5754 42.7212 38.5634 42.5282L37.9902 34.5225C37.9721 34.239 38.123 33.9735 38.3703 33.8408C38.6237 33.7141 38.9314 33.7443 39.1485 33.9253L42.5813 36.7849C42.726 36.9055 42.8226 37.0865 42.8346 37.2796L43.4078 45.2852C43.4259 45.5687 43.275 45.8342 43.0277 45.9669C42.9251 46.0152 42.8165 46.0453 42.7019 46.0453ZM39.957 42.13L41.8754 43.7287L41.4471 37.6838L39.5286 36.085L39.963 42.13H39.957Z"></path>
</svg>
