<svg xmlns="http://www.w3.org/2000/svg" fill="none" viewBox="0 0 244 12" height="12" width="244">
<path stroke-width="2" stroke="black" fill="black" d="M103.305 3.28832C91.9882 3.77699 80.8055 4.33427 69.9013 4.92244C54.4652 5.75465 39.0354 6.60698 23.7042 7.81132C18.8784 8.19139 13.9758 8.46154 9.1813 8.91688C6.17163 9.20231 2.18124 9.60436 1.65798 9.68342C1.38434 9.7282 1.26565 9.79077 1.22731 9.81158C0.957697 9.95732 1.00948 10.0928 1.16462 10.1964C1.22697 10.2409 1.38457 10.3496 1.81737 10.3578C30.7626 10.9316 60.3117 8.43962 89.2721 7.76545C139.495 6.60053 191.268 7.21925 241.148 9.57554C241.584 9.59385 242.005 9.46081 242.062 9.273C242.132 9.09004 241.815 8.91829 241.379 8.89998C191.415 6.54 139.556 5.91757 89.2371 7.08908C62.2471 7.71666 34.7495 9.9284 7.70929 9.75362C8.32954 9.69321 8.93774 9.63298 9.49283 9.57866C14.268 9.12363 19.1501 8.85886 23.9566 8.4791C39.2551 7.27528 54.6535 6.42346 70.0692 5.59662C89.1969 4.56408 109.16 3.61923 129.285 3.00519C136.487 2.93575 143.665 2.86672 150.843 2.80777C166.372 2.68128 181.976 2.78593 197.474 3.01351C202.14 3.08556 206.807 3.16264 211.473 3.21954C213.02 3.24031 217.01 3.30798 217.565 3.28901C218.254 3.26793 218.383 3.02343 218.394 2.98283C218.429 2.89135 218.403 2.76548 218.063 2.66483C218.026 2.65025 217.808 2.60319 217.324 2.5806C189.131 1.24221 159.052 1.42409 129.299 2.32811C97.9043 2.64206 66.3909 3.06394 35.0781 3.47761C34.6298 3.48477 34.2661 3.64213 34.2655 3.82904C34.266 4.01593 34.6297 4.1617 35.078 4.1596C57.7513 3.8585 80.5393 3.55553 103.305 3.28832Z" clip-rule="evenodd" fill-rule="evenodd"></path>
</svg>
