<svg xmlns="http://www.w3.org/2000/svg" fill="none" viewBox="0 0 205 9" height="9" width="205">
<path stroke-width="2" stroke="#BBB2FF" d="M68.4519 1.61834C46.1662 1.47329 23.7896 2.00339 2.21888 4.22926C1.83402 4.26882 1.67425 4.34662 1.64276 4.36442C1.4585 4.46991 1.43864 4.582 1.46196 4.6743C1.47596 4.73034 1.57046 4.96704 2.08711 4.99143C2.44397 5.00791 4.97701 4.89254 5.95431 4.86287C10.5551 4.72375 15.1467 4.52529 19.7358 4.29585C30.141 3.77762 40.5321 3.32929 50.9536 2.92117C56.8047 2.69172 62.658 2.50183 68.5079 2.34623C82.5809 2.4392 96.6189 2.80183 110.395 3.17632C104.919 3.36687 99.8879 3.56005 95.7163 3.68532C88.6815 3.8963 81.6596 4.14552 74.6388 4.47386C71.0316 4.64199 67.4291 4.82463 63.8289 5.04023C63.4301 5.06462 62.5216 5.08967 62.0819 5.11934C61.8953 5.13121 61.76 5.15033 61.6994 5.16352C61.3192 5.24659 61.2714 5.41669 61.2667 5.5024C61.2644 5.55449 61.2959 5.83866 61.9373 5.89405C91.7615 8.49309 122.877 5.46944 152.808 7.99597C153.159 8.02563 153.488 7.88849 153.541 7.68938C153.593 7.49092 153.351 7.30499 152.998 7.27532C124.808 4.89583 95.567 7.44016 67.3405 5.5723C69.8071 5.43714 72.2748 5.31516 74.7449 5.19978C81.7528 4.8721 88.762 4.62353 95.785 4.41255C102.852 4.20091 112.406 3.78751 122.407 3.52708C130.989 3.7974 139.567 4.10069 148.15 4.35782C151.771 4.46595 155.394 4.55562 159.014 4.66573C160.502 4.71056 164.331 4.89847 164.886 4.82858C165.317 4.77386 165.421 4.59914 165.447 4.51145C165.474 4.41651 165.457 4.29848 165.261 4.18574C165.201 4.15014 165.019 4.0763 164.646 4.01564C154.552 2.38118 138.024 2.40689 122.544 2.80182C119.215 2.69633 115.885 2.59612 112.554 2.50579C104.93 2.2981 97.2207 2.08975 89.4675 1.92558C111.317 1.62032 133.177 1.70801 155.043 1.92888C164.223 2.02185 188.97 2.58227 198.716 3.07742C198.597 3.14665 198.527 3.24291 198.535 3.34775C198.552 3.54818 198.854 3.70378 199.209 3.69455C201.22 3.6418 202.383 3.57455 202.843 3.50532C203.13 3.46247 203.287 3.3939 203.359 3.34906C203.536 3.24094 203.569 3.12489 203.534 3.01478C203.512 2.94621 203.457 2.87105 203.331 2.80182C203.247 2.75435 203.042 2.68183 202.692 2.63238C198.861 2.09372 165.997 1.31109 155.066 1.20033C126.18 0.908908 97.3046 0.849575 68.4519 1.61834ZM156.832 3.8719C151.187 3.43873 144.57 3.28643 137.667 3.29632C141.183 3.4117 144.701 3.52445 148.219 3.62994C151.089 3.71631 153.961 3.79015 156.832 3.8719ZM41.829 2.5592C34.4234 2.86776 27.0259 3.20138 19.6227 3.5706C18.7678 3.61279 17.9141 3.65433 17.0593 3.69521C25.2463 3.12819 33.5184 2.76754 41.829 2.5592Z" clip-rule="evenodd" fill-rule="evenodd"></path>
</svg>
