<svg xmlns="http://www.w3.org/2000/svg" fill="none" viewBox="0 0 207 12" height="12" width="207">
<path stroke-width="2" stroke="#FFCA12" d="M68.9618 1.97275C46.3555 1.78626 23.6569 2.4678 1.77578 5.32964C1.38538 5.3805 1.22332 5.48053 1.19137 5.50342C1.00446 5.63905 0.984312 5.78316 1.00797 5.90184C1.02217 5.97389 1.11803 6.27821 1.64211 6.30957C2.00412 6.33077 4.57359 6.18242 5.56496 6.14428C10.232 5.96541 14.8896 5.71026 19.5447 5.41526C30.0996 4.74896 40.6403 4.17253 51.2118 3.6478C57.147 3.3528 63.0846 3.10866 69.0186 2.9086C83.2941 3.02813 97.5341 3.49437 111.508 3.97586C105.954 4.22085 100.85 4.46922 96.6184 4.63029C89.4825 4.90155 82.3595 5.22198 75.2377 5.64413C71.5787 5.86029 67.9243 6.09511 64.2723 6.37231C63.8677 6.40368 62.9461 6.43589 62.5001 6.47403C62.3108 6.48929 62.1736 6.51388 62.1121 6.53083C61.7265 6.63764 61.678 6.85634 61.6732 6.96654C61.6709 7.03351 61.7028 7.39887 62.3535 7.47008C92.6068 10.8117 124.17 6.92416 154.532 10.1725C154.888 10.2107 155.222 10.0344 155.275 9.77836C155.328 9.52321 155.082 9.28415 154.725 9.24601C126.129 6.18666 96.467 9.45794 67.8344 7.0564C70.3365 6.88262 72.8397 6.7258 75.3454 6.57745C82.4541 6.15614 89.5641 5.83656 96.6882 5.5653C103.857 5.29319 113.549 4.76168 123.693 4.42684C132.399 4.77439 141.1 5.16433 149.807 5.49494C153.48 5.63396 157.155 5.74925 160.827 5.89081C162.336 5.94846 166.22 6.19005 166.783 6.10019C167.221 6.02984 167.326 5.8052 167.352 5.69246C167.38 5.57039 167.363 5.41864 167.164 5.27369C167.103 5.22791 166.918 5.13297 166.54 5.05498C156.301 2.95354 139.535 2.98659 123.833 3.49437C120.455 3.35873 117.078 3.22988 113.699 3.11375C105.964 2.84672 98.1445 2.57885 90.2798 2.36777C112.444 1.97528 134.618 2.08803 156.799 2.37201C166.111 2.49154 191.214 3.21209 201.1 3.84871C200.98 3.93772 200.909 4.06148 200.917 4.19626C200.934 4.45396 201.24 4.65402 201.601 4.64215C203.64 4.57434 204.82 4.48787 205.287 4.39887C205.578 4.34376 205.737 4.2556 205.81 4.19796C205.99 4.05894 206.023 3.90974 205.987 3.76817C205.965 3.68001 205.909 3.58337 205.782 3.49437C205.696 3.43333 205.488 3.34009 205.133 3.27651C201.247 2.58394 167.911 1.57771 156.822 1.4353C127.52 1.06062 98.2297 0.984331 68.9618 1.97275ZM158.613 4.87018C152.888 4.31324 146.175 4.11743 139.173 4.13014C142.74 4.27849 146.308 4.42345 149.877 4.55908C152.788 4.67013 155.701 4.76507 158.613 4.87018ZM41.9559 3.18242C34.4437 3.57914 26.9398 4.00807 19.43 4.48279C18.5628 4.53704 17.6968 4.59045 16.8297 4.643C25.1345 3.91398 33.5257 3.45029 41.9559 3.18242Z" clip-rule="evenodd" fill-rule="evenodd"></path>
</svg>
